M48
; DRILL file {KiCad (5.1.5)-3} date 09/20/20 17:18:56
; FORMAT={-:-/ absolute / metric / decimal}
; #@! TF.CreationDate,2020-09-20T17:18:56+02:00
; #@! TF.GenerationSoftware,Kicad,Pcbnew,(5.1.5)-3
FMAT,2
METRIC
T1C0.300
T2C0.410
T3C0.900
T4C1.000
T5C1.001
T6C1.100
T7C1.400
T8C1.600
T9C1.700
T10C1.800
T11C2.300
T12C2.301
T13C3.500
T14C4.500
%
G90
G05
T1
X63.3Y-127.8
X68.9Y-120.5
X71.5Y-117.8
X71.5Y-123.6
X71.5Y-126.0
X72.6Y-126.2
X74.2Y-125.7
X77.4Y-121.4
X78.6Y-124.8
X81.0Y-122.4
X81.2Y-127.3
X81.2Y-129.0
X83.3Y-115.9
X83.4Y-119.9
X83.5Y-129.9
X84.0Y-122.7
X84.0Y-126.9
X84.4Y-133.4
X84.8Y-129.8
X85.7Y-141.4
X86.1Y-124.8
X87.1Y-131.9
X87.8Y-131.1
X88.2Y-122.7
X88.2Y-126.9
X88.4Y-115.9
X88.4Y-119.8
X90.4Y-121.4
X91.0Y-127.2
X93.1Y-128.1
X95.4Y-123.1
X96.2Y-129.5
X97.0Y-116.0
X97.6Y-117.6
X98.7Y-116.0
X100.0Y-129.5
X100.0Y-131.9
X100.4Y-113.7
X101.4Y-117.0
X102.0Y-121.3
X102.4Y-117.5
X102.5Y-113.7
X103.1Y-124.7
X103.6Y-125.5
X103.7Y-117.5
X104.2Y-126.3
X104.9Y-113.7
X104.9Y-117.5
X105.2Y-127.1
X105.7Y-118.3
X106.0Y-127.9
X106.3Y-131.9
X106.7Y-117.6
X107.4Y-113.7
X108.6Y-113.7
X110.2Y-130.6
X110.7Y-124.7
X110.7Y-127.1
X112.1Y-116.0
X113.9Y-116.0
X114.2Y-104.8
X114.6Y-100.9
X114.7Y-117.8
X114.8Y-119.0
X114.8Y-120.0
X119.6Y-109.9
X120.1Y-111.2
X120.1Y-112.1
X120.1Y-113.3
X120.1Y-114.3
X123.5Y-108.3
X123.6Y-107.0
X124.9Y-102.2
X137.2Y-113.9
X141.4Y-113.9
X146.3Y-79.8
X156.9Y-67.3
X168.6Y-77.2
X170.7Y-111.8
X170.7Y-114.4
X172.5Y-111.8
X172.5Y-115.4
X172.9Y-103.9
X173.5Y-109.3
X174.5Y-100.5
X174.6Y-101.9
X174.9Y-98.1
X177.1Y-117.0
X177.4Y-109.2
X179.1Y-97.15
X182.9Y-100.4
X182.9Y-101.9
X182.9Y-107.7
X183.0Y-97.2
X183.2Y-103.6
X185.0Y-103.2
X185.9Y-75.6
X186.6Y-109.3
X186.6Y-110.6
X189.7Y-79.0
X189.8Y-75.6
X191.3Y-82.7
X192.5Y-82.3
X229.3Y-76.2
X233.3Y-76.3
X234.6Y-76.4
X235.1Y-83.5
X236.2Y-83.2
X252.3Y-113.9
X256.5Y-113.9
X261.4Y-79.8
X271.7Y-67.3
X283.7Y-77.2
X285.0Y-112.1
X285.0Y-114.4
X286.6Y-111.9
X286.6Y-115.8
X288.3Y-103.5
X290.0Y-100.0
X290.0Y-101.2
X290.2Y-97.3
X291.9Y-117.0
X292.2Y-108.8
X292.2Y-110.6
X295.0Y-96.4
X298.0Y-107.5
X298.2Y-103.5
X299.2Y-99.6
X299.2Y-101.2
X299.3Y-96.4
X300.0Y-103.1
X301.5Y-109.3
X301.5Y-110.6
X308.5Y-89.4
X308.5Y-90.7
X310.0Y-96.8
X310.9Y-98.2
X310.9Y-99.8
X311.0Y-102.9
X311.9Y-92.6
X311.9Y-96.5
X315.4Y-102.9
X317.6Y-89.4
X317.6Y-91.3
X317.9Y-83.1
X320.0Y-99.8
X320.0Y-101.9
X320.1Y-98.3
X321.5Y-96.1
X323.0Y-85.6
X323.0Y-89.3
X325.0Y-85.9
X325.0Y-88.2
X326.4Y-122.8
X338.1Y-132.6
X348.6Y-120.2
X354.3Y-89.0
X358.5Y-89.0
X368.7Y-116.6
X369.6Y-115.9
X370.2Y-123.2
X371.6Y-123.2
X375.8Y-123.3
X411.0Y-117.9
X412.0Y-117.3
X413.6Y-124.3
X414.0Y-121.2
X417.4Y-124.7
X418.5Y-89.4
X418.5Y-90.7
X420.0Y-96.8
X420.8Y-98.1
X420.8Y-99.6
X420.8Y-103.0
X421.8Y-96.4
X422.0Y-92.5
X424.9Y-103.0
X427.9Y-83.0
X428.0Y-89.4
X428.0Y-90.6
X428.0Y-91.9
X429.3Y-99.7
X429.3Y-102.0
X429.5Y-98.1
X431.0Y-96.5
X433.0Y-85.6
X433.0Y-89.3
X435.2Y-85.6
X435.2Y-88.1
X436.3Y-122.7
X447.9Y-132.9
X458.6Y-120.2
X464.4Y-89.0
X468.4Y-89.0
X482.2Y-113.9
X486.3Y-114.0
X491.4Y-79.7
X501.9Y-67.3
X513.6Y-77.2
X515.3Y-112.1
X515.3Y-114.4
X516.8Y-111.9
X516.8Y-115.7
X519.1Y-103.9
X520.5Y-99.9
X520.5Y-101.6
X520.6Y-97.1
X522.0Y-116.9
X522.3Y-108.1
X522.3Y-109.9
X525.1Y-96.1
X528.0Y-107.7
X528.2Y-103.6
X529.2Y-96.1
X529.2Y-100.1
X529.2Y-101.6
X530.0Y-103.2
X531.4Y-109.3
X531.4Y-110.6
X532.4Y-75.2
X536.2Y-75.3
X536.3Y-78.8
X537.9Y-82.5
X539.0Y-82.1
X574.2Y-76.5
X578.0Y-76.5
X579.4Y-76.6
X579.9Y-83.6
X580.9Y-83.5
X591.9Y-113.9
X595.9Y-113.9
X601.0Y-79.7
X612.0Y-67.2
X623.6Y-77.3
X625.1Y-112.0
X625.1Y-114.3
X627.5Y-111.9
X627.5Y-115.6
X628.9Y-103.4
X630.5Y-100.0
X630.6Y-101.5
X630.8Y-97.5
X632.0Y-116.9
X632.4Y-109.3
X635.3Y-96.4
X638.0Y-108.0
X638.1Y-103.6
X639.3Y-96.4
X639.3Y-100.0
X639.3Y-101.5
X639.9Y-103.2
X642.2Y-109.3
X642.2Y-110.6
X646.9Y-109.3
X646.9Y-110.8
T2
X496.625Y-77.75
X496.625Y-78.75
X496.625Y-79.75
X496.625Y-80.75
X496.625Y-81.75
X496.625Y-82.75
X498.15Y-77.25
X498.15Y-78.25
X498.15Y-79.25
X498.15Y-80.25
X498.15Y-81.25
X498.15Y-82.25
X499.75Y-74.125
X499.75Y-84.35
X500.25Y-75.65
X500.25Y-85.875
X500.75Y-74.125
X500.75Y-84.35
X501.25Y-75.65
X501.25Y-85.875
X501.75Y-74.125
X501.75Y-84.35
X502.25Y-75.65
X502.25Y-85.875
X502.75Y-74.125
X502.75Y-84.35
X503.25Y-75.65
X503.25Y-85.875
X503.75Y-74.125
X503.75Y-84.35
X504.25Y-75.65
X504.25Y-85.875
X504.75Y-74.125
X504.75Y-84.35
X505.25Y-75.65
X505.25Y-85.875
X506.85Y-77.75
X506.85Y-78.75
X506.85Y-79.75
X506.85Y-80.75
X506.85Y-81.75
X506.85Y-82.75
X508.375Y-77.25
X508.375Y-78.25
X508.375Y-79.25
X508.375Y-80.25
X508.375Y-81.25
X508.375Y-82.25
X331.625Y-117.75
X331.625Y-118.75
X331.625Y-119.75
X331.625Y-120.75
X331.625Y-121.75
X331.625Y-122.75
X333.15Y-117.25
X333.15Y-118.25
X333.15Y-119.25
X333.15Y-120.25
X333.15Y-121.25
X333.15Y-122.25
X334.75Y-114.125
X334.75Y-124.35
X335.25Y-115.65
X335.25Y-125.875
X335.75Y-114.125
X335.75Y-124.35
X336.25Y-115.65
X336.25Y-125.875
X336.75Y-114.125
X336.75Y-124.35
X337.25Y-115.65
X337.25Y-125.875
X337.75Y-114.125
X337.75Y-124.35
X338.25Y-115.65
X338.25Y-125.875
X338.75Y-114.125
X338.75Y-124.35
X339.25Y-115.65
X339.25Y-125.875
X339.75Y-114.125
X339.75Y-124.35
X340.25Y-115.65
X340.25Y-125.875
X341.85Y-117.75
X341.85Y-118.75
X341.85Y-119.75
X341.85Y-120.75
X341.85Y-121.75
X341.85Y-122.75
X343.375Y-117.25
X343.375Y-118.25
X343.375Y-119.25
X343.375Y-120.25
X343.375Y-121.25
X343.375Y-122.25
X266.625Y-77.75
X266.625Y-78.75
X266.625Y-79.75
X266.625Y-80.75
X266.625Y-81.75
X266.625Y-82.75
X268.15Y-77.25
X268.15Y-78.25
X268.15Y-79.25
X268.15Y-80.25
X268.15Y-81.25
X268.15Y-82.25
X269.75Y-74.125
X269.75Y-84.35
X270.25Y-75.65
X270.25Y-85.875
X270.75Y-74.125
X270.75Y-84.35
X271.25Y-75.65
X271.25Y-85.875
X271.75Y-74.125
X271.75Y-84.35
X272.25Y-75.65
X272.25Y-85.875
X272.75Y-74.125
X272.75Y-84.35
X273.25Y-75.65
X273.25Y-85.875
X273.75Y-74.125
X273.75Y-84.35
X274.25Y-75.65
X274.25Y-85.875
X274.75Y-74.125
X274.75Y-84.35
X275.25Y-75.65
X275.25Y-85.875
X276.85Y-77.75
X276.85Y-78.75
X276.85Y-79.75
X276.85Y-80.75
X276.85Y-81.75
X276.85Y-82.75
X278.375Y-77.25
X278.375Y-78.25
X278.375Y-79.25
X278.375Y-80.25
X278.375Y-81.25
X278.375Y-82.25
X606.625Y-77.75
X606.625Y-78.75
X606.625Y-79.75
X606.625Y-80.75
X606.625Y-81.75
X606.625Y-82.75
X608.15Y-77.25
X608.15Y-78.25
X608.15Y-79.25
X608.15Y-80.25
X608.15Y-81.25
X608.15Y-82.25
X609.75Y-74.125
X609.75Y-84.35
X610.25Y-75.65
X610.25Y-85.875
X610.75Y-74.125
X610.75Y-84.35
X611.25Y-75.65
X611.25Y-85.875
X611.75Y-74.125
X611.75Y-84.35
X612.25Y-75.65
X612.25Y-85.875
X612.75Y-74.125
X612.75Y-84.35
X613.25Y-75.65
X613.25Y-85.875
X613.75Y-74.125
X613.75Y-84.35
X614.25Y-75.65
X614.25Y-85.875
X614.75Y-74.125
X614.75Y-84.35
X615.25Y-75.65
X615.25Y-85.875
X616.85Y-77.75
X616.85Y-78.75
X616.85Y-79.75
X616.85Y-80.75
X616.85Y-81.75
X616.85Y-82.75
X618.375Y-77.25
X618.375Y-78.25
X618.375Y-79.25
X618.375Y-80.25
X618.375Y-81.25
X618.375Y-82.25
X151.625Y-77.75
X151.625Y-78.75
X151.625Y-79.75
X151.625Y-80.75
X151.625Y-81.75
X151.625Y-82.75
X153.15Y-77.25
X153.15Y-78.25
X153.15Y-79.25
X153.15Y-80.25
X153.15Y-81.25
X153.15Y-82.25
X154.75Y-74.125
X154.75Y-84.35
X155.25Y-75.65
X155.25Y-85.875
X155.75Y-74.125
X155.75Y-84.35
X156.25Y-75.65
X156.25Y-85.875
X156.75Y-74.125
X156.75Y-84.35
X157.25Y-75.65
X157.25Y-85.875
X157.75Y-74.125
X157.75Y-84.35
X158.25Y-75.65
X158.25Y-85.875
X158.75Y-74.125
X158.75Y-84.35
X159.25Y-75.65
X159.25Y-85.875
X159.75Y-74.125
X159.75Y-84.35
X160.25Y-75.65
X160.25Y-85.875
X161.85Y-77.75
X161.85Y-78.75
X161.85Y-79.75
X161.85Y-80.75
X161.85Y-81.75
X161.85Y-82.75
X163.375Y-77.25
X163.375Y-78.25
X163.375Y-79.25
X163.375Y-80.25
X163.375Y-81.25
X163.375Y-82.25
X441.625Y-117.75
X441.625Y-118.75
X441.625Y-119.75
X441.625Y-120.75
X441.625Y-121.75
X441.625Y-122.75
X443.15Y-117.25
X443.15Y-118.25
X443.15Y-119.25
X443.15Y-120.25
X443.15Y-121.25
X443.15Y-122.25
X444.75Y-114.125
X444.75Y-124.35
X445.25Y-115.65
X445.25Y-125.875
X445.75Y-114.125
X445.75Y-124.35
X446.25Y-115.65
X446.25Y-125.875
X446.75Y-114.125
X446.75Y-124.35
X447.25Y-115.65
X447.25Y-125.875
X447.75Y-114.125
X447.75Y-124.35
X448.25Y-115.65
X448.25Y-125.875
X448.75Y-114.125
X448.75Y-124.35
X449.25Y-115.65
X449.25Y-125.875
X449.75Y-114.125
X449.75Y-124.35
X450.25Y-115.65
X450.25Y-125.875
X451.85Y-117.75
X451.85Y-118.75
X451.85Y-119.75
X451.85Y-120.75
X451.85Y-121.75
X451.85Y-122.75
X453.375Y-117.25
X453.375Y-118.25
X453.375Y-119.25
X453.375Y-120.25
X453.375Y-121.25
X453.375Y-122.25
T3
X271.2Y-135.1
X273.8Y-134.9
X501.2Y-135.1
X503.8Y-134.9
X336.2Y-65.1
X338.8Y-64.9
X611.2Y-135.1
X613.8Y-134.9
X156.2Y-135.1
X158.8Y-134.9
X446.2Y-65.1
X448.8Y-64.9
T4
X225.0Y-70.0
X225.0Y-72.54
X225.0Y-75.08
X225.0Y-77.62
X225.0Y-80.16
X225.0Y-82.7
X225.0Y-85.24
X225.0Y-87.78
X225.0Y-90.32
X225.0Y-92.86
X227.54Y-70.0
X227.54Y-72.54
X227.54Y-75.08
X227.54Y-77.62
X227.54Y-80.16
X227.54Y-82.7
X227.54Y-85.24
X227.54Y-87.78
X227.54Y-90.32
X227.54Y-92.86
X63.1Y-118.85
X63.1Y-121.35
X65.099Y-118.85
X65.099Y-121.35
X570.0Y-70.0
X570.0Y-72.54
X570.0Y-75.08
X570.0Y-77.62
X570.0Y-80.16
X570.0Y-82.7
X570.0Y-85.24
X570.0Y-87.78
X570.0Y-90.32
X570.0Y-92.86
X572.54Y-70.0
X572.54Y-72.54
X572.54Y-75.08
X572.54Y-77.62
X572.54Y-80.16
X572.54Y-82.7
X572.54Y-85.24
X572.54Y-87.78
X572.54Y-90.32
X572.54Y-92.86
X71.6Y-48.1
X71.6Y-53.1
X62.66Y-137.42
X62.66Y-139.96
X62.66Y-142.5
X65.2Y-137.42
X65.2Y-139.96
X65.2Y-142.5
X200.0Y-70.0
X200.0Y-72.54
X200.0Y-75.08
X200.0Y-77.62
X200.0Y-80.16
X200.0Y-82.7
X200.0Y-85.24
X200.0Y-87.78
X200.0Y-90.32
X200.0Y-92.86
X202.54Y-70.0
X202.54Y-72.54
X202.54Y-75.08
X202.54Y-77.62
X202.54Y-80.16
X202.54Y-82.7
X202.54Y-85.24
X202.54Y-87.78
X202.54Y-90.32
X202.54Y-92.86
X377.46Y-107.14
X377.46Y-109.68
X377.46Y-112.22
X377.46Y-114.76
X377.46Y-117.3
X377.46Y-119.84
X377.46Y-122.38
X377.46Y-124.92
X377.46Y-127.46
X377.46Y-130.0
X380.0Y-107.14
X380.0Y-109.68
X380.0Y-112.22
X380.0Y-114.76
X380.0Y-117.3
X380.0Y-119.84
X380.0Y-122.38
X380.0Y-124.92
X380.0Y-127.46
X380.0Y-130.0
X545.0Y-70.0
X545.0Y-72.54
X545.0Y-75.08
X545.0Y-77.62
X545.0Y-80.16
X545.0Y-82.7
X545.0Y-85.24
X545.0Y-87.78
X545.0Y-90.32
X545.0Y-92.86
X547.54Y-70.0
X547.54Y-72.54
X547.54Y-75.08
X547.54Y-77.62
X547.54Y-80.16
X547.54Y-82.7
X547.54Y-85.24
X547.54Y-87.78
X547.54Y-90.32
X547.54Y-92.86
X402.46Y-107.14
X402.46Y-109.68
X402.46Y-112.22
X402.46Y-114.76
X402.46Y-117.3
X402.46Y-119.84
X402.46Y-122.38
X402.46Y-124.92
X402.46Y-127.46
X402.46Y-130.0
X405.0Y-107.14
X405.0Y-109.68
X405.0Y-112.22
X405.0Y-114.76
X405.0Y-117.3
X405.0Y-119.84
X405.0Y-122.38
X405.0Y-124.92
X405.0Y-127.46
X405.0Y-130.0
T6
X443.75Y-67.5
X451.25Y-62.5
X268.75Y-137.5
X498.75Y-137.5
X506.25Y-132.5
X333.75Y-67.5
X341.25Y-62.5
X608.75Y-137.5
X616.25Y-132.5
X153.75Y-137.5
X161.25Y-132.5
X276.25Y-132.5
T7
X163.725Y-86.225
X441.275Y-113.775
X508.725Y-86.225
X331.275Y-113.775
X278.725Y-86.225
X618.725Y-86.225
T8
X153.75Y-131.25
X268.75Y-131.25
X341.25Y-68.75
X608.75Y-131.25
X451.25Y-68.75
X498.75Y-131.25
T9
X607.7Y-135.0
X617.3Y-135.0
X152.7Y-135.0
X162.3Y-135.0
X442.7Y-65.0
X452.3Y-65.0
X267.7Y-135.0
X277.3Y-135.0
X497.7Y-135.0
X507.3Y-135.0
X332.7Y-65.0
X342.3Y-65.0
T10
X453.725Y-126.225
X496.275Y-73.775
X343.725Y-126.225
X266.275Y-73.775
X606.275Y-73.775
X151.275Y-73.775
T11
X494.65Y-87.85
X510.35Y-72.15
X329.65Y-127.85
X345.35Y-112.15
X264.65Y-87.85
X280.35Y-72.15
X604.65Y-87.85
X620.35Y-72.15
X149.65Y-87.85
X165.35Y-72.15
X439.65Y-127.85
X455.35Y-112.15
T12
X60.4Y-114.101
X60.4Y-126.099
T13
X185.0Y-145.0
X475.0Y-145.0
X640.0Y-145.0
X640.0Y-55.0
X60.0Y-65.0
X365.0Y-55.0
X365.0Y-145.0
X60.0Y-105.0
X310.0Y-145.0
X475.0Y-55.0
X185.0Y-55.0
X100.0Y-50.0
X530.0Y-145.0
X240.0Y-145.0
X530.0Y-55.0
X585.0Y-145.0
X310.0Y-55.0
X585.0Y-55.0
X130.0Y-145.0
X420.0Y-145.0
X240.0Y-55.0
X420.0Y-55.0
T14
X447.5Y-120.0
X502.5Y-80.0
X337.5Y-120.0
X272.5Y-80.0
X612.5Y-80.0
X157.5Y-80.0
T5
G00X57.7Y-50.499
M15
G01X57.7Y-48.501
M16
G05
G00X61.699Y-54.199
M15
G01X59.7Y-54.199
M16
G05
G00X63.699Y-50.75
M15
G01X63.699Y-48.25
M16
G05
T0
M30
