G04 #@! TF.GenerationSoftware,KiCad,Pcbnew,(5.1.5)-3*
G04 #@! TF.CreationDate,2020-09-20T17:18:26+02:00*
G04 #@! TF.ProjectId,prog_rig,70726f67-5f72-4696-972e-6b696361645f,A*
G04 #@! TF.SameCoordinates,Original*
G04 #@! TF.FileFunction,Copper,L4,Bot*
G04 #@! TF.FilePolarity,Positive*
%FSLAX46Y46*%
G04 Gerber Fmt 4.6, Leading zero omitted, Abs format (unit mm)*
G04 Created by KiCad (PCBNEW (5.1.5)-3) date 2020-09-20 17:18:26*
%MOMM*%
%LPD*%
G04 APERTURE LIST*
%ADD10C,0.800000*%
%ADD11C,1.400000*%
%ADD12C,1.800000*%
%ADD13C,2.300000*%
%ADD14C,5.500000*%
%ADD15C,0.100000*%
%ADD16R,1.700000X1.700000*%
%ADD17O,1.700000X1.700000*%
%ADD18O,1.998980X4.000500*%
%ADD19O,4.000500X1.998980*%
%ADD20O,1.998980X4.500880*%
%ADD21C,1.700000*%
%ADD22C,3.299460*%
%ADD23C,2.000000*%
%ADD24C,1.100000*%
%ADD25C,1.600000*%
%ADD26C,7.000000*%
%ADD27R,2.000000X2.000000*%
%ADD28C,0.700000*%
%ADD29C,0.300000*%
%ADD30C,0.500000*%
G04 APERTURE END LIST*
D10*
X609750000Y-74125000D03*
X610250000Y-75650000D03*
X614750000Y-74125000D03*
X615250000Y-75650000D03*
X618375000Y-77250000D03*
X616850000Y-77750000D03*
X618375000Y-82250000D03*
X616850000Y-82750000D03*
X615250000Y-85875000D03*
X614750000Y-84350000D03*
X610250000Y-85875000D03*
X609750000Y-84350000D03*
X606625000Y-82750000D03*
X608150000Y-82250000D03*
X606625000Y-77750000D03*
X608150000Y-77250000D03*
D11*
X618725000Y-86225000D03*
D12*
X606275000Y-73775000D03*
D13*
X604650000Y-87850000D03*
X620350000Y-72150000D03*
D10*
X610750000Y-74125000D03*
X611250000Y-75650000D03*
X611750000Y-74125000D03*
X612250000Y-75650000D03*
X612750000Y-74125000D03*
X613250000Y-75650000D03*
X613750000Y-74125000D03*
X614250000Y-75650000D03*
X618375000Y-78250000D03*
X616850000Y-78750000D03*
X618375000Y-79250000D03*
X616850000Y-79750000D03*
X618375000Y-80250000D03*
X616850000Y-80750000D03*
X618375000Y-81250000D03*
X616850000Y-81750000D03*
X614250000Y-85875000D03*
X613750000Y-84350000D03*
X613250000Y-85875000D03*
X612750000Y-84350000D03*
X612250000Y-85875000D03*
X611750000Y-84350000D03*
X611250000Y-85875000D03*
X610750000Y-84350000D03*
X606625000Y-81750000D03*
X608150000Y-81250000D03*
X606625000Y-80750000D03*
X608150000Y-80250000D03*
X606625000Y-79750000D03*
X608150000Y-79250000D03*
X606625000Y-78750000D03*
X608150000Y-78250000D03*
D14*
X612500000Y-80000000D03*
D10*
X154750000Y-74125000D03*
X155250000Y-75650000D03*
X159750000Y-74125000D03*
X160250000Y-75650000D03*
X163375000Y-77250000D03*
X161850000Y-77750000D03*
X163375000Y-82250000D03*
X161850000Y-82750000D03*
X160250000Y-85875000D03*
X159750000Y-84350000D03*
X155250000Y-85875000D03*
X154750000Y-84350000D03*
X151625000Y-82750000D03*
X153150000Y-82250000D03*
X151625000Y-77750000D03*
X153150000Y-77250000D03*
D11*
X163725000Y-86225000D03*
D12*
X151275000Y-73775000D03*
D13*
X149650000Y-87850000D03*
X165350000Y-72150000D03*
D10*
X155750000Y-74125000D03*
X156250000Y-75650000D03*
X156750000Y-74125000D03*
X157250000Y-75650000D03*
X157750000Y-74125000D03*
X158250000Y-75650000D03*
X158750000Y-74125000D03*
X159250000Y-75650000D03*
X163375000Y-78250000D03*
X161850000Y-78750000D03*
X163375000Y-79250000D03*
X161850000Y-79750000D03*
X163375000Y-80250000D03*
X161850000Y-80750000D03*
X163375000Y-81250000D03*
X161850000Y-81750000D03*
X159250000Y-85875000D03*
X158750000Y-84350000D03*
X158250000Y-85875000D03*
X157750000Y-84350000D03*
X157250000Y-85875000D03*
X156750000Y-84350000D03*
X156250000Y-85875000D03*
X155750000Y-84350000D03*
X151625000Y-81750000D03*
X153150000Y-81250000D03*
X151625000Y-80750000D03*
X153150000Y-80250000D03*
X151625000Y-79750000D03*
X153150000Y-79250000D03*
X151625000Y-78750000D03*
X153150000Y-78250000D03*
D14*
X157500000Y-80000000D03*
D10*
X269750000Y-74125000D03*
X270250000Y-75650000D03*
X274750000Y-74125000D03*
X275250000Y-75650000D03*
X278375000Y-77250000D03*
X276850000Y-77750000D03*
X278375000Y-82250000D03*
X276850000Y-82750000D03*
X275250000Y-85875000D03*
X274750000Y-84350000D03*
X270250000Y-85875000D03*
X269750000Y-84350000D03*
X266625000Y-82750000D03*
X268150000Y-82250000D03*
X266625000Y-77750000D03*
X268150000Y-77250000D03*
D11*
X278725000Y-86225000D03*
D12*
X266275000Y-73775000D03*
D13*
X264650000Y-87850000D03*
X280350000Y-72150000D03*
D10*
X270750000Y-74125000D03*
X271250000Y-75650000D03*
X271750000Y-74125000D03*
X272250000Y-75650000D03*
X272750000Y-74125000D03*
X273250000Y-75650000D03*
X273750000Y-74125000D03*
X274250000Y-75650000D03*
X278375000Y-78250000D03*
X276850000Y-78750000D03*
X278375000Y-79250000D03*
X276850000Y-79750000D03*
X278375000Y-80250000D03*
X276850000Y-80750000D03*
X278375000Y-81250000D03*
X276850000Y-81750000D03*
X274250000Y-85875000D03*
X273750000Y-84350000D03*
X273250000Y-85875000D03*
X272750000Y-84350000D03*
X272250000Y-85875000D03*
X271750000Y-84350000D03*
X271250000Y-85875000D03*
X270750000Y-84350000D03*
X266625000Y-81750000D03*
X268150000Y-81250000D03*
X266625000Y-80750000D03*
X268150000Y-80250000D03*
X266625000Y-79750000D03*
X268150000Y-79250000D03*
X266625000Y-78750000D03*
X268150000Y-78250000D03*
D14*
X272500000Y-80000000D03*
D10*
X499750000Y-74125000D03*
X500250000Y-75650000D03*
X504750000Y-74125000D03*
X505250000Y-75650000D03*
X508375000Y-77250000D03*
X506850000Y-77750000D03*
X508375000Y-82250000D03*
X506850000Y-82750000D03*
X505250000Y-85875000D03*
X504750000Y-84350000D03*
X500250000Y-85875000D03*
X499750000Y-84350000D03*
X496625000Y-82750000D03*
X498150000Y-82250000D03*
X496625000Y-77750000D03*
X498150000Y-77250000D03*
D11*
X508725000Y-86225000D03*
D12*
X496275000Y-73775000D03*
D13*
X494650000Y-87850000D03*
X510350000Y-72150000D03*
D10*
X500750000Y-74125000D03*
X501250000Y-75650000D03*
X501750000Y-74125000D03*
X502250000Y-75650000D03*
X502750000Y-74125000D03*
X503250000Y-75650000D03*
X503750000Y-74125000D03*
X504250000Y-75650000D03*
X508375000Y-78250000D03*
X506850000Y-78750000D03*
X508375000Y-79250000D03*
X506850000Y-79750000D03*
X508375000Y-80250000D03*
X506850000Y-80750000D03*
X508375000Y-81250000D03*
X506850000Y-81750000D03*
X504250000Y-85875000D03*
X503750000Y-84350000D03*
X503250000Y-85875000D03*
X502750000Y-84350000D03*
X502250000Y-85875000D03*
X501750000Y-84350000D03*
X501250000Y-85875000D03*
X500750000Y-84350000D03*
X496625000Y-81750000D03*
X498150000Y-81250000D03*
X496625000Y-80750000D03*
X498150000Y-80250000D03*
X496625000Y-79750000D03*
X498150000Y-79250000D03*
X496625000Y-78750000D03*
X498150000Y-78250000D03*
D14*
X502500000Y-80000000D03*
D10*
X450250000Y-125875000D03*
X449750000Y-124350000D03*
X445250000Y-125875000D03*
X444750000Y-124350000D03*
X441625000Y-122750000D03*
X443150000Y-122250000D03*
X441625000Y-117750000D03*
X443150000Y-117250000D03*
X444750000Y-114125000D03*
X445250000Y-115650000D03*
X449750000Y-114125000D03*
X450250000Y-115650000D03*
X453375000Y-117250000D03*
X451850000Y-117750000D03*
X453375000Y-122250000D03*
X451850000Y-122750000D03*
D11*
X441275000Y-113775000D03*
D12*
X453725000Y-126225000D03*
D13*
X455350000Y-112150000D03*
X439650000Y-127850000D03*
D10*
X449250000Y-125875000D03*
X448750000Y-124350000D03*
X448250000Y-125875000D03*
X447750000Y-124350000D03*
X447250000Y-125875000D03*
X446750000Y-124350000D03*
X446250000Y-125875000D03*
X445750000Y-124350000D03*
X441625000Y-121750000D03*
X443150000Y-121250000D03*
X441625000Y-120750000D03*
X443150000Y-120250000D03*
X441625000Y-119750000D03*
X443150000Y-119250000D03*
X441625000Y-118750000D03*
X443150000Y-118250000D03*
X445750000Y-114125000D03*
X446250000Y-115650000D03*
X446750000Y-114125000D03*
X447250000Y-115650000D03*
X447750000Y-114125000D03*
X448250000Y-115650000D03*
X448750000Y-114125000D03*
X449250000Y-115650000D03*
X453375000Y-118250000D03*
X451850000Y-118750000D03*
X453375000Y-119250000D03*
X451850000Y-119750000D03*
X453375000Y-120250000D03*
X451850000Y-120750000D03*
X453375000Y-121250000D03*
X451850000Y-121750000D03*
D14*
X447500000Y-120000000D03*
D10*
X340250000Y-125875000D03*
X339750000Y-124350000D03*
X335250000Y-125875000D03*
X334750000Y-124350000D03*
X331625000Y-122750000D03*
X333150000Y-122250000D03*
X331625000Y-117750000D03*
X333150000Y-117250000D03*
X334750000Y-114125000D03*
X335250000Y-115650000D03*
X339750000Y-114125000D03*
X340250000Y-115650000D03*
X343375000Y-117250000D03*
X341850000Y-117750000D03*
X343375000Y-122250000D03*
X341850000Y-122750000D03*
D11*
X331275000Y-113775000D03*
D12*
X343725000Y-126225000D03*
D13*
X345350000Y-112150000D03*
X329650000Y-127850000D03*
D10*
X339250000Y-125875000D03*
X338750000Y-124350000D03*
X338250000Y-125875000D03*
X337750000Y-124350000D03*
X337250000Y-125875000D03*
X336750000Y-124350000D03*
X336250000Y-125875000D03*
X335750000Y-124350000D03*
X331625000Y-121750000D03*
X333150000Y-121250000D03*
X331625000Y-120750000D03*
X333150000Y-120250000D03*
X331625000Y-119750000D03*
X333150000Y-119250000D03*
X331625000Y-118750000D03*
X333150000Y-118250000D03*
X335750000Y-114125000D03*
X336250000Y-115650000D03*
X336750000Y-114125000D03*
X337250000Y-115650000D03*
X337750000Y-114125000D03*
X338250000Y-115650000D03*
X338750000Y-114125000D03*
X339250000Y-115650000D03*
X343375000Y-118250000D03*
X341850000Y-118750000D03*
X343375000Y-119250000D03*
X341850000Y-119750000D03*
X343375000Y-120250000D03*
X341850000Y-120750000D03*
X343375000Y-121250000D03*
X341850000Y-121750000D03*
D14*
X337500000Y-120000000D03*
G04 #@! TA.AperFunction,SMDPad,CuDef*
D15*
G36*
X262852691Y-79326053D02*
G01*
X262873926Y-79329203D01*
X262894750Y-79334419D01*
X262914962Y-79341651D01*
X262934368Y-79350830D01*
X262952781Y-79361866D01*
X262970024Y-79374654D01*
X262985930Y-79389070D01*
X263000346Y-79404976D01*
X263013134Y-79422219D01*
X263024170Y-79440632D01*
X263033349Y-79460038D01*
X263040581Y-79480250D01*
X263045797Y-79501074D01*
X263048947Y-79522309D01*
X263050000Y-79543750D01*
X263050000Y-80056250D01*
X263048947Y-80077691D01*
X263045797Y-80098926D01*
X263040581Y-80119750D01*
X263033349Y-80139962D01*
X263024170Y-80159368D01*
X263013134Y-80177781D01*
X263000346Y-80195024D01*
X262985930Y-80210930D01*
X262970024Y-80225346D01*
X262952781Y-80238134D01*
X262934368Y-80249170D01*
X262914962Y-80258349D01*
X262894750Y-80265581D01*
X262873926Y-80270797D01*
X262852691Y-80273947D01*
X262831250Y-80275000D01*
X262393750Y-80275000D01*
X262372309Y-80273947D01*
X262351074Y-80270797D01*
X262330250Y-80265581D01*
X262310038Y-80258349D01*
X262290632Y-80249170D01*
X262272219Y-80238134D01*
X262254976Y-80225346D01*
X262239070Y-80210930D01*
X262224654Y-80195024D01*
X262211866Y-80177781D01*
X262200830Y-80159368D01*
X262191651Y-80139962D01*
X262184419Y-80119750D01*
X262179203Y-80098926D01*
X262176053Y-80077691D01*
X262175000Y-80056250D01*
X262175000Y-79543750D01*
X262176053Y-79522309D01*
X262179203Y-79501074D01*
X262184419Y-79480250D01*
X262191651Y-79460038D01*
X262200830Y-79440632D01*
X262211866Y-79422219D01*
X262224654Y-79404976D01*
X262239070Y-79389070D01*
X262254976Y-79374654D01*
X262272219Y-79361866D01*
X262290632Y-79350830D01*
X262310038Y-79341651D01*
X262330250Y-79334419D01*
X262351074Y-79329203D01*
X262372309Y-79326053D01*
X262393750Y-79325000D01*
X262831250Y-79325000D01*
X262852691Y-79326053D01*
G37*
G04 #@! TD.AperFunction*
G04 #@! TA.AperFunction,SMDPad,CuDef*
G36*
X264427691Y-79326053D02*
G01*
X264448926Y-79329203D01*
X264469750Y-79334419D01*
X264489962Y-79341651D01*
X264509368Y-79350830D01*
X264527781Y-79361866D01*
X264545024Y-79374654D01*
X264560930Y-79389070D01*
X264575346Y-79404976D01*
X264588134Y-79422219D01*
X264599170Y-79440632D01*
X264608349Y-79460038D01*
X264615581Y-79480250D01*
X264620797Y-79501074D01*
X264623947Y-79522309D01*
X264625000Y-79543750D01*
X264625000Y-80056250D01*
X264623947Y-80077691D01*
X264620797Y-80098926D01*
X264615581Y-80119750D01*
X264608349Y-80139962D01*
X264599170Y-80159368D01*
X264588134Y-80177781D01*
X264575346Y-80195024D01*
X264560930Y-80210930D01*
X264545024Y-80225346D01*
X264527781Y-80238134D01*
X264509368Y-80249170D01*
X264489962Y-80258349D01*
X264469750Y-80265581D01*
X264448926Y-80270797D01*
X264427691Y-80273947D01*
X264406250Y-80275000D01*
X263968750Y-80275000D01*
X263947309Y-80273947D01*
X263926074Y-80270797D01*
X263905250Y-80265581D01*
X263885038Y-80258349D01*
X263865632Y-80249170D01*
X263847219Y-80238134D01*
X263829976Y-80225346D01*
X263814070Y-80210930D01*
X263799654Y-80195024D01*
X263786866Y-80177781D01*
X263775830Y-80159368D01*
X263766651Y-80139962D01*
X263759419Y-80119750D01*
X263754203Y-80098926D01*
X263751053Y-80077691D01*
X263750000Y-80056250D01*
X263750000Y-79543750D01*
X263751053Y-79522309D01*
X263754203Y-79501074D01*
X263759419Y-79480250D01*
X263766651Y-79460038D01*
X263775830Y-79440632D01*
X263786866Y-79422219D01*
X263799654Y-79404976D01*
X263814070Y-79389070D01*
X263829976Y-79374654D01*
X263847219Y-79361866D01*
X263865632Y-79350830D01*
X263885038Y-79341651D01*
X263905250Y-79334419D01*
X263926074Y-79329203D01*
X263947309Y-79326053D01*
X263968750Y-79325000D01*
X264406250Y-79325000D01*
X264427691Y-79326053D01*
G37*
G04 #@! TD.AperFunction*
D16*
X225000000Y-70000000D03*
D17*
X227540000Y-70000000D03*
X225000000Y-72540000D03*
X227540000Y-72540000D03*
X225000000Y-75080000D03*
X227540000Y-75080000D03*
X225000000Y-77620000D03*
X227540000Y-77620000D03*
X225000000Y-80160000D03*
X227540000Y-80160000D03*
X225000000Y-82700000D03*
X227540000Y-82700000D03*
X225000000Y-85240000D03*
X227540000Y-85240000D03*
X225000000Y-87780000D03*
X227540000Y-87780000D03*
X225000000Y-90320000D03*
X227540000Y-90320000D03*
X225000000Y-92860000D03*
X227540000Y-92860000D03*
G04 #@! TA.AperFunction,SMDPad,CuDef*
D15*
G36*
X273527691Y-71026053D02*
G01*
X273548926Y-71029203D01*
X273569750Y-71034419D01*
X273589962Y-71041651D01*
X273609368Y-71050830D01*
X273627781Y-71061866D01*
X273645024Y-71074654D01*
X273660930Y-71089070D01*
X273675346Y-71104976D01*
X273688134Y-71122219D01*
X273699170Y-71140632D01*
X273708349Y-71160038D01*
X273715581Y-71180250D01*
X273720797Y-71201074D01*
X273723947Y-71222309D01*
X273725000Y-71243750D01*
X273725000Y-71756250D01*
X273723947Y-71777691D01*
X273720797Y-71798926D01*
X273715581Y-71819750D01*
X273708349Y-71839962D01*
X273699170Y-71859368D01*
X273688134Y-71877781D01*
X273675346Y-71895024D01*
X273660930Y-71910930D01*
X273645024Y-71925346D01*
X273627781Y-71938134D01*
X273609368Y-71949170D01*
X273589962Y-71958349D01*
X273569750Y-71965581D01*
X273548926Y-71970797D01*
X273527691Y-71973947D01*
X273506250Y-71975000D01*
X273068750Y-71975000D01*
X273047309Y-71973947D01*
X273026074Y-71970797D01*
X273005250Y-71965581D01*
X272985038Y-71958349D01*
X272965632Y-71949170D01*
X272947219Y-71938134D01*
X272929976Y-71925346D01*
X272914070Y-71910930D01*
X272899654Y-71895024D01*
X272886866Y-71877781D01*
X272875830Y-71859368D01*
X272866651Y-71839962D01*
X272859419Y-71819750D01*
X272854203Y-71798926D01*
X272851053Y-71777691D01*
X272850000Y-71756250D01*
X272850000Y-71243750D01*
X272851053Y-71222309D01*
X272854203Y-71201074D01*
X272859419Y-71180250D01*
X272866651Y-71160038D01*
X272875830Y-71140632D01*
X272886866Y-71122219D01*
X272899654Y-71104976D01*
X272914070Y-71089070D01*
X272929976Y-71074654D01*
X272947219Y-71061866D01*
X272965632Y-71050830D01*
X272985038Y-71041651D01*
X273005250Y-71034419D01*
X273026074Y-71029203D01*
X273047309Y-71026053D01*
X273068750Y-71025000D01*
X273506250Y-71025000D01*
X273527691Y-71026053D01*
G37*
G04 #@! TD.AperFunction*
G04 #@! TA.AperFunction,SMDPad,CuDef*
G36*
X271952691Y-71026053D02*
G01*
X271973926Y-71029203D01*
X271994750Y-71034419D01*
X272014962Y-71041651D01*
X272034368Y-71050830D01*
X272052781Y-71061866D01*
X272070024Y-71074654D01*
X272085930Y-71089070D01*
X272100346Y-71104976D01*
X272113134Y-71122219D01*
X272124170Y-71140632D01*
X272133349Y-71160038D01*
X272140581Y-71180250D01*
X272145797Y-71201074D01*
X272148947Y-71222309D01*
X272150000Y-71243750D01*
X272150000Y-71756250D01*
X272148947Y-71777691D01*
X272145797Y-71798926D01*
X272140581Y-71819750D01*
X272133349Y-71839962D01*
X272124170Y-71859368D01*
X272113134Y-71877781D01*
X272100346Y-71895024D01*
X272085930Y-71910930D01*
X272070024Y-71925346D01*
X272052781Y-71938134D01*
X272034368Y-71949170D01*
X272014962Y-71958349D01*
X271994750Y-71965581D01*
X271973926Y-71970797D01*
X271952691Y-71973947D01*
X271931250Y-71975000D01*
X271493750Y-71975000D01*
X271472309Y-71973947D01*
X271451074Y-71970797D01*
X271430250Y-71965581D01*
X271410038Y-71958349D01*
X271390632Y-71949170D01*
X271372219Y-71938134D01*
X271354976Y-71925346D01*
X271339070Y-71910930D01*
X271324654Y-71895024D01*
X271311866Y-71877781D01*
X271300830Y-71859368D01*
X271291651Y-71839962D01*
X271284419Y-71819750D01*
X271279203Y-71798926D01*
X271276053Y-71777691D01*
X271275000Y-71756250D01*
X271275000Y-71243750D01*
X271276053Y-71222309D01*
X271279203Y-71201074D01*
X271284419Y-71180250D01*
X271291651Y-71160038D01*
X271300830Y-71140632D01*
X271311866Y-71122219D01*
X271324654Y-71104976D01*
X271339070Y-71089070D01*
X271354976Y-71074654D01*
X271372219Y-71061866D01*
X271390632Y-71050830D01*
X271410038Y-71041651D01*
X271430250Y-71034419D01*
X271451074Y-71029203D01*
X271472309Y-71026053D01*
X271493750Y-71025000D01*
X271931250Y-71025000D01*
X271952691Y-71026053D01*
G37*
G04 #@! TD.AperFunction*
G04 #@! TA.AperFunction,SMDPad,CuDef*
G36*
X270554805Y-82503274D02*
G01*
X270576040Y-82506424D01*
X270596864Y-82511640D01*
X270617076Y-82518872D01*
X270636482Y-82528051D01*
X270654895Y-82539087D01*
X270672138Y-82551875D01*
X270688044Y-82566291D01*
X270997403Y-82875650D01*
X271011819Y-82891556D01*
X271024607Y-82908799D01*
X271035643Y-82927212D01*
X271044822Y-82946618D01*
X271052054Y-82966830D01*
X271057270Y-82987654D01*
X271060420Y-83008889D01*
X271061473Y-83030330D01*
X271060420Y-83051771D01*
X271057270Y-83073006D01*
X271052054Y-83093830D01*
X271044822Y-83114042D01*
X271035643Y-83133448D01*
X271024607Y-83151861D01*
X271011819Y-83169104D01*
X270997403Y-83185010D01*
X270635010Y-83547403D01*
X270619104Y-83561819D01*
X270601861Y-83574607D01*
X270583448Y-83585643D01*
X270564042Y-83594822D01*
X270543830Y-83602054D01*
X270523006Y-83607270D01*
X270501771Y-83610420D01*
X270480330Y-83611473D01*
X270458889Y-83610420D01*
X270437654Y-83607270D01*
X270416830Y-83602054D01*
X270396618Y-83594822D01*
X270377212Y-83585643D01*
X270358799Y-83574607D01*
X270341556Y-83561819D01*
X270325650Y-83547403D01*
X270016291Y-83238044D01*
X270001875Y-83222138D01*
X269989087Y-83204895D01*
X269978051Y-83186482D01*
X269968872Y-83167076D01*
X269961640Y-83146864D01*
X269956424Y-83126040D01*
X269953274Y-83104805D01*
X269952221Y-83083364D01*
X269953274Y-83061923D01*
X269956424Y-83040688D01*
X269961640Y-83019864D01*
X269968872Y-82999652D01*
X269978051Y-82980246D01*
X269989087Y-82961833D01*
X270001875Y-82944590D01*
X270016291Y-82928684D01*
X270378684Y-82566291D01*
X270394590Y-82551875D01*
X270411833Y-82539087D01*
X270430246Y-82528051D01*
X270449652Y-82518872D01*
X270469864Y-82511640D01*
X270490688Y-82506424D01*
X270511923Y-82503274D01*
X270533364Y-82502221D01*
X270554805Y-82503274D01*
G37*
G04 #@! TD.AperFunction*
G04 #@! TA.AperFunction,SMDPad,CuDef*
G36*
X269441111Y-81389580D02*
G01*
X269462346Y-81392730D01*
X269483170Y-81397946D01*
X269503382Y-81405178D01*
X269522788Y-81414357D01*
X269541201Y-81425393D01*
X269558444Y-81438181D01*
X269574350Y-81452597D01*
X269883709Y-81761956D01*
X269898125Y-81777862D01*
X269910913Y-81795105D01*
X269921949Y-81813518D01*
X269931128Y-81832924D01*
X269938360Y-81853136D01*
X269943576Y-81873960D01*
X269946726Y-81895195D01*
X269947779Y-81916636D01*
X269946726Y-81938077D01*
X269943576Y-81959312D01*
X269938360Y-81980136D01*
X269931128Y-82000348D01*
X269921949Y-82019754D01*
X269910913Y-82038167D01*
X269898125Y-82055410D01*
X269883709Y-82071316D01*
X269521316Y-82433709D01*
X269505410Y-82448125D01*
X269488167Y-82460913D01*
X269469754Y-82471949D01*
X269450348Y-82481128D01*
X269430136Y-82488360D01*
X269409312Y-82493576D01*
X269388077Y-82496726D01*
X269366636Y-82497779D01*
X269345195Y-82496726D01*
X269323960Y-82493576D01*
X269303136Y-82488360D01*
X269282924Y-82481128D01*
X269263518Y-82471949D01*
X269245105Y-82460913D01*
X269227862Y-82448125D01*
X269211956Y-82433709D01*
X268902597Y-82124350D01*
X268888181Y-82108444D01*
X268875393Y-82091201D01*
X268864357Y-82072788D01*
X268855178Y-82053382D01*
X268847946Y-82033170D01*
X268842730Y-82012346D01*
X268839580Y-81991111D01*
X268838527Y-81969670D01*
X268839580Y-81948229D01*
X268842730Y-81926994D01*
X268847946Y-81906170D01*
X268855178Y-81885958D01*
X268864357Y-81866552D01*
X268875393Y-81848139D01*
X268888181Y-81830896D01*
X268902597Y-81814990D01*
X269264990Y-81452597D01*
X269280896Y-81438181D01*
X269298139Y-81425393D01*
X269316552Y-81414357D01*
X269335958Y-81405178D01*
X269356170Y-81397946D01*
X269376994Y-81392730D01*
X269398229Y-81389580D01*
X269419670Y-81388527D01*
X269441111Y-81389580D01*
G37*
G04 #@! TD.AperFunction*
G04 #@! TA.AperFunction,SMDPad,CuDef*
G36*
X269438077Y-77453274D02*
G01*
X269459312Y-77456424D01*
X269480136Y-77461640D01*
X269500348Y-77468872D01*
X269519754Y-77478051D01*
X269538167Y-77489087D01*
X269555410Y-77501875D01*
X269571316Y-77516291D01*
X269933709Y-77878684D01*
X269948125Y-77894590D01*
X269960913Y-77911833D01*
X269971949Y-77930246D01*
X269981128Y-77949652D01*
X269988360Y-77969864D01*
X269993576Y-77990688D01*
X269996726Y-78011923D01*
X269997779Y-78033364D01*
X269996726Y-78054805D01*
X269993576Y-78076040D01*
X269988360Y-78096864D01*
X269981128Y-78117076D01*
X269971949Y-78136482D01*
X269960913Y-78154895D01*
X269948125Y-78172138D01*
X269933709Y-78188044D01*
X269624350Y-78497403D01*
X269608444Y-78511819D01*
X269591201Y-78524607D01*
X269572788Y-78535643D01*
X269553382Y-78544822D01*
X269533170Y-78552054D01*
X269512346Y-78557270D01*
X269491111Y-78560420D01*
X269469670Y-78561473D01*
X269448229Y-78560420D01*
X269426994Y-78557270D01*
X269406170Y-78552054D01*
X269385958Y-78544822D01*
X269366552Y-78535643D01*
X269348139Y-78524607D01*
X269330896Y-78511819D01*
X269314990Y-78497403D01*
X268952597Y-78135010D01*
X268938181Y-78119104D01*
X268925393Y-78101861D01*
X268914357Y-78083448D01*
X268905178Y-78064042D01*
X268897946Y-78043830D01*
X268892730Y-78023006D01*
X268889580Y-78001771D01*
X268888527Y-77980330D01*
X268889580Y-77958889D01*
X268892730Y-77937654D01*
X268897946Y-77916830D01*
X268905178Y-77896618D01*
X268914357Y-77877212D01*
X268925393Y-77858799D01*
X268938181Y-77841556D01*
X268952597Y-77825650D01*
X269261956Y-77516291D01*
X269277862Y-77501875D01*
X269295105Y-77489087D01*
X269313518Y-77478051D01*
X269332924Y-77468872D01*
X269353136Y-77461640D01*
X269373960Y-77456424D01*
X269395195Y-77453274D01*
X269416636Y-77452221D01*
X269438077Y-77453274D01*
G37*
G04 #@! TD.AperFunction*
G04 #@! TA.AperFunction,SMDPad,CuDef*
G36*
X270551771Y-76339580D02*
G01*
X270573006Y-76342730D01*
X270593830Y-76347946D01*
X270614042Y-76355178D01*
X270633448Y-76364357D01*
X270651861Y-76375393D01*
X270669104Y-76388181D01*
X270685010Y-76402597D01*
X271047403Y-76764990D01*
X271061819Y-76780896D01*
X271074607Y-76798139D01*
X271085643Y-76816552D01*
X271094822Y-76835958D01*
X271102054Y-76856170D01*
X271107270Y-76876994D01*
X271110420Y-76898229D01*
X271111473Y-76919670D01*
X271110420Y-76941111D01*
X271107270Y-76962346D01*
X271102054Y-76983170D01*
X271094822Y-77003382D01*
X271085643Y-77022788D01*
X271074607Y-77041201D01*
X271061819Y-77058444D01*
X271047403Y-77074350D01*
X270738044Y-77383709D01*
X270722138Y-77398125D01*
X270704895Y-77410913D01*
X270686482Y-77421949D01*
X270667076Y-77431128D01*
X270646864Y-77438360D01*
X270626040Y-77443576D01*
X270604805Y-77446726D01*
X270583364Y-77447779D01*
X270561923Y-77446726D01*
X270540688Y-77443576D01*
X270519864Y-77438360D01*
X270499652Y-77431128D01*
X270480246Y-77421949D01*
X270461833Y-77410913D01*
X270444590Y-77398125D01*
X270428684Y-77383709D01*
X270066291Y-77021316D01*
X270051875Y-77005410D01*
X270039087Y-76988167D01*
X270028051Y-76969754D01*
X270018872Y-76950348D01*
X270011640Y-76930136D01*
X270006424Y-76909312D01*
X270003274Y-76888077D01*
X270002221Y-76866636D01*
X270003274Y-76845195D01*
X270006424Y-76823960D01*
X270011640Y-76803136D01*
X270018872Y-76782924D01*
X270028051Y-76763518D01*
X270039087Y-76745105D01*
X270051875Y-76727862D01*
X270066291Y-76711956D01*
X270375650Y-76402597D01*
X270391556Y-76388181D01*
X270408799Y-76375393D01*
X270427212Y-76364357D01*
X270446618Y-76355178D01*
X270466830Y-76347946D01*
X270487654Y-76342730D01*
X270508889Y-76339580D01*
X270530330Y-76338527D01*
X270551771Y-76339580D01*
G37*
G04 #@! TD.AperFunction*
G04 #@! TA.AperFunction,SMDPad,CuDef*
G36*
X282827691Y-76726053D02*
G01*
X282848926Y-76729203D01*
X282869750Y-76734419D01*
X282889962Y-76741651D01*
X282909368Y-76750830D01*
X282927781Y-76761866D01*
X282945024Y-76774654D01*
X282960930Y-76789070D01*
X282975346Y-76804976D01*
X282988134Y-76822219D01*
X282999170Y-76840632D01*
X283008349Y-76860038D01*
X283015581Y-76880250D01*
X283020797Y-76901074D01*
X283023947Y-76922309D01*
X283025000Y-76943750D01*
X283025000Y-77456250D01*
X283023947Y-77477691D01*
X283020797Y-77498926D01*
X283015581Y-77519750D01*
X283008349Y-77539962D01*
X282999170Y-77559368D01*
X282988134Y-77577781D01*
X282975346Y-77595024D01*
X282960930Y-77610930D01*
X282945024Y-77625346D01*
X282927781Y-77638134D01*
X282909368Y-77649170D01*
X282889962Y-77658349D01*
X282869750Y-77665581D01*
X282848926Y-77670797D01*
X282827691Y-77673947D01*
X282806250Y-77675000D01*
X282368750Y-77675000D01*
X282347309Y-77673947D01*
X282326074Y-77670797D01*
X282305250Y-77665581D01*
X282285038Y-77658349D01*
X282265632Y-77649170D01*
X282247219Y-77638134D01*
X282229976Y-77625346D01*
X282214070Y-77610930D01*
X282199654Y-77595024D01*
X282186866Y-77577781D01*
X282175830Y-77559368D01*
X282166651Y-77539962D01*
X282159419Y-77519750D01*
X282154203Y-77498926D01*
X282151053Y-77477691D01*
X282150000Y-77456250D01*
X282150000Y-76943750D01*
X282151053Y-76922309D01*
X282154203Y-76901074D01*
X282159419Y-76880250D01*
X282166651Y-76860038D01*
X282175830Y-76840632D01*
X282186866Y-76822219D01*
X282199654Y-76804976D01*
X282214070Y-76789070D01*
X282229976Y-76774654D01*
X282247219Y-76761866D01*
X282265632Y-76750830D01*
X282285038Y-76741651D01*
X282305250Y-76734419D01*
X282326074Y-76729203D01*
X282347309Y-76726053D01*
X282368750Y-76725000D01*
X282806250Y-76725000D01*
X282827691Y-76726053D01*
G37*
G04 #@! TD.AperFunction*
G04 #@! TA.AperFunction,SMDPad,CuDef*
G36*
X281252691Y-76726053D02*
G01*
X281273926Y-76729203D01*
X281294750Y-76734419D01*
X281314962Y-76741651D01*
X281334368Y-76750830D01*
X281352781Y-76761866D01*
X281370024Y-76774654D01*
X281385930Y-76789070D01*
X281400346Y-76804976D01*
X281413134Y-76822219D01*
X281424170Y-76840632D01*
X281433349Y-76860038D01*
X281440581Y-76880250D01*
X281445797Y-76901074D01*
X281448947Y-76922309D01*
X281450000Y-76943750D01*
X281450000Y-77456250D01*
X281448947Y-77477691D01*
X281445797Y-77498926D01*
X281440581Y-77519750D01*
X281433349Y-77539962D01*
X281424170Y-77559368D01*
X281413134Y-77577781D01*
X281400346Y-77595024D01*
X281385930Y-77610930D01*
X281370024Y-77625346D01*
X281352781Y-77638134D01*
X281334368Y-77649170D01*
X281314962Y-77658349D01*
X281294750Y-77665581D01*
X281273926Y-77670797D01*
X281252691Y-77673947D01*
X281231250Y-77675000D01*
X280793750Y-77675000D01*
X280772309Y-77673947D01*
X280751074Y-77670797D01*
X280730250Y-77665581D01*
X280710038Y-77658349D01*
X280690632Y-77649170D01*
X280672219Y-77638134D01*
X280654976Y-77625346D01*
X280639070Y-77610930D01*
X280624654Y-77595024D01*
X280611866Y-77577781D01*
X280600830Y-77559368D01*
X280591651Y-77539962D01*
X280584419Y-77519750D01*
X280579203Y-77498926D01*
X280576053Y-77477691D01*
X280575000Y-77456250D01*
X280575000Y-76943750D01*
X280576053Y-76922309D01*
X280579203Y-76901074D01*
X280584419Y-76880250D01*
X280591651Y-76860038D01*
X280600830Y-76840632D01*
X280611866Y-76822219D01*
X280624654Y-76804976D01*
X280639070Y-76789070D01*
X280654976Y-76774654D01*
X280672219Y-76761866D01*
X280690632Y-76750830D01*
X280710038Y-76741651D01*
X280730250Y-76734419D01*
X280751074Y-76729203D01*
X280772309Y-76726053D01*
X280793750Y-76725000D01*
X281231250Y-76725000D01*
X281252691Y-76726053D01*
G37*
G04 #@! TD.AperFunction*
G04 #@! TA.AperFunction,SMDPad,CuDef*
G36*
X271977691Y-69551053D02*
G01*
X271998926Y-69554203D01*
X272019750Y-69559419D01*
X272039962Y-69566651D01*
X272059368Y-69575830D01*
X272077781Y-69586866D01*
X272095024Y-69599654D01*
X272110930Y-69614070D01*
X272125346Y-69629976D01*
X272138134Y-69647219D01*
X272149170Y-69665632D01*
X272158349Y-69685038D01*
X272165581Y-69705250D01*
X272170797Y-69726074D01*
X272173947Y-69747309D01*
X272175000Y-69768750D01*
X272175000Y-70206250D01*
X272173947Y-70227691D01*
X272170797Y-70248926D01*
X272165581Y-70269750D01*
X272158349Y-70289962D01*
X272149170Y-70309368D01*
X272138134Y-70327781D01*
X272125346Y-70345024D01*
X272110930Y-70360930D01*
X272095024Y-70375346D01*
X272077781Y-70388134D01*
X272059368Y-70399170D01*
X272039962Y-70408349D01*
X272019750Y-70415581D01*
X271998926Y-70420797D01*
X271977691Y-70423947D01*
X271956250Y-70425000D01*
X271443750Y-70425000D01*
X271422309Y-70423947D01*
X271401074Y-70420797D01*
X271380250Y-70415581D01*
X271360038Y-70408349D01*
X271340632Y-70399170D01*
X271322219Y-70388134D01*
X271304976Y-70375346D01*
X271289070Y-70360930D01*
X271274654Y-70345024D01*
X271261866Y-70327781D01*
X271250830Y-70309368D01*
X271241651Y-70289962D01*
X271234419Y-70269750D01*
X271229203Y-70248926D01*
X271226053Y-70227691D01*
X271225000Y-70206250D01*
X271225000Y-69768750D01*
X271226053Y-69747309D01*
X271229203Y-69726074D01*
X271234419Y-69705250D01*
X271241651Y-69685038D01*
X271250830Y-69665632D01*
X271261866Y-69647219D01*
X271274654Y-69629976D01*
X271289070Y-69614070D01*
X271304976Y-69599654D01*
X271322219Y-69586866D01*
X271340632Y-69575830D01*
X271360038Y-69566651D01*
X271380250Y-69559419D01*
X271401074Y-69554203D01*
X271422309Y-69551053D01*
X271443750Y-69550000D01*
X271956250Y-69550000D01*
X271977691Y-69551053D01*
G37*
G04 #@! TD.AperFunction*
G04 #@! TA.AperFunction,SMDPad,CuDef*
G36*
X271977691Y-67976053D02*
G01*
X271998926Y-67979203D01*
X272019750Y-67984419D01*
X272039962Y-67991651D01*
X272059368Y-68000830D01*
X272077781Y-68011866D01*
X272095024Y-68024654D01*
X272110930Y-68039070D01*
X272125346Y-68054976D01*
X272138134Y-68072219D01*
X272149170Y-68090632D01*
X272158349Y-68110038D01*
X272165581Y-68130250D01*
X272170797Y-68151074D01*
X272173947Y-68172309D01*
X272175000Y-68193750D01*
X272175000Y-68631250D01*
X272173947Y-68652691D01*
X272170797Y-68673926D01*
X272165581Y-68694750D01*
X272158349Y-68714962D01*
X272149170Y-68734368D01*
X272138134Y-68752781D01*
X272125346Y-68770024D01*
X272110930Y-68785930D01*
X272095024Y-68800346D01*
X272077781Y-68813134D01*
X272059368Y-68824170D01*
X272039962Y-68833349D01*
X272019750Y-68840581D01*
X271998926Y-68845797D01*
X271977691Y-68848947D01*
X271956250Y-68850000D01*
X271443750Y-68850000D01*
X271422309Y-68848947D01*
X271401074Y-68845797D01*
X271380250Y-68840581D01*
X271360038Y-68833349D01*
X271340632Y-68824170D01*
X271322219Y-68813134D01*
X271304976Y-68800346D01*
X271289070Y-68785930D01*
X271274654Y-68770024D01*
X271261866Y-68752781D01*
X271250830Y-68734368D01*
X271241651Y-68714962D01*
X271234419Y-68694750D01*
X271229203Y-68673926D01*
X271226053Y-68652691D01*
X271225000Y-68631250D01*
X271225000Y-68193750D01*
X271226053Y-68172309D01*
X271229203Y-68151074D01*
X271234419Y-68130250D01*
X271241651Y-68110038D01*
X271250830Y-68090632D01*
X271261866Y-68072219D01*
X271274654Y-68054976D01*
X271289070Y-68039070D01*
X271304976Y-68024654D01*
X271322219Y-68011866D01*
X271340632Y-68000830D01*
X271360038Y-67991651D01*
X271380250Y-67984419D01*
X271401074Y-67979203D01*
X271422309Y-67976053D01*
X271443750Y-67975000D01*
X271956250Y-67975000D01*
X271977691Y-67976053D01*
G37*
G04 #@! TD.AperFunction*
D18*
X57700000Y-49500000D03*
D19*
X60699740Y-54199000D03*
D20*
X63699480Y-49500000D03*
D21*
X65099000Y-121349680D03*
X65099000Y-118850320D03*
X63100020Y-118850320D03*
X63100020Y-121349680D03*
D22*
X60400000Y-114100520D03*
X60400000Y-126099480D03*
D16*
X65200000Y-142500000D03*
D17*
X62660000Y-142500000D03*
X65200000Y-139960000D03*
X62660000Y-139960000D03*
X65200000Y-137420000D03*
X62660000Y-137420000D03*
D23*
X613800000Y-134900000D03*
X611200000Y-135100000D03*
D24*
X616250000Y-132500000D03*
X608750000Y-137500000D03*
D21*
X617300000Y-135000000D03*
X607700000Y-135000000D03*
D25*
X608750000Y-131250000D03*
D23*
X503800000Y-134900000D03*
X501200000Y-135100000D03*
D24*
X506250000Y-132500000D03*
X498750000Y-137500000D03*
D21*
X507300000Y-135000000D03*
X497700000Y-135000000D03*
D25*
X498750000Y-131250000D03*
D23*
X446200000Y-65100000D03*
X448800000Y-64900000D03*
D24*
X443750000Y-67500000D03*
X451250000Y-62500000D03*
D21*
X442700000Y-65000000D03*
X452300000Y-65000000D03*
D25*
X451250000Y-68750000D03*
X341250000Y-68750000D03*
D21*
X342300000Y-65000000D03*
X332700000Y-65000000D03*
D24*
X341250000Y-62500000D03*
X333750000Y-67500000D03*
D23*
X338800000Y-64900000D03*
X336200000Y-65100000D03*
D25*
X268750000Y-131250000D03*
D21*
X267700000Y-135000000D03*
X277300000Y-135000000D03*
D24*
X268750000Y-137500000D03*
X276250000Y-132500000D03*
D23*
X271200000Y-135100000D03*
X273800000Y-134900000D03*
D25*
X153750000Y-131250000D03*
D21*
X152700000Y-135000000D03*
X162300000Y-135000000D03*
D24*
X153750000Y-137500000D03*
X161250000Y-132500000D03*
D23*
X156200000Y-135100000D03*
X158800000Y-134900000D03*
D26*
X100000000Y-50000000D03*
X185000000Y-145000000D03*
X585000000Y-145000000D03*
X60000000Y-105000000D03*
X475000000Y-55000000D03*
X640000000Y-145000000D03*
X60000000Y-65000000D03*
X420000000Y-145000000D03*
X475000000Y-145000000D03*
X640000000Y-55000000D03*
X130000000Y-145000000D03*
X365000000Y-145000000D03*
X530000000Y-55000000D03*
X585000000Y-55000000D03*
X185000000Y-55000000D03*
X310000000Y-145000000D03*
X530000000Y-145000000D03*
X365000000Y-55000000D03*
X240000000Y-55000000D03*
X240000000Y-145000000D03*
X420000000Y-55000000D03*
X310000000Y-55000000D03*
G04 #@! TA.AperFunction,SMDPad,CuDef*
D15*
G36*
X612277691Y-69451053D02*
G01*
X612298926Y-69454203D01*
X612319750Y-69459419D01*
X612339962Y-69466651D01*
X612359368Y-69475830D01*
X612377781Y-69486866D01*
X612395024Y-69499654D01*
X612410930Y-69514070D01*
X612425346Y-69529976D01*
X612438134Y-69547219D01*
X612449170Y-69565632D01*
X612458349Y-69585038D01*
X612465581Y-69605250D01*
X612470797Y-69626074D01*
X612473947Y-69647309D01*
X612475000Y-69668750D01*
X612475000Y-70106250D01*
X612473947Y-70127691D01*
X612470797Y-70148926D01*
X612465581Y-70169750D01*
X612458349Y-70189962D01*
X612449170Y-70209368D01*
X612438134Y-70227781D01*
X612425346Y-70245024D01*
X612410930Y-70260930D01*
X612395024Y-70275346D01*
X612377781Y-70288134D01*
X612359368Y-70299170D01*
X612339962Y-70308349D01*
X612319750Y-70315581D01*
X612298926Y-70320797D01*
X612277691Y-70323947D01*
X612256250Y-70325000D01*
X611743750Y-70325000D01*
X611722309Y-70323947D01*
X611701074Y-70320797D01*
X611680250Y-70315581D01*
X611660038Y-70308349D01*
X611640632Y-70299170D01*
X611622219Y-70288134D01*
X611604976Y-70275346D01*
X611589070Y-70260930D01*
X611574654Y-70245024D01*
X611561866Y-70227781D01*
X611550830Y-70209368D01*
X611541651Y-70189962D01*
X611534419Y-70169750D01*
X611529203Y-70148926D01*
X611526053Y-70127691D01*
X611525000Y-70106250D01*
X611525000Y-69668750D01*
X611526053Y-69647309D01*
X611529203Y-69626074D01*
X611534419Y-69605250D01*
X611541651Y-69585038D01*
X611550830Y-69565632D01*
X611561866Y-69547219D01*
X611574654Y-69529976D01*
X611589070Y-69514070D01*
X611604976Y-69499654D01*
X611622219Y-69486866D01*
X611640632Y-69475830D01*
X611660038Y-69466651D01*
X611680250Y-69459419D01*
X611701074Y-69454203D01*
X611722309Y-69451053D01*
X611743750Y-69450000D01*
X612256250Y-69450000D01*
X612277691Y-69451053D01*
G37*
G04 #@! TD.AperFunction*
G04 #@! TA.AperFunction,SMDPad,CuDef*
G36*
X612277691Y-67876053D02*
G01*
X612298926Y-67879203D01*
X612319750Y-67884419D01*
X612339962Y-67891651D01*
X612359368Y-67900830D01*
X612377781Y-67911866D01*
X612395024Y-67924654D01*
X612410930Y-67939070D01*
X612425346Y-67954976D01*
X612438134Y-67972219D01*
X612449170Y-67990632D01*
X612458349Y-68010038D01*
X612465581Y-68030250D01*
X612470797Y-68051074D01*
X612473947Y-68072309D01*
X612475000Y-68093750D01*
X612475000Y-68531250D01*
X612473947Y-68552691D01*
X612470797Y-68573926D01*
X612465581Y-68594750D01*
X612458349Y-68614962D01*
X612449170Y-68634368D01*
X612438134Y-68652781D01*
X612425346Y-68670024D01*
X612410930Y-68685930D01*
X612395024Y-68700346D01*
X612377781Y-68713134D01*
X612359368Y-68724170D01*
X612339962Y-68733349D01*
X612319750Y-68740581D01*
X612298926Y-68745797D01*
X612277691Y-68748947D01*
X612256250Y-68750000D01*
X611743750Y-68750000D01*
X611722309Y-68748947D01*
X611701074Y-68745797D01*
X611680250Y-68740581D01*
X611660038Y-68733349D01*
X611640632Y-68724170D01*
X611622219Y-68713134D01*
X611604976Y-68700346D01*
X611589070Y-68685930D01*
X611574654Y-68670024D01*
X611561866Y-68652781D01*
X611550830Y-68634368D01*
X611541651Y-68614962D01*
X611534419Y-68594750D01*
X611529203Y-68573926D01*
X611526053Y-68552691D01*
X611525000Y-68531250D01*
X611525000Y-68093750D01*
X611526053Y-68072309D01*
X611529203Y-68051074D01*
X611534419Y-68030250D01*
X611541651Y-68010038D01*
X611550830Y-67990632D01*
X611561866Y-67972219D01*
X611574654Y-67954976D01*
X611589070Y-67939070D01*
X611604976Y-67924654D01*
X611622219Y-67911866D01*
X611640632Y-67900830D01*
X611660038Y-67891651D01*
X611680250Y-67884419D01*
X611701074Y-67879203D01*
X611722309Y-67876053D01*
X611743750Y-67875000D01*
X612256250Y-67875000D01*
X612277691Y-67876053D01*
G37*
G04 #@! TD.AperFunction*
G04 #@! TA.AperFunction,SMDPad,CuDef*
G36*
X621152691Y-76826053D02*
G01*
X621173926Y-76829203D01*
X621194750Y-76834419D01*
X621214962Y-76841651D01*
X621234368Y-76850830D01*
X621252781Y-76861866D01*
X621270024Y-76874654D01*
X621285930Y-76889070D01*
X621300346Y-76904976D01*
X621313134Y-76922219D01*
X621324170Y-76940632D01*
X621333349Y-76960038D01*
X621340581Y-76980250D01*
X621345797Y-77001074D01*
X621348947Y-77022309D01*
X621350000Y-77043750D01*
X621350000Y-77556250D01*
X621348947Y-77577691D01*
X621345797Y-77598926D01*
X621340581Y-77619750D01*
X621333349Y-77639962D01*
X621324170Y-77659368D01*
X621313134Y-77677781D01*
X621300346Y-77695024D01*
X621285930Y-77710930D01*
X621270024Y-77725346D01*
X621252781Y-77738134D01*
X621234368Y-77749170D01*
X621214962Y-77758349D01*
X621194750Y-77765581D01*
X621173926Y-77770797D01*
X621152691Y-77773947D01*
X621131250Y-77775000D01*
X620693750Y-77775000D01*
X620672309Y-77773947D01*
X620651074Y-77770797D01*
X620630250Y-77765581D01*
X620610038Y-77758349D01*
X620590632Y-77749170D01*
X620572219Y-77738134D01*
X620554976Y-77725346D01*
X620539070Y-77710930D01*
X620524654Y-77695024D01*
X620511866Y-77677781D01*
X620500830Y-77659368D01*
X620491651Y-77639962D01*
X620484419Y-77619750D01*
X620479203Y-77598926D01*
X620476053Y-77577691D01*
X620475000Y-77556250D01*
X620475000Y-77043750D01*
X620476053Y-77022309D01*
X620479203Y-77001074D01*
X620484419Y-76980250D01*
X620491651Y-76960038D01*
X620500830Y-76940632D01*
X620511866Y-76922219D01*
X620524654Y-76904976D01*
X620539070Y-76889070D01*
X620554976Y-76874654D01*
X620572219Y-76861866D01*
X620590632Y-76850830D01*
X620610038Y-76841651D01*
X620630250Y-76834419D01*
X620651074Y-76829203D01*
X620672309Y-76826053D01*
X620693750Y-76825000D01*
X621131250Y-76825000D01*
X621152691Y-76826053D01*
G37*
G04 #@! TD.AperFunction*
G04 #@! TA.AperFunction,SMDPad,CuDef*
G36*
X622727691Y-76826053D02*
G01*
X622748926Y-76829203D01*
X622769750Y-76834419D01*
X622789962Y-76841651D01*
X622809368Y-76850830D01*
X622827781Y-76861866D01*
X622845024Y-76874654D01*
X622860930Y-76889070D01*
X622875346Y-76904976D01*
X622888134Y-76922219D01*
X622899170Y-76940632D01*
X622908349Y-76960038D01*
X622915581Y-76980250D01*
X622920797Y-77001074D01*
X622923947Y-77022309D01*
X622925000Y-77043750D01*
X622925000Y-77556250D01*
X622923947Y-77577691D01*
X622920797Y-77598926D01*
X622915581Y-77619750D01*
X622908349Y-77639962D01*
X622899170Y-77659368D01*
X622888134Y-77677781D01*
X622875346Y-77695024D01*
X622860930Y-77710930D01*
X622845024Y-77725346D01*
X622827781Y-77738134D01*
X622809368Y-77749170D01*
X622789962Y-77758349D01*
X622769750Y-77765581D01*
X622748926Y-77770797D01*
X622727691Y-77773947D01*
X622706250Y-77775000D01*
X622268750Y-77775000D01*
X622247309Y-77773947D01*
X622226074Y-77770797D01*
X622205250Y-77765581D01*
X622185038Y-77758349D01*
X622165632Y-77749170D01*
X622147219Y-77738134D01*
X622129976Y-77725346D01*
X622114070Y-77710930D01*
X622099654Y-77695024D01*
X622086866Y-77677781D01*
X622075830Y-77659368D01*
X622066651Y-77639962D01*
X622059419Y-77619750D01*
X622054203Y-77598926D01*
X622051053Y-77577691D01*
X622050000Y-77556250D01*
X622050000Y-77043750D01*
X622051053Y-77022309D01*
X622054203Y-77001074D01*
X622059419Y-76980250D01*
X622066651Y-76960038D01*
X622075830Y-76940632D01*
X622086866Y-76922219D01*
X622099654Y-76904976D01*
X622114070Y-76889070D01*
X622129976Y-76874654D01*
X622147219Y-76861866D01*
X622165632Y-76850830D01*
X622185038Y-76841651D01*
X622205250Y-76834419D01*
X622226074Y-76829203D01*
X622247309Y-76826053D01*
X622268750Y-76825000D01*
X622706250Y-76825000D01*
X622727691Y-76826053D01*
G37*
G04 #@! TD.AperFunction*
G04 #@! TA.AperFunction,SMDPad,CuDef*
G36*
X602352691Y-79226053D02*
G01*
X602373926Y-79229203D01*
X602394750Y-79234419D01*
X602414962Y-79241651D01*
X602434368Y-79250830D01*
X602452781Y-79261866D01*
X602470024Y-79274654D01*
X602485930Y-79289070D01*
X602500346Y-79304976D01*
X602513134Y-79322219D01*
X602524170Y-79340632D01*
X602533349Y-79360038D01*
X602540581Y-79380250D01*
X602545797Y-79401074D01*
X602548947Y-79422309D01*
X602550000Y-79443750D01*
X602550000Y-79956250D01*
X602548947Y-79977691D01*
X602545797Y-79998926D01*
X602540581Y-80019750D01*
X602533349Y-80039962D01*
X602524170Y-80059368D01*
X602513134Y-80077781D01*
X602500346Y-80095024D01*
X602485930Y-80110930D01*
X602470024Y-80125346D01*
X602452781Y-80138134D01*
X602434368Y-80149170D01*
X602414962Y-80158349D01*
X602394750Y-80165581D01*
X602373926Y-80170797D01*
X602352691Y-80173947D01*
X602331250Y-80175000D01*
X601893750Y-80175000D01*
X601872309Y-80173947D01*
X601851074Y-80170797D01*
X601830250Y-80165581D01*
X601810038Y-80158349D01*
X601790632Y-80149170D01*
X601772219Y-80138134D01*
X601754976Y-80125346D01*
X601739070Y-80110930D01*
X601724654Y-80095024D01*
X601711866Y-80077781D01*
X601700830Y-80059368D01*
X601691651Y-80039962D01*
X601684419Y-80019750D01*
X601679203Y-79998926D01*
X601676053Y-79977691D01*
X601675000Y-79956250D01*
X601675000Y-79443750D01*
X601676053Y-79422309D01*
X601679203Y-79401074D01*
X601684419Y-79380250D01*
X601691651Y-79360038D01*
X601700830Y-79340632D01*
X601711866Y-79322219D01*
X601724654Y-79304976D01*
X601739070Y-79289070D01*
X601754976Y-79274654D01*
X601772219Y-79261866D01*
X601790632Y-79250830D01*
X601810038Y-79241651D01*
X601830250Y-79234419D01*
X601851074Y-79229203D01*
X601872309Y-79226053D01*
X601893750Y-79225000D01*
X602331250Y-79225000D01*
X602352691Y-79226053D01*
G37*
G04 #@! TD.AperFunction*
G04 #@! TA.AperFunction,SMDPad,CuDef*
G36*
X603927691Y-79226053D02*
G01*
X603948926Y-79229203D01*
X603969750Y-79234419D01*
X603989962Y-79241651D01*
X604009368Y-79250830D01*
X604027781Y-79261866D01*
X604045024Y-79274654D01*
X604060930Y-79289070D01*
X604075346Y-79304976D01*
X604088134Y-79322219D01*
X604099170Y-79340632D01*
X604108349Y-79360038D01*
X604115581Y-79380250D01*
X604120797Y-79401074D01*
X604123947Y-79422309D01*
X604125000Y-79443750D01*
X604125000Y-79956250D01*
X604123947Y-79977691D01*
X604120797Y-79998926D01*
X604115581Y-80019750D01*
X604108349Y-80039962D01*
X604099170Y-80059368D01*
X604088134Y-80077781D01*
X604075346Y-80095024D01*
X604060930Y-80110930D01*
X604045024Y-80125346D01*
X604027781Y-80138134D01*
X604009368Y-80149170D01*
X603989962Y-80158349D01*
X603969750Y-80165581D01*
X603948926Y-80170797D01*
X603927691Y-80173947D01*
X603906250Y-80175000D01*
X603468750Y-80175000D01*
X603447309Y-80173947D01*
X603426074Y-80170797D01*
X603405250Y-80165581D01*
X603385038Y-80158349D01*
X603365632Y-80149170D01*
X603347219Y-80138134D01*
X603329976Y-80125346D01*
X603314070Y-80110930D01*
X603299654Y-80095024D01*
X603286866Y-80077781D01*
X603275830Y-80059368D01*
X603266651Y-80039962D01*
X603259419Y-80019750D01*
X603254203Y-79998926D01*
X603251053Y-79977691D01*
X603250000Y-79956250D01*
X603250000Y-79443750D01*
X603251053Y-79422309D01*
X603254203Y-79401074D01*
X603259419Y-79380250D01*
X603266651Y-79360038D01*
X603275830Y-79340632D01*
X603286866Y-79322219D01*
X603299654Y-79304976D01*
X603314070Y-79289070D01*
X603329976Y-79274654D01*
X603347219Y-79261866D01*
X603365632Y-79250830D01*
X603385038Y-79241651D01*
X603405250Y-79234419D01*
X603426074Y-79229203D01*
X603447309Y-79226053D01*
X603468750Y-79225000D01*
X603906250Y-79225000D01*
X603927691Y-79226053D01*
G37*
G04 #@! TD.AperFunction*
G04 #@! TA.AperFunction,SMDPad,CuDef*
G36*
X609438077Y-77453274D02*
G01*
X609459312Y-77456424D01*
X609480136Y-77461640D01*
X609500348Y-77468872D01*
X609519754Y-77478051D01*
X609538167Y-77489087D01*
X609555410Y-77501875D01*
X609571316Y-77516291D01*
X609933709Y-77878684D01*
X609948125Y-77894590D01*
X609960913Y-77911833D01*
X609971949Y-77930246D01*
X609981128Y-77949652D01*
X609988360Y-77969864D01*
X609993576Y-77990688D01*
X609996726Y-78011923D01*
X609997779Y-78033364D01*
X609996726Y-78054805D01*
X609993576Y-78076040D01*
X609988360Y-78096864D01*
X609981128Y-78117076D01*
X609971949Y-78136482D01*
X609960913Y-78154895D01*
X609948125Y-78172138D01*
X609933709Y-78188044D01*
X609624350Y-78497403D01*
X609608444Y-78511819D01*
X609591201Y-78524607D01*
X609572788Y-78535643D01*
X609553382Y-78544822D01*
X609533170Y-78552054D01*
X609512346Y-78557270D01*
X609491111Y-78560420D01*
X609469670Y-78561473D01*
X609448229Y-78560420D01*
X609426994Y-78557270D01*
X609406170Y-78552054D01*
X609385958Y-78544822D01*
X609366552Y-78535643D01*
X609348139Y-78524607D01*
X609330896Y-78511819D01*
X609314990Y-78497403D01*
X608952597Y-78135010D01*
X608938181Y-78119104D01*
X608925393Y-78101861D01*
X608914357Y-78083448D01*
X608905178Y-78064042D01*
X608897946Y-78043830D01*
X608892730Y-78023006D01*
X608889580Y-78001771D01*
X608888527Y-77980330D01*
X608889580Y-77958889D01*
X608892730Y-77937654D01*
X608897946Y-77916830D01*
X608905178Y-77896618D01*
X608914357Y-77877212D01*
X608925393Y-77858799D01*
X608938181Y-77841556D01*
X608952597Y-77825650D01*
X609261956Y-77516291D01*
X609277862Y-77501875D01*
X609295105Y-77489087D01*
X609313518Y-77478051D01*
X609332924Y-77468872D01*
X609353136Y-77461640D01*
X609373960Y-77456424D01*
X609395195Y-77453274D01*
X609416636Y-77452221D01*
X609438077Y-77453274D01*
G37*
G04 #@! TD.AperFunction*
G04 #@! TA.AperFunction,SMDPad,CuDef*
G36*
X610551771Y-76339580D02*
G01*
X610573006Y-76342730D01*
X610593830Y-76347946D01*
X610614042Y-76355178D01*
X610633448Y-76364357D01*
X610651861Y-76375393D01*
X610669104Y-76388181D01*
X610685010Y-76402597D01*
X611047403Y-76764990D01*
X611061819Y-76780896D01*
X611074607Y-76798139D01*
X611085643Y-76816552D01*
X611094822Y-76835958D01*
X611102054Y-76856170D01*
X611107270Y-76876994D01*
X611110420Y-76898229D01*
X611111473Y-76919670D01*
X611110420Y-76941111D01*
X611107270Y-76962346D01*
X611102054Y-76983170D01*
X611094822Y-77003382D01*
X611085643Y-77022788D01*
X611074607Y-77041201D01*
X611061819Y-77058444D01*
X611047403Y-77074350D01*
X610738044Y-77383709D01*
X610722138Y-77398125D01*
X610704895Y-77410913D01*
X610686482Y-77421949D01*
X610667076Y-77431128D01*
X610646864Y-77438360D01*
X610626040Y-77443576D01*
X610604805Y-77446726D01*
X610583364Y-77447779D01*
X610561923Y-77446726D01*
X610540688Y-77443576D01*
X610519864Y-77438360D01*
X610499652Y-77431128D01*
X610480246Y-77421949D01*
X610461833Y-77410913D01*
X610444590Y-77398125D01*
X610428684Y-77383709D01*
X610066291Y-77021316D01*
X610051875Y-77005410D01*
X610039087Y-76988167D01*
X610028051Y-76969754D01*
X610018872Y-76950348D01*
X610011640Y-76930136D01*
X610006424Y-76909312D01*
X610003274Y-76888077D01*
X610002221Y-76866636D01*
X610003274Y-76845195D01*
X610006424Y-76823960D01*
X610011640Y-76803136D01*
X610018872Y-76782924D01*
X610028051Y-76763518D01*
X610039087Y-76745105D01*
X610051875Y-76727862D01*
X610066291Y-76711956D01*
X610375650Y-76402597D01*
X610391556Y-76388181D01*
X610408799Y-76375393D01*
X610427212Y-76364357D01*
X610446618Y-76355178D01*
X610466830Y-76347946D01*
X610487654Y-76342730D01*
X610508889Y-76339580D01*
X610530330Y-76338527D01*
X610551771Y-76339580D01*
G37*
G04 #@! TD.AperFunction*
G04 #@! TA.AperFunction,SMDPad,CuDef*
G36*
X610604805Y-82503274D02*
G01*
X610626040Y-82506424D01*
X610646864Y-82511640D01*
X610667076Y-82518872D01*
X610686482Y-82528051D01*
X610704895Y-82539087D01*
X610722138Y-82551875D01*
X610738044Y-82566291D01*
X611047403Y-82875650D01*
X611061819Y-82891556D01*
X611074607Y-82908799D01*
X611085643Y-82927212D01*
X611094822Y-82946618D01*
X611102054Y-82966830D01*
X611107270Y-82987654D01*
X611110420Y-83008889D01*
X611111473Y-83030330D01*
X611110420Y-83051771D01*
X611107270Y-83073006D01*
X611102054Y-83093830D01*
X611094822Y-83114042D01*
X611085643Y-83133448D01*
X611074607Y-83151861D01*
X611061819Y-83169104D01*
X611047403Y-83185010D01*
X610685010Y-83547403D01*
X610669104Y-83561819D01*
X610651861Y-83574607D01*
X610633448Y-83585643D01*
X610614042Y-83594822D01*
X610593830Y-83602054D01*
X610573006Y-83607270D01*
X610551771Y-83610420D01*
X610530330Y-83611473D01*
X610508889Y-83610420D01*
X610487654Y-83607270D01*
X610466830Y-83602054D01*
X610446618Y-83594822D01*
X610427212Y-83585643D01*
X610408799Y-83574607D01*
X610391556Y-83561819D01*
X610375650Y-83547403D01*
X610066291Y-83238044D01*
X610051875Y-83222138D01*
X610039087Y-83204895D01*
X610028051Y-83186482D01*
X610018872Y-83167076D01*
X610011640Y-83146864D01*
X610006424Y-83126040D01*
X610003274Y-83104805D01*
X610002221Y-83083364D01*
X610003274Y-83061923D01*
X610006424Y-83040688D01*
X610011640Y-83019864D01*
X610018872Y-82999652D01*
X610028051Y-82980246D01*
X610039087Y-82961833D01*
X610051875Y-82944590D01*
X610066291Y-82928684D01*
X610428684Y-82566291D01*
X610444590Y-82551875D01*
X610461833Y-82539087D01*
X610480246Y-82528051D01*
X610499652Y-82518872D01*
X610519864Y-82511640D01*
X610540688Y-82506424D01*
X610561923Y-82503274D01*
X610583364Y-82502221D01*
X610604805Y-82503274D01*
G37*
G04 #@! TD.AperFunction*
G04 #@! TA.AperFunction,SMDPad,CuDef*
G36*
X609491111Y-81389580D02*
G01*
X609512346Y-81392730D01*
X609533170Y-81397946D01*
X609553382Y-81405178D01*
X609572788Y-81414357D01*
X609591201Y-81425393D01*
X609608444Y-81438181D01*
X609624350Y-81452597D01*
X609933709Y-81761956D01*
X609948125Y-81777862D01*
X609960913Y-81795105D01*
X609971949Y-81813518D01*
X609981128Y-81832924D01*
X609988360Y-81853136D01*
X609993576Y-81873960D01*
X609996726Y-81895195D01*
X609997779Y-81916636D01*
X609996726Y-81938077D01*
X609993576Y-81959312D01*
X609988360Y-81980136D01*
X609981128Y-82000348D01*
X609971949Y-82019754D01*
X609960913Y-82038167D01*
X609948125Y-82055410D01*
X609933709Y-82071316D01*
X609571316Y-82433709D01*
X609555410Y-82448125D01*
X609538167Y-82460913D01*
X609519754Y-82471949D01*
X609500348Y-82481128D01*
X609480136Y-82488360D01*
X609459312Y-82493576D01*
X609438077Y-82496726D01*
X609416636Y-82497779D01*
X609395195Y-82496726D01*
X609373960Y-82493576D01*
X609353136Y-82488360D01*
X609332924Y-82481128D01*
X609313518Y-82471949D01*
X609295105Y-82460913D01*
X609277862Y-82448125D01*
X609261956Y-82433709D01*
X608952597Y-82124350D01*
X608938181Y-82108444D01*
X608925393Y-82091201D01*
X608914357Y-82072788D01*
X608905178Y-82053382D01*
X608897946Y-82033170D01*
X608892730Y-82012346D01*
X608889580Y-81991111D01*
X608888527Y-81969670D01*
X608889580Y-81948229D01*
X608892730Y-81926994D01*
X608897946Y-81906170D01*
X608905178Y-81885958D01*
X608914357Y-81866552D01*
X608925393Y-81848139D01*
X608938181Y-81830896D01*
X608952597Y-81814990D01*
X609314990Y-81452597D01*
X609330896Y-81438181D01*
X609348139Y-81425393D01*
X609366552Y-81414357D01*
X609385958Y-81405178D01*
X609406170Y-81397946D01*
X609426994Y-81392730D01*
X609448229Y-81389580D01*
X609469670Y-81388527D01*
X609491111Y-81389580D01*
G37*
G04 #@! TD.AperFunction*
G04 #@! TA.AperFunction,SMDPad,CuDef*
G36*
X502177691Y-67976053D02*
G01*
X502198926Y-67979203D01*
X502219750Y-67984419D01*
X502239962Y-67991651D01*
X502259368Y-68000830D01*
X502277781Y-68011866D01*
X502295024Y-68024654D01*
X502310930Y-68039070D01*
X502325346Y-68054976D01*
X502338134Y-68072219D01*
X502349170Y-68090632D01*
X502358349Y-68110038D01*
X502365581Y-68130250D01*
X502370797Y-68151074D01*
X502373947Y-68172309D01*
X502375000Y-68193750D01*
X502375000Y-68631250D01*
X502373947Y-68652691D01*
X502370797Y-68673926D01*
X502365581Y-68694750D01*
X502358349Y-68714962D01*
X502349170Y-68734368D01*
X502338134Y-68752781D01*
X502325346Y-68770024D01*
X502310930Y-68785930D01*
X502295024Y-68800346D01*
X502277781Y-68813134D01*
X502259368Y-68824170D01*
X502239962Y-68833349D01*
X502219750Y-68840581D01*
X502198926Y-68845797D01*
X502177691Y-68848947D01*
X502156250Y-68850000D01*
X501643750Y-68850000D01*
X501622309Y-68848947D01*
X501601074Y-68845797D01*
X501580250Y-68840581D01*
X501560038Y-68833349D01*
X501540632Y-68824170D01*
X501522219Y-68813134D01*
X501504976Y-68800346D01*
X501489070Y-68785930D01*
X501474654Y-68770024D01*
X501461866Y-68752781D01*
X501450830Y-68734368D01*
X501441651Y-68714962D01*
X501434419Y-68694750D01*
X501429203Y-68673926D01*
X501426053Y-68652691D01*
X501425000Y-68631250D01*
X501425000Y-68193750D01*
X501426053Y-68172309D01*
X501429203Y-68151074D01*
X501434419Y-68130250D01*
X501441651Y-68110038D01*
X501450830Y-68090632D01*
X501461866Y-68072219D01*
X501474654Y-68054976D01*
X501489070Y-68039070D01*
X501504976Y-68024654D01*
X501522219Y-68011866D01*
X501540632Y-68000830D01*
X501560038Y-67991651D01*
X501580250Y-67984419D01*
X501601074Y-67979203D01*
X501622309Y-67976053D01*
X501643750Y-67975000D01*
X502156250Y-67975000D01*
X502177691Y-67976053D01*
G37*
G04 #@! TD.AperFunction*
G04 #@! TA.AperFunction,SMDPad,CuDef*
G36*
X502177691Y-69551053D02*
G01*
X502198926Y-69554203D01*
X502219750Y-69559419D01*
X502239962Y-69566651D01*
X502259368Y-69575830D01*
X502277781Y-69586866D01*
X502295024Y-69599654D01*
X502310930Y-69614070D01*
X502325346Y-69629976D01*
X502338134Y-69647219D01*
X502349170Y-69665632D01*
X502358349Y-69685038D01*
X502365581Y-69705250D01*
X502370797Y-69726074D01*
X502373947Y-69747309D01*
X502375000Y-69768750D01*
X502375000Y-70206250D01*
X502373947Y-70227691D01*
X502370797Y-70248926D01*
X502365581Y-70269750D01*
X502358349Y-70289962D01*
X502349170Y-70309368D01*
X502338134Y-70327781D01*
X502325346Y-70345024D01*
X502310930Y-70360930D01*
X502295024Y-70375346D01*
X502277781Y-70388134D01*
X502259368Y-70399170D01*
X502239962Y-70408349D01*
X502219750Y-70415581D01*
X502198926Y-70420797D01*
X502177691Y-70423947D01*
X502156250Y-70425000D01*
X501643750Y-70425000D01*
X501622309Y-70423947D01*
X501601074Y-70420797D01*
X501580250Y-70415581D01*
X501560038Y-70408349D01*
X501540632Y-70399170D01*
X501522219Y-70388134D01*
X501504976Y-70375346D01*
X501489070Y-70360930D01*
X501474654Y-70345024D01*
X501461866Y-70327781D01*
X501450830Y-70309368D01*
X501441651Y-70289962D01*
X501434419Y-70269750D01*
X501429203Y-70248926D01*
X501426053Y-70227691D01*
X501425000Y-70206250D01*
X501425000Y-69768750D01*
X501426053Y-69747309D01*
X501429203Y-69726074D01*
X501434419Y-69705250D01*
X501441651Y-69685038D01*
X501450830Y-69665632D01*
X501461866Y-69647219D01*
X501474654Y-69629976D01*
X501489070Y-69614070D01*
X501504976Y-69599654D01*
X501522219Y-69586866D01*
X501540632Y-69575830D01*
X501560038Y-69566651D01*
X501580250Y-69559419D01*
X501601074Y-69554203D01*
X501622309Y-69551053D01*
X501643750Y-69550000D01*
X502156250Y-69550000D01*
X502177691Y-69551053D01*
G37*
G04 #@! TD.AperFunction*
G04 #@! TA.AperFunction,SMDPad,CuDef*
G36*
X494327691Y-79226053D02*
G01*
X494348926Y-79229203D01*
X494369750Y-79234419D01*
X494389962Y-79241651D01*
X494409368Y-79250830D01*
X494427781Y-79261866D01*
X494445024Y-79274654D01*
X494460930Y-79289070D01*
X494475346Y-79304976D01*
X494488134Y-79322219D01*
X494499170Y-79340632D01*
X494508349Y-79360038D01*
X494515581Y-79380250D01*
X494520797Y-79401074D01*
X494523947Y-79422309D01*
X494525000Y-79443750D01*
X494525000Y-79956250D01*
X494523947Y-79977691D01*
X494520797Y-79998926D01*
X494515581Y-80019750D01*
X494508349Y-80039962D01*
X494499170Y-80059368D01*
X494488134Y-80077781D01*
X494475346Y-80095024D01*
X494460930Y-80110930D01*
X494445024Y-80125346D01*
X494427781Y-80138134D01*
X494409368Y-80149170D01*
X494389962Y-80158349D01*
X494369750Y-80165581D01*
X494348926Y-80170797D01*
X494327691Y-80173947D01*
X494306250Y-80175000D01*
X493868750Y-80175000D01*
X493847309Y-80173947D01*
X493826074Y-80170797D01*
X493805250Y-80165581D01*
X493785038Y-80158349D01*
X493765632Y-80149170D01*
X493747219Y-80138134D01*
X493729976Y-80125346D01*
X493714070Y-80110930D01*
X493699654Y-80095024D01*
X493686866Y-80077781D01*
X493675830Y-80059368D01*
X493666651Y-80039962D01*
X493659419Y-80019750D01*
X493654203Y-79998926D01*
X493651053Y-79977691D01*
X493650000Y-79956250D01*
X493650000Y-79443750D01*
X493651053Y-79422309D01*
X493654203Y-79401074D01*
X493659419Y-79380250D01*
X493666651Y-79360038D01*
X493675830Y-79340632D01*
X493686866Y-79322219D01*
X493699654Y-79304976D01*
X493714070Y-79289070D01*
X493729976Y-79274654D01*
X493747219Y-79261866D01*
X493765632Y-79250830D01*
X493785038Y-79241651D01*
X493805250Y-79234419D01*
X493826074Y-79229203D01*
X493847309Y-79226053D01*
X493868750Y-79225000D01*
X494306250Y-79225000D01*
X494327691Y-79226053D01*
G37*
G04 #@! TD.AperFunction*
G04 #@! TA.AperFunction,SMDPad,CuDef*
G36*
X492752691Y-79226053D02*
G01*
X492773926Y-79229203D01*
X492794750Y-79234419D01*
X492814962Y-79241651D01*
X492834368Y-79250830D01*
X492852781Y-79261866D01*
X492870024Y-79274654D01*
X492885930Y-79289070D01*
X492900346Y-79304976D01*
X492913134Y-79322219D01*
X492924170Y-79340632D01*
X492933349Y-79360038D01*
X492940581Y-79380250D01*
X492945797Y-79401074D01*
X492948947Y-79422309D01*
X492950000Y-79443750D01*
X492950000Y-79956250D01*
X492948947Y-79977691D01*
X492945797Y-79998926D01*
X492940581Y-80019750D01*
X492933349Y-80039962D01*
X492924170Y-80059368D01*
X492913134Y-80077781D01*
X492900346Y-80095024D01*
X492885930Y-80110930D01*
X492870024Y-80125346D01*
X492852781Y-80138134D01*
X492834368Y-80149170D01*
X492814962Y-80158349D01*
X492794750Y-80165581D01*
X492773926Y-80170797D01*
X492752691Y-80173947D01*
X492731250Y-80175000D01*
X492293750Y-80175000D01*
X492272309Y-80173947D01*
X492251074Y-80170797D01*
X492230250Y-80165581D01*
X492210038Y-80158349D01*
X492190632Y-80149170D01*
X492172219Y-80138134D01*
X492154976Y-80125346D01*
X492139070Y-80110930D01*
X492124654Y-80095024D01*
X492111866Y-80077781D01*
X492100830Y-80059368D01*
X492091651Y-80039962D01*
X492084419Y-80019750D01*
X492079203Y-79998926D01*
X492076053Y-79977691D01*
X492075000Y-79956250D01*
X492075000Y-79443750D01*
X492076053Y-79422309D01*
X492079203Y-79401074D01*
X492084419Y-79380250D01*
X492091651Y-79360038D01*
X492100830Y-79340632D01*
X492111866Y-79322219D01*
X492124654Y-79304976D01*
X492139070Y-79289070D01*
X492154976Y-79274654D01*
X492172219Y-79261866D01*
X492190632Y-79250830D01*
X492210038Y-79241651D01*
X492230250Y-79234419D01*
X492251074Y-79229203D01*
X492272309Y-79226053D01*
X492293750Y-79225000D01*
X492731250Y-79225000D01*
X492752691Y-79226053D01*
G37*
G04 #@! TD.AperFunction*
G04 #@! TA.AperFunction,SMDPad,CuDef*
G36*
X499491111Y-81389580D02*
G01*
X499512346Y-81392730D01*
X499533170Y-81397946D01*
X499553382Y-81405178D01*
X499572788Y-81414357D01*
X499591201Y-81425393D01*
X499608444Y-81438181D01*
X499624350Y-81452597D01*
X499933709Y-81761956D01*
X499948125Y-81777862D01*
X499960913Y-81795105D01*
X499971949Y-81813518D01*
X499981128Y-81832924D01*
X499988360Y-81853136D01*
X499993576Y-81873960D01*
X499996726Y-81895195D01*
X499997779Y-81916636D01*
X499996726Y-81938077D01*
X499993576Y-81959312D01*
X499988360Y-81980136D01*
X499981128Y-82000348D01*
X499971949Y-82019754D01*
X499960913Y-82038167D01*
X499948125Y-82055410D01*
X499933709Y-82071316D01*
X499571316Y-82433709D01*
X499555410Y-82448125D01*
X499538167Y-82460913D01*
X499519754Y-82471949D01*
X499500348Y-82481128D01*
X499480136Y-82488360D01*
X499459312Y-82493576D01*
X499438077Y-82496726D01*
X499416636Y-82497779D01*
X499395195Y-82496726D01*
X499373960Y-82493576D01*
X499353136Y-82488360D01*
X499332924Y-82481128D01*
X499313518Y-82471949D01*
X499295105Y-82460913D01*
X499277862Y-82448125D01*
X499261956Y-82433709D01*
X498952597Y-82124350D01*
X498938181Y-82108444D01*
X498925393Y-82091201D01*
X498914357Y-82072788D01*
X498905178Y-82053382D01*
X498897946Y-82033170D01*
X498892730Y-82012346D01*
X498889580Y-81991111D01*
X498888527Y-81969670D01*
X498889580Y-81948229D01*
X498892730Y-81926994D01*
X498897946Y-81906170D01*
X498905178Y-81885958D01*
X498914357Y-81866552D01*
X498925393Y-81848139D01*
X498938181Y-81830896D01*
X498952597Y-81814990D01*
X499314990Y-81452597D01*
X499330896Y-81438181D01*
X499348139Y-81425393D01*
X499366552Y-81414357D01*
X499385958Y-81405178D01*
X499406170Y-81397946D01*
X499426994Y-81392730D01*
X499448229Y-81389580D01*
X499469670Y-81388527D01*
X499491111Y-81389580D01*
G37*
G04 #@! TD.AperFunction*
G04 #@! TA.AperFunction,SMDPad,CuDef*
G36*
X500604805Y-82503274D02*
G01*
X500626040Y-82506424D01*
X500646864Y-82511640D01*
X500667076Y-82518872D01*
X500686482Y-82528051D01*
X500704895Y-82539087D01*
X500722138Y-82551875D01*
X500738044Y-82566291D01*
X501047403Y-82875650D01*
X501061819Y-82891556D01*
X501074607Y-82908799D01*
X501085643Y-82927212D01*
X501094822Y-82946618D01*
X501102054Y-82966830D01*
X501107270Y-82987654D01*
X501110420Y-83008889D01*
X501111473Y-83030330D01*
X501110420Y-83051771D01*
X501107270Y-83073006D01*
X501102054Y-83093830D01*
X501094822Y-83114042D01*
X501085643Y-83133448D01*
X501074607Y-83151861D01*
X501061819Y-83169104D01*
X501047403Y-83185010D01*
X500685010Y-83547403D01*
X500669104Y-83561819D01*
X500651861Y-83574607D01*
X500633448Y-83585643D01*
X500614042Y-83594822D01*
X500593830Y-83602054D01*
X500573006Y-83607270D01*
X500551771Y-83610420D01*
X500530330Y-83611473D01*
X500508889Y-83610420D01*
X500487654Y-83607270D01*
X500466830Y-83602054D01*
X500446618Y-83594822D01*
X500427212Y-83585643D01*
X500408799Y-83574607D01*
X500391556Y-83561819D01*
X500375650Y-83547403D01*
X500066291Y-83238044D01*
X500051875Y-83222138D01*
X500039087Y-83204895D01*
X500028051Y-83186482D01*
X500018872Y-83167076D01*
X500011640Y-83146864D01*
X500006424Y-83126040D01*
X500003274Y-83104805D01*
X500002221Y-83083364D01*
X500003274Y-83061923D01*
X500006424Y-83040688D01*
X500011640Y-83019864D01*
X500018872Y-82999652D01*
X500028051Y-82980246D01*
X500039087Y-82961833D01*
X500051875Y-82944590D01*
X500066291Y-82928684D01*
X500428684Y-82566291D01*
X500444590Y-82551875D01*
X500461833Y-82539087D01*
X500480246Y-82528051D01*
X500499652Y-82518872D01*
X500519864Y-82511640D01*
X500540688Y-82506424D01*
X500561923Y-82503274D01*
X500583364Y-82502221D01*
X500604805Y-82503274D01*
G37*
G04 #@! TD.AperFunction*
G04 #@! TA.AperFunction,SMDPad,CuDef*
G36*
X500551771Y-76339580D02*
G01*
X500573006Y-76342730D01*
X500593830Y-76347946D01*
X500614042Y-76355178D01*
X500633448Y-76364357D01*
X500651861Y-76375393D01*
X500669104Y-76388181D01*
X500685010Y-76402597D01*
X501047403Y-76764990D01*
X501061819Y-76780896D01*
X501074607Y-76798139D01*
X501085643Y-76816552D01*
X501094822Y-76835958D01*
X501102054Y-76856170D01*
X501107270Y-76876994D01*
X501110420Y-76898229D01*
X501111473Y-76919670D01*
X501110420Y-76941111D01*
X501107270Y-76962346D01*
X501102054Y-76983170D01*
X501094822Y-77003382D01*
X501085643Y-77022788D01*
X501074607Y-77041201D01*
X501061819Y-77058444D01*
X501047403Y-77074350D01*
X500738044Y-77383709D01*
X500722138Y-77398125D01*
X500704895Y-77410913D01*
X500686482Y-77421949D01*
X500667076Y-77431128D01*
X500646864Y-77438360D01*
X500626040Y-77443576D01*
X500604805Y-77446726D01*
X500583364Y-77447779D01*
X500561923Y-77446726D01*
X500540688Y-77443576D01*
X500519864Y-77438360D01*
X500499652Y-77431128D01*
X500480246Y-77421949D01*
X500461833Y-77410913D01*
X500444590Y-77398125D01*
X500428684Y-77383709D01*
X500066291Y-77021316D01*
X500051875Y-77005410D01*
X500039087Y-76988167D01*
X500028051Y-76969754D01*
X500018872Y-76950348D01*
X500011640Y-76930136D01*
X500006424Y-76909312D01*
X500003274Y-76888077D01*
X500002221Y-76866636D01*
X500003274Y-76845195D01*
X500006424Y-76823960D01*
X500011640Y-76803136D01*
X500018872Y-76782924D01*
X500028051Y-76763518D01*
X500039087Y-76745105D01*
X500051875Y-76727862D01*
X500066291Y-76711956D01*
X500375650Y-76402597D01*
X500391556Y-76388181D01*
X500408799Y-76375393D01*
X500427212Y-76364357D01*
X500446618Y-76355178D01*
X500466830Y-76347946D01*
X500487654Y-76342730D01*
X500508889Y-76339580D01*
X500530330Y-76338527D01*
X500551771Y-76339580D01*
G37*
G04 #@! TD.AperFunction*
G04 #@! TA.AperFunction,SMDPad,CuDef*
G36*
X499438077Y-77453274D02*
G01*
X499459312Y-77456424D01*
X499480136Y-77461640D01*
X499500348Y-77468872D01*
X499519754Y-77478051D01*
X499538167Y-77489087D01*
X499555410Y-77501875D01*
X499571316Y-77516291D01*
X499933709Y-77878684D01*
X499948125Y-77894590D01*
X499960913Y-77911833D01*
X499971949Y-77930246D01*
X499981128Y-77949652D01*
X499988360Y-77969864D01*
X499993576Y-77990688D01*
X499996726Y-78011923D01*
X499997779Y-78033364D01*
X499996726Y-78054805D01*
X499993576Y-78076040D01*
X499988360Y-78096864D01*
X499981128Y-78117076D01*
X499971949Y-78136482D01*
X499960913Y-78154895D01*
X499948125Y-78172138D01*
X499933709Y-78188044D01*
X499624350Y-78497403D01*
X499608444Y-78511819D01*
X499591201Y-78524607D01*
X499572788Y-78535643D01*
X499553382Y-78544822D01*
X499533170Y-78552054D01*
X499512346Y-78557270D01*
X499491111Y-78560420D01*
X499469670Y-78561473D01*
X499448229Y-78560420D01*
X499426994Y-78557270D01*
X499406170Y-78552054D01*
X499385958Y-78544822D01*
X499366552Y-78535643D01*
X499348139Y-78524607D01*
X499330896Y-78511819D01*
X499314990Y-78497403D01*
X498952597Y-78135010D01*
X498938181Y-78119104D01*
X498925393Y-78101861D01*
X498914357Y-78083448D01*
X498905178Y-78064042D01*
X498897946Y-78043830D01*
X498892730Y-78023006D01*
X498889580Y-78001771D01*
X498888527Y-77980330D01*
X498889580Y-77958889D01*
X498892730Y-77937654D01*
X498897946Y-77916830D01*
X498905178Y-77896618D01*
X498914357Y-77877212D01*
X498925393Y-77858799D01*
X498938181Y-77841556D01*
X498952597Y-77825650D01*
X499261956Y-77516291D01*
X499277862Y-77501875D01*
X499295105Y-77489087D01*
X499313518Y-77478051D01*
X499332924Y-77468872D01*
X499353136Y-77461640D01*
X499373960Y-77456424D01*
X499395195Y-77453274D01*
X499416636Y-77452221D01*
X499438077Y-77453274D01*
G37*
G04 #@! TD.AperFunction*
G04 #@! TA.AperFunction,SMDPad,CuDef*
G36*
X511152691Y-76726053D02*
G01*
X511173926Y-76729203D01*
X511194750Y-76734419D01*
X511214962Y-76741651D01*
X511234368Y-76750830D01*
X511252781Y-76761866D01*
X511270024Y-76774654D01*
X511285930Y-76789070D01*
X511300346Y-76804976D01*
X511313134Y-76822219D01*
X511324170Y-76840632D01*
X511333349Y-76860038D01*
X511340581Y-76880250D01*
X511345797Y-76901074D01*
X511348947Y-76922309D01*
X511350000Y-76943750D01*
X511350000Y-77456250D01*
X511348947Y-77477691D01*
X511345797Y-77498926D01*
X511340581Y-77519750D01*
X511333349Y-77539962D01*
X511324170Y-77559368D01*
X511313134Y-77577781D01*
X511300346Y-77595024D01*
X511285930Y-77610930D01*
X511270024Y-77625346D01*
X511252781Y-77638134D01*
X511234368Y-77649170D01*
X511214962Y-77658349D01*
X511194750Y-77665581D01*
X511173926Y-77670797D01*
X511152691Y-77673947D01*
X511131250Y-77675000D01*
X510693750Y-77675000D01*
X510672309Y-77673947D01*
X510651074Y-77670797D01*
X510630250Y-77665581D01*
X510610038Y-77658349D01*
X510590632Y-77649170D01*
X510572219Y-77638134D01*
X510554976Y-77625346D01*
X510539070Y-77610930D01*
X510524654Y-77595024D01*
X510511866Y-77577781D01*
X510500830Y-77559368D01*
X510491651Y-77539962D01*
X510484419Y-77519750D01*
X510479203Y-77498926D01*
X510476053Y-77477691D01*
X510475000Y-77456250D01*
X510475000Y-76943750D01*
X510476053Y-76922309D01*
X510479203Y-76901074D01*
X510484419Y-76880250D01*
X510491651Y-76860038D01*
X510500830Y-76840632D01*
X510511866Y-76822219D01*
X510524654Y-76804976D01*
X510539070Y-76789070D01*
X510554976Y-76774654D01*
X510572219Y-76761866D01*
X510590632Y-76750830D01*
X510610038Y-76741651D01*
X510630250Y-76734419D01*
X510651074Y-76729203D01*
X510672309Y-76726053D01*
X510693750Y-76725000D01*
X511131250Y-76725000D01*
X511152691Y-76726053D01*
G37*
G04 #@! TD.AperFunction*
G04 #@! TA.AperFunction,SMDPad,CuDef*
G36*
X512727691Y-76726053D02*
G01*
X512748926Y-76729203D01*
X512769750Y-76734419D01*
X512789962Y-76741651D01*
X512809368Y-76750830D01*
X512827781Y-76761866D01*
X512845024Y-76774654D01*
X512860930Y-76789070D01*
X512875346Y-76804976D01*
X512888134Y-76822219D01*
X512899170Y-76840632D01*
X512908349Y-76860038D01*
X512915581Y-76880250D01*
X512920797Y-76901074D01*
X512923947Y-76922309D01*
X512925000Y-76943750D01*
X512925000Y-77456250D01*
X512923947Y-77477691D01*
X512920797Y-77498926D01*
X512915581Y-77519750D01*
X512908349Y-77539962D01*
X512899170Y-77559368D01*
X512888134Y-77577781D01*
X512875346Y-77595024D01*
X512860930Y-77610930D01*
X512845024Y-77625346D01*
X512827781Y-77638134D01*
X512809368Y-77649170D01*
X512789962Y-77658349D01*
X512769750Y-77665581D01*
X512748926Y-77670797D01*
X512727691Y-77673947D01*
X512706250Y-77675000D01*
X512268750Y-77675000D01*
X512247309Y-77673947D01*
X512226074Y-77670797D01*
X512205250Y-77665581D01*
X512185038Y-77658349D01*
X512165632Y-77649170D01*
X512147219Y-77638134D01*
X512129976Y-77625346D01*
X512114070Y-77610930D01*
X512099654Y-77595024D01*
X512086866Y-77577781D01*
X512075830Y-77559368D01*
X512066651Y-77539962D01*
X512059419Y-77519750D01*
X512054203Y-77498926D01*
X512051053Y-77477691D01*
X512050000Y-77456250D01*
X512050000Y-76943750D01*
X512051053Y-76922309D01*
X512054203Y-76901074D01*
X512059419Y-76880250D01*
X512066651Y-76860038D01*
X512075830Y-76840632D01*
X512086866Y-76822219D01*
X512099654Y-76804976D01*
X512114070Y-76789070D01*
X512129976Y-76774654D01*
X512147219Y-76761866D01*
X512165632Y-76750830D01*
X512185038Y-76741651D01*
X512205250Y-76734419D01*
X512226074Y-76729203D01*
X512247309Y-76726053D01*
X512268750Y-76725000D01*
X512706250Y-76725000D01*
X512727691Y-76726053D01*
G37*
G04 #@! TD.AperFunction*
G04 #@! TA.AperFunction,SMDPad,CuDef*
G36*
X448177691Y-131251053D02*
G01*
X448198926Y-131254203D01*
X448219750Y-131259419D01*
X448239962Y-131266651D01*
X448259368Y-131275830D01*
X448277781Y-131286866D01*
X448295024Y-131299654D01*
X448310930Y-131314070D01*
X448325346Y-131329976D01*
X448338134Y-131347219D01*
X448349170Y-131365632D01*
X448358349Y-131385038D01*
X448365581Y-131405250D01*
X448370797Y-131426074D01*
X448373947Y-131447309D01*
X448375000Y-131468750D01*
X448375000Y-131906250D01*
X448373947Y-131927691D01*
X448370797Y-131948926D01*
X448365581Y-131969750D01*
X448358349Y-131989962D01*
X448349170Y-132009368D01*
X448338134Y-132027781D01*
X448325346Y-132045024D01*
X448310930Y-132060930D01*
X448295024Y-132075346D01*
X448277781Y-132088134D01*
X448259368Y-132099170D01*
X448239962Y-132108349D01*
X448219750Y-132115581D01*
X448198926Y-132120797D01*
X448177691Y-132123947D01*
X448156250Y-132125000D01*
X447643750Y-132125000D01*
X447622309Y-132123947D01*
X447601074Y-132120797D01*
X447580250Y-132115581D01*
X447560038Y-132108349D01*
X447540632Y-132099170D01*
X447522219Y-132088134D01*
X447504976Y-132075346D01*
X447489070Y-132060930D01*
X447474654Y-132045024D01*
X447461866Y-132027781D01*
X447450830Y-132009368D01*
X447441651Y-131989962D01*
X447434419Y-131969750D01*
X447429203Y-131948926D01*
X447426053Y-131927691D01*
X447425000Y-131906250D01*
X447425000Y-131468750D01*
X447426053Y-131447309D01*
X447429203Y-131426074D01*
X447434419Y-131405250D01*
X447441651Y-131385038D01*
X447450830Y-131365632D01*
X447461866Y-131347219D01*
X447474654Y-131329976D01*
X447489070Y-131314070D01*
X447504976Y-131299654D01*
X447522219Y-131286866D01*
X447540632Y-131275830D01*
X447560038Y-131266651D01*
X447580250Y-131259419D01*
X447601074Y-131254203D01*
X447622309Y-131251053D01*
X447643750Y-131250000D01*
X448156250Y-131250000D01*
X448177691Y-131251053D01*
G37*
G04 #@! TD.AperFunction*
G04 #@! TA.AperFunction,SMDPad,CuDef*
G36*
X448177691Y-129676053D02*
G01*
X448198926Y-129679203D01*
X448219750Y-129684419D01*
X448239962Y-129691651D01*
X448259368Y-129700830D01*
X448277781Y-129711866D01*
X448295024Y-129724654D01*
X448310930Y-129739070D01*
X448325346Y-129754976D01*
X448338134Y-129772219D01*
X448349170Y-129790632D01*
X448358349Y-129810038D01*
X448365581Y-129830250D01*
X448370797Y-129851074D01*
X448373947Y-129872309D01*
X448375000Y-129893750D01*
X448375000Y-130331250D01*
X448373947Y-130352691D01*
X448370797Y-130373926D01*
X448365581Y-130394750D01*
X448358349Y-130414962D01*
X448349170Y-130434368D01*
X448338134Y-130452781D01*
X448325346Y-130470024D01*
X448310930Y-130485930D01*
X448295024Y-130500346D01*
X448277781Y-130513134D01*
X448259368Y-130524170D01*
X448239962Y-130533349D01*
X448219750Y-130540581D01*
X448198926Y-130545797D01*
X448177691Y-130548947D01*
X448156250Y-130550000D01*
X447643750Y-130550000D01*
X447622309Y-130548947D01*
X447601074Y-130545797D01*
X447580250Y-130540581D01*
X447560038Y-130533349D01*
X447540632Y-130524170D01*
X447522219Y-130513134D01*
X447504976Y-130500346D01*
X447489070Y-130485930D01*
X447474654Y-130470024D01*
X447461866Y-130452781D01*
X447450830Y-130434368D01*
X447441651Y-130414962D01*
X447434419Y-130394750D01*
X447429203Y-130373926D01*
X447426053Y-130352691D01*
X447425000Y-130331250D01*
X447425000Y-129893750D01*
X447426053Y-129872309D01*
X447429203Y-129851074D01*
X447434419Y-129830250D01*
X447441651Y-129810038D01*
X447450830Y-129790632D01*
X447461866Y-129772219D01*
X447474654Y-129754976D01*
X447489070Y-129739070D01*
X447504976Y-129724654D01*
X447522219Y-129711866D01*
X447540632Y-129700830D01*
X447560038Y-129691651D01*
X447580250Y-129684419D01*
X447601074Y-129679203D01*
X447622309Y-129676053D01*
X447643750Y-129675000D01*
X448156250Y-129675000D01*
X448177691Y-129676053D01*
G37*
G04 #@! TD.AperFunction*
G04 #@! TA.AperFunction,SMDPad,CuDef*
G36*
X437652691Y-122226053D02*
G01*
X437673926Y-122229203D01*
X437694750Y-122234419D01*
X437714962Y-122241651D01*
X437734368Y-122250830D01*
X437752781Y-122261866D01*
X437770024Y-122274654D01*
X437785930Y-122289070D01*
X437800346Y-122304976D01*
X437813134Y-122322219D01*
X437824170Y-122340632D01*
X437833349Y-122360038D01*
X437840581Y-122380250D01*
X437845797Y-122401074D01*
X437848947Y-122422309D01*
X437850000Y-122443750D01*
X437850000Y-122956250D01*
X437848947Y-122977691D01*
X437845797Y-122998926D01*
X437840581Y-123019750D01*
X437833349Y-123039962D01*
X437824170Y-123059368D01*
X437813134Y-123077781D01*
X437800346Y-123095024D01*
X437785930Y-123110930D01*
X437770024Y-123125346D01*
X437752781Y-123138134D01*
X437734368Y-123149170D01*
X437714962Y-123158349D01*
X437694750Y-123165581D01*
X437673926Y-123170797D01*
X437652691Y-123173947D01*
X437631250Y-123175000D01*
X437193750Y-123175000D01*
X437172309Y-123173947D01*
X437151074Y-123170797D01*
X437130250Y-123165581D01*
X437110038Y-123158349D01*
X437090632Y-123149170D01*
X437072219Y-123138134D01*
X437054976Y-123125346D01*
X437039070Y-123110930D01*
X437024654Y-123095024D01*
X437011866Y-123077781D01*
X437000830Y-123059368D01*
X436991651Y-123039962D01*
X436984419Y-123019750D01*
X436979203Y-122998926D01*
X436976053Y-122977691D01*
X436975000Y-122956250D01*
X436975000Y-122443750D01*
X436976053Y-122422309D01*
X436979203Y-122401074D01*
X436984419Y-122380250D01*
X436991651Y-122360038D01*
X437000830Y-122340632D01*
X437011866Y-122322219D01*
X437024654Y-122304976D01*
X437039070Y-122289070D01*
X437054976Y-122274654D01*
X437072219Y-122261866D01*
X437090632Y-122250830D01*
X437110038Y-122241651D01*
X437130250Y-122234419D01*
X437151074Y-122229203D01*
X437172309Y-122226053D01*
X437193750Y-122225000D01*
X437631250Y-122225000D01*
X437652691Y-122226053D01*
G37*
G04 #@! TD.AperFunction*
G04 #@! TA.AperFunction,SMDPad,CuDef*
G36*
X439227691Y-122226053D02*
G01*
X439248926Y-122229203D01*
X439269750Y-122234419D01*
X439289962Y-122241651D01*
X439309368Y-122250830D01*
X439327781Y-122261866D01*
X439345024Y-122274654D01*
X439360930Y-122289070D01*
X439375346Y-122304976D01*
X439388134Y-122322219D01*
X439399170Y-122340632D01*
X439408349Y-122360038D01*
X439415581Y-122380250D01*
X439420797Y-122401074D01*
X439423947Y-122422309D01*
X439425000Y-122443750D01*
X439425000Y-122956250D01*
X439423947Y-122977691D01*
X439420797Y-122998926D01*
X439415581Y-123019750D01*
X439408349Y-123039962D01*
X439399170Y-123059368D01*
X439388134Y-123077781D01*
X439375346Y-123095024D01*
X439360930Y-123110930D01*
X439345024Y-123125346D01*
X439327781Y-123138134D01*
X439309368Y-123149170D01*
X439289962Y-123158349D01*
X439269750Y-123165581D01*
X439248926Y-123170797D01*
X439227691Y-123173947D01*
X439206250Y-123175000D01*
X438768750Y-123175000D01*
X438747309Y-123173947D01*
X438726074Y-123170797D01*
X438705250Y-123165581D01*
X438685038Y-123158349D01*
X438665632Y-123149170D01*
X438647219Y-123138134D01*
X438629976Y-123125346D01*
X438614070Y-123110930D01*
X438599654Y-123095024D01*
X438586866Y-123077781D01*
X438575830Y-123059368D01*
X438566651Y-123039962D01*
X438559419Y-123019750D01*
X438554203Y-122998926D01*
X438551053Y-122977691D01*
X438550000Y-122956250D01*
X438550000Y-122443750D01*
X438551053Y-122422309D01*
X438554203Y-122401074D01*
X438559419Y-122380250D01*
X438566651Y-122360038D01*
X438575830Y-122340632D01*
X438586866Y-122322219D01*
X438599654Y-122304976D01*
X438614070Y-122289070D01*
X438629976Y-122274654D01*
X438647219Y-122261866D01*
X438665632Y-122250830D01*
X438685038Y-122241651D01*
X438705250Y-122234419D01*
X438726074Y-122229203D01*
X438747309Y-122226053D01*
X438768750Y-122225000D01*
X439206250Y-122225000D01*
X439227691Y-122226053D01*
G37*
G04 #@! TD.AperFunction*
G04 #@! TA.AperFunction,SMDPad,CuDef*
G36*
X449491111Y-116339580D02*
G01*
X449512346Y-116342730D01*
X449533170Y-116347946D01*
X449553382Y-116355178D01*
X449572788Y-116364357D01*
X449591201Y-116375393D01*
X449608444Y-116388181D01*
X449624350Y-116402597D01*
X449933709Y-116711956D01*
X449948125Y-116727862D01*
X449960913Y-116745105D01*
X449971949Y-116763518D01*
X449981128Y-116782924D01*
X449988360Y-116803136D01*
X449993576Y-116823960D01*
X449996726Y-116845195D01*
X449997779Y-116866636D01*
X449996726Y-116888077D01*
X449993576Y-116909312D01*
X449988360Y-116930136D01*
X449981128Y-116950348D01*
X449971949Y-116969754D01*
X449960913Y-116988167D01*
X449948125Y-117005410D01*
X449933709Y-117021316D01*
X449571316Y-117383709D01*
X449555410Y-117398125D01*
X449538167Y-117410913D01*
X449519754Y-117421949D01*
X449500348Y-117431128D01*
X449480136Y-117438360D01*
X449459312Y-117443576D01*
X449438077Y-117446726D01*
X449416636Y-117447779D01*
X449395195Y-117446726D01*
X449373960Y-117443576D01*
X449353136Y-117438360D01*
X449332924Y-117431128D01*
X449313518Y-117421949D01*
X449295105Y-117410913D01*
X449277862Y-117398125D01*
X449261956Y-117383709D01*
X448952597Y-117074350D01*
X448938181Y-117058444D01*
X448925393Y-117041201D01*
X448914357Y-117022788D01*
X448905178Y-117003382D01*
X448897946Y-116983170D01*
X448892730Y-116962346D01*
X448889580Y-116941111D01*
X448888527Y-116919670D01*
X448889580Y-116898229D01*
X448892730Y-116876994D01*
X448897946Y-116856170D01*
X448905178Y-116835958D01*
X448914357Y-116816552D01*
X448925393Y-116798139D01*
X448938181Y-116780896D01*
X448952597Y-116764990D01*
X449314990Y-116402597D01*
X449330896Y-116388181D01*
X449348139Y-116375393D01*
X449366552Y-116364357D01*
X449385958Y-116355178D01*
X449406170Y-116347946D01*
X449426994Y-116342730D01*
X449448229Y-116339580D01*
X449469670Y-116338527D01*
X449491111Y-116339580D01*
G37*
G04 #@! TD.AperFunction*
G04 #@! TA.AperFunction,SMDPad,CuDef*
G36*
X450604805Y-117453274D02*
G01*
X450626040Y-117456424D01*
X450646864Y-117461640D01*
X450667076Y-117468872D01*
X450686482Y-117478051D01*
X450704895Y-117489087D01*
X450722138Y-117501875D01*
X450738044Y-117516291D01*
X451047403Y-117825650D01*
X451061819Y-117841556D01*
X451074607Y-117858799D01*
X451085643Y-117877212D01*
X451094822Y-117896618D01*
X451102054Y-117916830D01*
X451107270Y-117937654D01*
X451110420Y-117958889D01*
X451111473Y-117980330D01*
X451110420Y-118001771D01*
X451107270Y-118023006D01*
X451102054Y-118043830D01*
X451094822Y-118064042D01*
X451085643Y-118083448D01*
X451074607Y-118101861D01*
X451061819Y-118119104D01*
X451047403Y-118135010D01*
X450685010Y-118497403D01*
X450669104Y-118511819D01*
X450651861Y-118524607D01*
X450633448Y-118535643D01*
X450614042Y-118544822D01*
X450593830Y-118552054D01*
X450573006Y-118557270D01*
X450551771Y-118560420D01*
X450530330Y-118561473D01*
X450508889Y-118560420D01*
X450487654Y-118557270D01*
X450466830Y-118552054D01*
X450446618Y-118544822D01*
X450427212Y-118535643D01*
X450408799Y-118524607D01*
X450391556Y-118511819D01*
X450375650Y-118497403D01*
X450066291Y-118188044D01*
X450051875Y-118172138D01*
X450039087Y-118154895D01*
X450028051Y-118136482D01*
X450018872Y-118117076D01*
X450011640Y-118096864D01*
X450006424Y-118076040D01*
X450003274Y-118054805D01*
X450002221Y-118033364D01*
X450003274Y-118011923D01*
X450006424Y-117990688D01*
X450011640Y-117969864D01*
X450018872Y-117949652D01*
X450028051Y-117930246D01*
X450039087Y-117911833D01*
X450051875Y-117894590D01*
X450066291Y-117878684D01*
X450428684Y-117516291D01*
X450444590Y-117501875D01*
X450461833Y-117489087D01*
X450480246Y-117478051D01*
X450499652Y-117468872D01*
X450519864Y-117461640D01*
X450540688Y-117456424D01*
X450561923Y-117453274D01*
X450583364Y-117452221D01*
X450604805Y-117453274D01*
G37*
G04 #@! TD.AperFunction*
G04 #@! TA.AperFunction,SMDPad,CuDef*
G36*
X449438077Y-122503274D02*
G01*
X449459312Y-122506424D01*
X449480136Y-122511640D01*
X449500348Y-122518872D01*
X449519754Y-122528051D01*
X449538167Y-122539087D01*
X449555410Y-122551875D01*
X449571316Y-122566291D01*
X449933709Y-122928684D01*
X449948125Y-122944590D01*
X449960913Y-122961833D01*
X449971949Y-122980246D01*
X449981128Y-122999652D01*
X449988360Y-123019864D01*
X449993576Y-123040688D01*
X449996726Y-123061923D01*
X449997779Y-123083364D01*
X449996726Y-123104805D01*
X449993576Y-123126040D01*
X449988360Y-123146864D01*
X449981128Y-123167076D01*
X449971949Y-123186482D01*
X449960913Y-123204895D01*
X449948125Y-123222138D01*
X449933709Y-123238044D01*
X449624350Y-123547403D01*
X449608444Y-123561819D01*
X449591201Y-123574607D01*
X449572788Y-123585643D01*
X449553382Y-123594822D01*
X449533170Y-123602054D01*
X449512346Y-123607270D01*
X449491111Y-123610420D01*
X449469670Y-123611473D01*
X449448229Y-123610420D01*
X449426994Y-123607270D01*
X449406170Y-123602054D01*
X449385958Y-123594822D01*
X449366552Y-123585643D01*
X449348139Y-123574607D01*
X449330896Y-123561819D01*
X449314990Y-123547403D01*
X448952597Y-123185010D01*
X448938181Y-123169104D01*
X448925393Y-123151861D01*
X448914357Y-123133448D01*
X448905178Y-123114042D01*
X448897946Y-123093830D01*
X448892730Y-123073006D01*
X448889580Y-123051771D01*
X448888527Y-123030330D01*
X448889580Y-123008889D01*
X448892730Y-122987654D01*
X448897946Y-122966830D01*
X448905178Y-122946618D01*
X448914357Y-122927212D01*
X448925393Y-122908799D01*
X448938181Y-122891556D01*
X448952597Y-122875650D01*
X449261956Y-122566291D01*
X449277862Y-122551875D01*
X449295105Y-122539087D01*
X449313518Y-122528051D01*
X449332924Y-122518872D01*
X449353136Y-122511640D01*
X449373960Y-122506424D01*
X449395195Y-122503274D01*
X449416636Y-122502221D01*
X449438077Y-122503274D01*
G37*
G04 #@! TD.AperFunction*
G04 #@! TA.AperFunction,SMDPad,CuDef*
G36*
X450551771Y-121389580D02*
G01*
X450573006Y-121392730D01*
X450593830Y-121397946D01*
X450614042Y-121405178D01*
X450633448Y-121414357D01*
X450651861Y-121425393D01*
X450669104Y-121438181D01*
X450685010Y-121452597D01*
X451047403Y-121814990D01*
X451061819Y-121830896D01*
X451074607Y-121848139D01*
X451085643Y-121866552D01*
X451094822Y-121885958D01*
X451102054Y-121906170D01*
X451107270Y-121926994D01*
X451110420Y-121948229D01*
X451111473Y-121969670D01*
X451110420Y-121991111D01*
X451107270Y-122012346D01*
X451102054Y-122033170D01*
X451094822Y-122053382D01*
X451085643Y-122072788D01*
X451074607Y-122091201D01*
X451061819Y-122108444D01*
X451047403Y-122124350D01*
X450738044Y-122433709D01*
X450722138Y-122448125D01*
X450704895Y-122460913D01*
X450686482Y-122471949D01*
X450667076Y-122481128D01*
X450646864Y-122488360D01*
X450626040Y-122493576D01*
X450604805Y-122496726D01*
X450583364Y-122497779D01*
X450561923Y-122496726D01*
X450540688Y-122493576D01*
X450519864Y-122488360D01*
X450499652Y-122481128D01*
X450480246Y-122471949D01*
X450461833Y-122460913D01*
X450444590Y-122448125D01*
X450428684Y-122433709D01*
X450066291Y-122071316D01*
X450051875Y-122055410D01*
X450039087Y-122038167D01*
X450028051Y-122019754D01*
X450018872Y-122000348D01*
X450011640Y-121980136D01*
X450006424Y-121959312D01*
X450003274Y-121938077D01*
X450002221Y-121916636D01*
X450003274Y-121895195D01*
X450006424Y-121873960D01*
X450011640Y-121853136D01*
X450018872Y-121832924D01*
X450028051Y-121813518D01*
X450039087Y-121795105D01*
X450051875Y-121777862D01*
X450066291Y-121761956D01*
X450375650Y-121452597D01*
X450391556Y-121438181D01*
X450408799Y-121425393D01*
X450427212Y-121414357D01*
X450446618Y-121405178D01*
X450466830Y-121397946D01*
X450487654Y-121392730D01*
X450508889Y-121389580D01*
X450530330Y-121388527D01*
X450551771Y-121389580D01*
G37*
G04 #@! TD.AperFunction*
G04 #@! TA.AperFunction,SMDPad,CuDef*
G36*
X457727691Y-119726053D02*
G01*
X457748926Y-119729203D01*
X457769750Y-119734419D01*
X457789962Y-119741651D01*
X457809368Y-119750830D01*
X457827781Y-119761866D01*
X457845024Y-119774654D01*
X457860930Y-119789070D01*
X457875346Y-119804976D01*
X457888134Y-119822219D01*
X457899170Y-119840632D01*
X457908349Y-119860038D01*
X457915581Y-119880250D01*
X457920797Y-119901074D01*
X457923947Y-119922309D01*
X457925000Y-119943750D01*
X457925000Y-120456250D01*
X457923947Y-120477691D01*
X457920797Y-120498926D01*
X457915581Y-120519750D01*
X457908349Y-120539962D01*
X457899170Y-120559368D01*
X457888134Y-120577781D01*
X457875346Y-120595024D01*
X457860930Y-120610930D01*
X457845024Y-120625346D01*
X457827781Y-120638134D01*
X457809368Y-120649170D01*
X457789962Y-120658349D01*
X457769750Y-120665581D01*
X457748926Y-120670797D01*
X457727691Y-120673947D01*
X457706250Y-120675000D01*
X457268750Y-120675000D01*
X457247309Y-120673947D01*
X457226074Y-120670797D01*
X457205250Y-120665581D01*
X457185038Y-120658349D01*
X457165632Y-120649170D01*
X457147219Y-120638134D01*
X457129976Y-120625346D01*
X457114070Y-120610930D01*
X457099654Y-120595024D01*
X457086866Y-120577781D01*
X457075830Y-120559368D01*
X457066651Y-120539962D01*
X457059419Y-120519750D01*
X457054203Y-120498926D01*
X457051053Y-120477691D01*
X457050000Y-120456250D01*
X457050000Y-119943750D01*
X457051053Y-119922309D01*
X457054203Y-119901074D01*
X457059419Y-119880250D01*
X457066651Y-119860038D01*
X457075830Y-119840632D01*
X457086866Y-119822219D01*
X457099654Y-119804976D01*
X457114070Y-119789070D01*
X457129976Y-119774654D01*
X457147219Y-119761866D01*
X457165632Y-119750830D01*
X457185038Y-119741651D01*
X457205250Y-119734419D01*
X457226074Y-119729203D01*
X457247309Y-119726053D01*
X457268750Y-119725000D01*
X457706250Y-119725000D01*
X457727691Y-119726053D01*
G37*
G04 #@! TD.AperFunction*
G04 #@! TA.AperFunction,SMDPad,CuDef*
G36*
X456152691Y-119726053D02*
G01*
X456173926Y-119729203D01*
X456194750Y-119734419D01*
X456214962Y-119741651D01*
X456234368Y-119750830D01*
X456252781Y-119761866D01*
X456270024Y-119774654D01*
X456285930Y-119789070D01*
X456300346Y-119804976D01*
X456313134Y-119822219D01*
X456324170Y-119840632D01*
X456333349Y-119860038D01*
X456340581Y-119880250D01*
X456345797Y-119901074D01*
X456348947Y-119922309D01*
X456350000Y-119943750D01*
X456350000Y-120456250D01*
X456348947Y-120477691D01*
X456345797Y-120498926D01*
X456340581Y-120519750D01*
X456333349Y-120539962D01*
X456324170Y-120559368D01*
X456313134Y-120577781D01*
X456300346Y-120595024D01*
X456285930Y-120610930D01*
X456270024Y-120625346D01*
X456252781Y-120638134D01*
X456234368Y-120649170D01*
X456214962Y-120658349D01*
X456194750Y-120665581D01*
X456173926Y-120670797D01*
X456152691Y-120673947D01*
X456131250Y-120675000D01*
X455693750Y-120675000D01*
X455672309Y-120673947D01*
X455651074Y-120670797D01*
X455630250Y-120665581D01*
X455610038Y-120658349D01*
X455590632Y-120649170D01*
X455572219Y-120638134D01*
X455554976Y-120625346D01*
X455539070Y-120610930D01*
X455524654Y-120595024D01*
X455511866Y-120577781D01*
X455500830Y-120559368D01*
X455491651Y-120539962D01*
X455484419Y-120519750D01*
X455479203Y-120498926D01*
X455476053Y-120477691D01*
X455475000Y-120456250D01*
X455475000Y-119943750D01*
X455476053Y-119922309D01*
X455479203Y-119901074D01*
X455484419Y-119880250D01*
X455491651Y-119860038D01*
X455500830Y-119840632D01*
X455511866Y-119822219D01*
X455524654Y-119804976D01*
X455539070Y-119789070D01*
X455554976Y-119774654D01*
X455572219Y-119761866D01*
X455590632Y-119750830D01*
X455610038Y-119741651D01*
X455630250Y-119734419D01*
X455651074Y-119729203D01*
X455672309Y-119726053D01*
X455693750Y-119725000D01*
X456131250Y-119725000D01*
X456152691Y-119726053D01*
G37*
G04 #@! TD.AperFunction*
G04 #@! TA.AperFunction,SMDPad,CuDef*
G36*
X338377691Y-131051053D02*
G01*
X338398926Y-131054203D01*
X338419750Y-131059419D01*
X338439962Y-131066651D01*
X338459368Y-131075830D01*
X338477781Y-131086866D01*
X338495024Y-131099654D01*
X338510930Y-131114070D01*
X338525346Y-131129976D01*
X338538134Y-131147219D01*
X338549170Y-131165632D01*
X338558349Y-131185038D01*
X338565581Y-131205250D01*
X338570797Y-131226074D01*
X338573947Y-131247309D01*
X338575000Y-131268750D01*
X338575000Y-131706250D01*
X338573947Y-131727691D01*
X338570797Y-131748926D01*
X338565581Y-131769750D01*
X338558349Y-131789962D01*
X338549170Y-131809368D01*
X338538134Y-131827781D01*
X338525346Y-131845024D01*
X338510930Y-131860930D01*
X338495024Y-131875346D01*
X338477781Y-131888134D01*
X338459368Y-131899170D01*
X338439962Y-131908349D01*
X338419750Y-131915581D01*
X338398926Y-131920797D01*
X338377691Y-131923947D01*
X338356250Y-131925000D01*
X337843750Y-131925000D01*
X337822309Y-131923947D01*
X337801074Y-131920797D01*
X337780250Y-131915581D01*
X337760038Y-131908349D01*
X337740632Y-131899170D01*
X337722219Y-131888134D01*
X337704976Y-131875346D01*
X337689070Y-131860930D01*
X337674654Y-131845024D01*
X337661866Y-131827781D01*
X337650830Y-131809368D01*
X337641651Y-131789962D01*
X337634419Y-131769750D01*
X337629203Y-131748926D01*
X337626053Y-131727691D01*
X337625000Y-131706250D01*
X337625000Y-131268750D01*
X337626053Y-131247309D01*
X337629203Y-131226074D01*
X337634419Y-131205250D01*
X337641651Y-131185038D01*
X337650830Y-131165632D01*
X337661866Y-131147219D01*
X337674654Y-131129976D01*
X337689070Y-131114070D01*
X337704976Y-131099654D01*
X337722219Y-131086866D01*
X337740632Y-131075830D01*
X337760038Y-131066651D01*
X337780250Y-131059419D01*
X337801074Y-131054203D01*
X337822309Y-131051053D01*
X337843750Y-131050000D01*
X338356250Y-131050000D01*
X338377691Y-131051053D01*
G37*
G04 #@! TD.AperFunction*
G04 #@! TA.AperFunction,SMDPad,CuDef*
G36*
X338377691Y-129476053D02*
G01*
X338398926Y-129479203D01*
X338419750Y-129484419D01*
X338439962Y-129491651D01*
X338459368Y-129500830D01*
X338477781Y-129511866D01*
X338495024Y-129524654D01*
X338510930Y-129539070D01*
X338525346Y-129554976D01*
X338538134Y-129572219D01*
X338549170Y-129590632D01*
X338558349Y-129610038D01*
X338565581Y-129630250D01*
X338570797Y-129651074D01*
X338573947Y-129672309D01*
X338575000Y-129693750D01*
X338575000Y-130131250D01*
X338573947Y-130152691D01*
X338570797Y-130173926D01*
X338565581Y-130194750D01*
X338558349Y-130214962D01*
X338549170Y-130234368D01*
X338538134Y-130252781D01*
X338525346Y-130270024D01*
X338510930Y-130285930D01*
X338495024Y-130300346D01*
X338477781Y-130313134D01*
X338459368Y-130324170D01*
X338439962Y-130333349D01*
X338419750Y-130340581D01*
X338398926Y-130345797D01*
X338377691Y-130348947D01*
X338356250Y-130350000D01*
X337843750Y-130350000D01*
X337822309Y-130348947D01*
X337801074Y-130345797D01*
X337780250Y-130340581D01*
X337760038Y-130333349D01*
X337740632Y-130324170D01*
X337722219Y-130313134D01*
X337704976Y-130300346D01*
X337689070Y-130285930D01*
X337674654Y-130270024D01*
X337661866Y-130252781D01*
X337650830Y-130234368D01*
X337641651Y-130214962D01*
X337634419Y-130194750D01*
X337629203Y-130173926D01*
X337626053Y-130152691D01*
X337625000Y-130131250D01*
X337625000Y-129693750D01*
X337626053Y-129672309D01*
X337629203Y-129651074D01*
X337634419Y-129630250D01*
X337641651Y-129610038D01*
X337650830Y-129590632D01*
X337661866Y-129572219D01*
X337674654Y-129554976D01*
X337689070Y-129539070D01*
X337704976Y-129524654D01*
X337722219Y-129511866D01*
X337740632Y-129500830D01*
X337760038Y-129491651D01*
X337780250Y-129484419D01*
X337801074Y-129479203D01*
X337822309Y-129476053D01*
X337843750Y-129475000D01*
X338356250Y-129475000D01*
X338377691Y-129476053D01*
G37*
G04 #@! TD.AperFunction*
G04 #@! TA.AperFunction,SMDPad,CuDef*
G36*
X329327691Y-122326053D02*
G01*
X329348926Y-122329203D01*
X329369750Y-122334419D01*
X329389962Y-122341651D01*
X329409368Y-122350830D01*
X329427781Y-122361866D01*
X329445024Y-122374654D01*
X329460930Y-122389070D01*
X329475346Y-122404976D01*
X329488134Y-122422219D01*
X329499170Y-122440632D01*
X329508349Y-122460038D01*
X329515581Y-122480250D01*
X329520797Y-122501074D01*
X329523947Y-122522309D01*
X329525000Y-122543750D01*
X329525000Y-123056250D01*
X329523947Y-123077691D01*
X329520797Y-123098926D01*
X329515581Y-123119750D01*
X329508349Y-123139962D01*
X329499170Y-123159368D01*
X329488134Y-123177781D01*
X329475346Y-123195024D01*
X329460930Y-123210930D01*
X329445024Y-123225346D01*
X329427781Y-123238134D01*
X329409368Y-123249170D01*
X329389962Y-123258349D01*
X329369750Y-123265581D01*
X329348926Y-123270797D01*
X329327691Y-123273947D01*
X329306250Y-123275000D01*
X328868750Y-123275000D01*
X328847309Y-123273947D01*
X328826074Y-123270797D01*
X328805250Y-123265581D01*
X328785038Y-123258349D01*
X328765632Y-123249170D01*
X328747219Y-123238134D01*
X328729976Y-123225346D01*
X328714070Y-123210930D01*
X328699654Y-123195024D01*
X328686866Y-123177781D01*
X328675830Y-123159368D01*
X328666651Y-123139962D01*
X328659419Y-123119750D01*
X328654203Y-123098926D01*
X328651053Y-123077691D01*
X328650000Y-123056250D01*
X328650000Y-122543750D01*
X328651053Y-122522309D01*
X328654203Y-122501074D01*
X328659419Y-122480250D01*
X328666651Y-122460038D01*
X328675830Y-122440632D01*
X328686866Y-122422219D01*
X328699654Y-122404976D01*
X328714070Y-122389070D01*
X328729976Y-122374654D01*
X328747219Y-122361866D01*
X328765632Y-122350830D01*
X328785038Y-122341651D01*
X328805250Y-122334419D01*
X328826074Y-122329203D01*
X328847309Y-122326053D01*
X328868750Y-122325000D01*
X329306250Y-122325000D01*
X329327691Y-122326053D01*
G37*
G04 #@! TD.AperFunction*
G04 #@! TA.AperFunction,SMDPad,CuDef*
G36*
X327752691Y-122326053D02*
G01*
X327773926Y-122329203D01*
X327794750Y-122334419D01*
X327814962Y-122341651D01*
X327834368Y-122350830D01*
X327852781Y-122361866D01*
X327870024Y-122374654D01*
X327885930Y-122389070D01*
X327900346Y-122404976D01*
X327913134Y-122422219D01*
X327924170Y-122440632D01*
X327933349Y-122460038D01*
X327940581Y-122480250D01*
X327945797Y-122501074D01*
X327948947Y-122522309D01*
X327950000Y-122543750D01*
X327950000Y-123056250D01*
X327948947Y-123077691D01*
X327945797Y-123098926D01*
X327940581Y-123119750D01*
X327933349Y-123139962D01*
X327924170Y-123159368D01*
X327913134Y-123177781D01*
X327900346Y-123195024D01*
X327885930Y-123210930D01*
X327870024Y-123225346D01*
X327852781Y-123238134D01*
X327834368Y-123249170D01*
X327814962Y-123258349D01*
X327794750Y-123265581D01*
X327773926Y-123270797D01*
X327752691Y-123273947D01*
X327731250Y-123275000D01*
X327293750Y-123275000D01*
X327272309Y-123273947D01*
X327251074Y-123270797D01*
X327230250Y-123265581D01*
X327210038Y-123258349D01*
X327190632Y-123249170D01*
X327172219Y-123238134D01*
X327154976Y-123225346D01*
X327139070Y-123210930D01*
X327124654Y-123195024D01*
X327111866Y-123177781D01*
X327100830Y-123159368D01*
X327091651Y-123139962D01*
X327084419Y-123119750D01*
X327079203Y-123098926D01*
X327076053Y-123077691D01*
X327075000Y-123056250D01*
X327075000Y-122543750D01*
X327076053Y-122522309D01*
X327079203Y-122501074D01*
X327084419Y-122480250D01*
X327091651Y-122460038D01*
X327100830Y-122440632D01*
X327111866Y-122422219D01*
X327124654Y-122404976D01*
X327139070Y-122389070D01*
X327154976Y-122374654D01*
X327172219Y-122361866D01*
X327190632Y-122350830D01*
X327210038Y-122341651D01*
X327230250Y-122334419D01*
X327251074Y-122329203D01*
X327272309Y-122326053D01*
X327293750Y-122325000D01*
X327731250Y-122325000D01*
X327752691Y-122326053D01*
G37*
G04 #@! TD.AperFunction*
G04 #@! TA.AperFunction,SMDPad,CuDef*
G36*
X340604805Y-117503274D02*
G01*
X340626040Y-117506424D01*
X340646864Y-117511640D01*
X340667076Y-117518872D01*
X340686482Y-117528051D01*
X340704895Y-117539087D01*
X340722138Y-117551875D01*
X340738044Y-117566291D01*
X341047403Y-117875650D01*
X341061819Y-117891556D01*
X341074607Y-117908799D01*
X341085643Y-117927212D01*
X341094822Y-117946618D01*
X341102054Y-117966830D01*
X341107270Y-117987654D01*
X341110420Y-118008889D01*
X341111473Y-118030330D01*
X341110420Y-118051771D01*
X341107270Y-118073006D01*
X341102054Y-118093830D01*
X341094822Y-118114042D01*
X341085643Y-118133448D01*
X341074607Y-118151861D01*
X341061819Y-118169104D01*
X341047403Y-118185010D01*
X340685010Y-118547403D01*
X340669104Y-118561819D01*
X340651861Y-118574607D01*
X340633448Y-118585643D01*
X340614042Y-118594822D01*
X340593830Y-118602054D01*
X340573006Y-118607270D01*
X340551771Y-118610420D01*
X340530330Y-118611473D01*
X340508889Y-118610420D01*
X340487654Y-118607270D01*
X340466830Y-118602054D01*
X340446618Y-118594822D01*
X340427212Y-118585643D01*
X340408799Y-118574607D01*
X340391556Y-118561819D01*
X340375650Y-118547403D01*
X340066291Y-118238044D01*
X340051875Y-118222138D01*
X340039087Y-118204895D01*
X340028051Y-118186482D01*
X340018872Y-118167076D01*
X340011640Y-118146864D01*
X340006424Y-118126040D01*
X340003274Y-118104805D01*
X340002221Y-118083364D01*
X340003274Y-118061923D01*
X340006424Y-118040688D01*
X340011640Y-118019864D01*
X340018872Y-117999652D01*
X340028051Y-117980246D01*
X340039087Y-117961833D01*
X340051875Y-117944590D01*
X340066291Y-117928684D01*
X340428684Y-117566291D01*
X340444590Y-117551875D01*
X340461833Y-117539087D01*
X340480246Y-117528051D01*
X340499652Y-117518872D01*
X340519864Y-117511640D01*
X340540688Y-117506424D01*
X340561923Y-117503274D01*
X340583364Y-117502221D01*
X340604805Y-117503274D01*
G37*
G04 #@! TD.AperFunction*
G04 #@! TA.AperFunction,SMDPad,CuDef*
G36*
X339491111Y-116389580D02*
G01*
X339512346Y-116392730D01*
X339533170Y-116397946D01*
X339553382Y-116405178D01*
X339572788Y-116414357D01*
X339591201Y-116425393D01*
X339608444Y-116438181D01*
X339624350Y-116452597D01*
X339933709Y-116761956D01*
X339948125Y-116777862D01*
X339960913Y-116795105D01*
X339971949Y-116813518D01*
X339981128Y-116832924D01*
X339988360Y-116853136D01*
X339993576Y-116873960D01*
X339996726Y-116895195D01*
X339997779Y-116916636D01*
X339996726Y-116938077D01*
X339993576Y-116959312D01*
X339988360Y-116980136D01*
X339981128Y-117000348D01*
X339971949Y-117019754D01*
X339960913Y-117038167D01*
X339948125Y-117055410D01*
X339933709Y-117071316D01*
X339571316Y-117433709D01*
X339555410Y-117448125D01*
X339538167Y-117460913D01*
X339519754Y-117471949D01*
X339500348Y-117481128D01*
X339480136Y-117488360D01*
X339459312Y-117493576D01*
X339438077Y-117496726D01*
X339416636Y-117497779D01*
X339395195Y-117496726D01*
X339373960Y-117493576D01*
X339353136Y-117488360D01*
X339332924Y-117481128D01*
X339313518Y-117471949D01*
X339295105Y-117460913D01*
X339277862Y-117448125D01*
X339261956Y-117433709D01*
X338952597Y-117124350D01*
X338938181Y-117108444D01*
X338925393Y-117091201D01*
X338914357Y-117072788D01*
X338905178Y-117053382D01*
X338897946Y-117033170D01*
X338892730Y-117012346D01*
X338889580Y-116991111D01*
X338888527Y-116969670D01*
X338889580Y-116948229D01*
X338892730Y-116926994D01*
X338897946Y-116906170D01*
X338905178Y-116885958D01*
X338914357Y-116866552D01*
X338925393Y-116848139D01*
X338938181Y-116830896D01*
X338952597Y-116814990D01*
X339314990Y-116452597D01*
X339330896Y-116438181D01*
X339348139Y-116425393D01*
X339366552Y-116414357D01*
X339385958Y-116405178D01*
X339406170Y-116397946D01*
X339426994Y-116392730D01*
X339448229Y-116389580D01*
X339469670Y-116388527D01*
X339491111Y-116389580D01*
G37*
G04 #@! TD.AperFunction*
G04 #@! TA.AperFunction,SMDPad,CuDef*
G36*
X339438077Y-122503274D02*
G01*
X339459312Y-122506424D01*
X339480136Y-122511640D01*
X339500348Y-122518872D01*
X339519754Y-122528051D01*
X339538167Y-122539087D01*
X339555410Y-122551875D01*
X339571316Y-122566291D01*
X339933709Y-122928684D01*
X339948125Y-122944590D01*
X339960913Y-122961833D01*
X339971949Y-122980246D01*
X339981128Y-122999652D01*
X339988360Y-123019864D01*
X339993576Y-123040688D01*
X339996726Y-123061923D01*
X339997779Y-123083364D01*
X339996726Y-123104805D01*
X339993576Y-123126040D01*
X339988360Y-123146864D01*
X339981128Y-123167076D01*
X339971949Y-123186482D01*
X339960913Y-123204895D01*
X339948125Y-123222138D01*
X339933709Y-123238044D01*
X339624350Y-123547403D01*
X339608444Y-123561819D01*
X339591201Y-123574607D01*
X339572788Y-123585643D01*
X339553382Y-123594822D01*
X339533170Y-123602054D01*
X339512346Y-123607270D01*
X339491111Y-123610420D01*
X339469670Y-123611473D01*
X339448229Y-123610420D01*
X339426994Y-123607270D01*
X339406170Y-123602054D01*
X339385958Y-123594822D01*
X339366552Y-123585643D01*
X339348139Y-123574607D01*
X339330896Y-123561819D01*
X339314990Y-123547403D01*
X338952597Y-123185010D01*
X338938181Y-123169104D01*
X338925393Y-123151861D01*
X338914357Y-123133448D01*
X338905178Y-123114042D01*
X338897946Y-123093830D01*
X338892730Y-123073006D01*
X338889580Y-123051771D01*
X338888527Y-123030330D01*
X338889580Y-123008889D01*
X338892730Y-122987654D01*
X338897946Y-122966830D01*
X338905178Y-122946618D01*
X338914357Y-122927212D01*
X338925393Y-122908799D01*
X338938181Y-122891556D01*
X338952597Y-122875650D01*
X339261956Y-122566291D01*
X339277862Y-122551875D01*
X339295105Y-122539087D01*
X339313518Y-122528051D01*
X339332924Y-122518872D01*
X339353136Y-122511640D01*
X339373960Y-122506424D01*
X339395195Y-122503274D01*
X339416636Y-122502221D01*
X339438077Y-122503274D01*
G37*
G04 #@! TD.AperFunction*
G04 #@! TA.AperFunction,SMDPad,CuDef*
G36*
X340551771Y-121389580D02*
G01*
X340573006Y-121392730D01*
X340593830Y-121397946D01*
X340614042Y-121405178D01*
X340633448Y-121414357D01*
X340651861Y-121425393D01*
X340669104Y-121438181D01*
X340685010Y-121452597D01*
X341047403Y-121814990D01*
X341061819Y-121830896D01*
X341074607Y-121848139D01*
X341085643Y-121866552D01*
X341094822Y-121885958D01*
X341102054Y-121906170D01*
X341107270Y-121926994D01*
X341110420Y-121948229D01*
X341111473Y-121969670D01*
X341110420Y-121991111D01*
X341107270Y-122012346D01*
X341102054Y-122033170D01*
X341094822Y-122053382D01*
X341085643Y-122072788D01*
X341074607Y-122091201D01*
X341061819Y-122108444D01*
X341047403Y-122124350D01*
X340738044Y-122433709D01*
X340722138Y-122448125D01*
X340704895Y-122460913D01*
X340686482Y-122471949D01*
X340667076Y-122481128D01*
X340646864Y-122488360D01*
X340626040Y-122493576D01*
X340604805Y-122496726D01*
X340583364Y-122497779D01*
X340561923Y-122496726D01*
X340540688Y-122493576D01*
X340519864Y-122488360D01*
X340499652Y-122481128D01*
X340480246Y-122471949D01*
X340461833Y-122460913D01*
X340444590Y-122448125D01*
X340428684Y-122433709D01*
X340066291Y-122071316D01*
X340051875Y-122055410D01*
X340039087Y-122038167D01*
X340028051Y-122019754D01*
X340018872Y-122000348D01*
X340011640Y-121980136D01*
X340006424Y-121959312D01*
X340003274Y-121938077D01*
X340002221Y-121916636D01*
X340003274Y-121895195D01*
X340006424Y-121873960D01*
X340011640Y-121853136D01*
X340018872Y-121832924D01*
X340028051Y-121813518D01*
X340039087Y-121795105D01*
X340051875Y-121777862D01*
X340066291Y-121761956D01*
X340375650Y-121452597D01*
X340391556Y-121438181D01*
X340408799Y-121425393D01*
X340427212Y-121414357D01*
X340446618Y-121405178D01*
X340466830Y-121397946D01*
X340487654Y-121392730D01*
X340508889Y-121389580D01*
X340530330Y-121388527D01*
X340551771Y-121389580D01*
G37*
G04 #@! TD.AperFunction*
G04 #@! TA.AperFunction,SMDPad,CuDef*
G36*
X346152691Y-119726053D02*
G01*
X346173926Y-119729203D01*
X346194750Y-119734419D01*
X346214962Y-119741651D01*
X346234368Y-119750830D01*
X346252781Y-119761866D01*
X346270024Y-119774654D01*
X346285930Y-119789070D01*
X346300346Y-119804976D01*
X346313134Y-119822219D01*
X346324170Y-119840632D01*
X346333349Y-119860038D01*
X346340581Y-119880250D01*
X346345797Y-119901074D01*
X346348947Y-119922309D01*
X346350000Y-119943750D01*
X346350000Y-120456250D01*
X346348947Y-120477691D01*
X346345797Y-120498926D01*
X346340581Y-120519750D01*
X346333349Y-120539962D01*
X346324170Y-120559368D01*
X346313134Y-120577781D01*
X346300346Y-120595024D01*
X346285930Y-120610930D01*
X346270024Y-120625346D01*
X346252781Y-120638134D01*
X346234368Y-120649170D01*
X346214962Y-120658349D01*
X346194750Y-120665581D01*
X346173926Y-120670797D01*
X346152691Y-120673947D01*
X346131250Y-120675000D01*
X345693750Y-120675000D01*
X345672309Y-120673947D01*
X345651074Y-120670797D01*
X345630250Y-120665581D01*
X345610038Y-120658349D01*
X345590632Y-120649170D01*
X345572219Y-120638134D01*
X345554976Y-120625346D01*
X345539070Y-120610930D01*
X345524654Y-120595024D01*
X345511866Y-120577781D01*
X345500830Y-120559368D01*
X345491651Y-120539962D01*
X345484419Y-120519750D01*
X345479203Y-120498926D01*
X345476053Y-120477691D01*
X345475000Y-120456250D01*
X345475000Y-119943750D01*
X345476053Y-119922309D01*
X345479203Y-119901074D01*
X345484419Y-119880250D01*
X345491651Y-119860038D01*
X345500830Y-119840632D01*
X345511866Y-119822219D01*
X345524654Y-119804976D01*
X345539070Y-119789070D01*
X345554976Y-119774654D01*
X345572219Y-119761866D01*
X345590632Y-119750830D01*
X345610038Y-119741651D01*
X345630250Y-119734419D01*
X345651074Y-119729203D01*
X345672309Y-119726053D01*
X345693750Y-119725000D01*
X346131250Y-119725000D01*
X346152691Y-119726053D01*
G37*
G04 #@! TD.AperFunction*
G04 #@! TA.AperFunction,SMDPad,CuDef*
G36*
X347727691Y-119726053D02*
G01*
X347748926Y-119729203D01*
X347769750Y-119734419D01*
X347789962Y-119741651D01*
X347809368Y-119750830D01*
X347827781Y-119761866D01*
X347845024Y-119774654D01*
X347860930Y-119789070D01*
X347875346Y-119804976D01*
X347888134Y-119822219D01*
X347899170Y-119840632D01*
X347908349Y-119860038D01*
X347915581Y-119880250D01*
X347920797Y-119901074D01*
X347923947Y-119922309D01*
X347925000Y-119943750D01*
X347925000Y-120456250D01*
X347923947Y-120477691D01*
X347920797Y-120498926D01*
X347915581Y-120519750D01*
X347908349Y-120539962D01*
X347899170Y-120559368D01*
X347888134Y-120577781D01*
X347875346Y-120595024D01*
X347860930Y-120610930D01*
X347845024Y-120625346D01*
X347827781Y-120638134D01*
X347809368Y-120649170D01*
X347789962Y-120658349D01*
X347769750Y-120665581D01*
X347748926Y-120670797D01*
X347727691Y-120673947D01*
X347706250Y-120675000D01*
X347268750Y-120675000D01*
X347247309Y-120673947D01*
X347226074Y-120670797D01*
X347205250Y-120665581D01*
X347185038Y-120658349D01*
X347165632Y-120649170D01*
X347147219Y-120638134D01*
X347129976Y-120625346D01*
X347114070Y-120610930D01*
X347099654Y-120595024D01*
X347086866Y-120577781D01*
X347075830Y-120559368D01*
X347066651Y-120539962D01*
X347059419Y-120519750D01*
X347054203Y-120498926D01*
X347051053Y-120477691D01*
X347050000Y-120456250D01*
X347050000Y-119943750D01*
X347051053Y-119922309D01*
X347054203Y-119901074D01*
X347059419Y-119880250D01*
X347066651Y-119860038D01*
X347075830Y-119840632D01*
X347086866Y-119822219D01*
X347099654Y-119804976D01*
X347114070Y-119789070D01*
X347129976Y-119774654D01*
X347147219Y-119761866D01*
X347165632Y-119750830D01*
X347185038Y-119741651D01*
X347205250Y-119734419D01*
X347226074Y-119729203D01*
X347247309Y-119726053D01*
X347268750Y-119725000D01*
X347706250Y-119725000D01*
X347727691Y-119726053D01*
G37*
G04 #@! TD.AperFunction*
G04 #@! TA.AperFunction,SMDPad,CuDef*
G36*
X157177691Y-67976053D02*
G01*
X157198926Y-67979203D01*
X157219750Y-67984419D01*
X157239962Y-67991651D01*
X157259368Y-68000830D01*
X157277781Y-68011866D01*
X157295024Y-68024654D01*
X157310930Y-68039070D01*
X157325346Y-68054976D01*
X157338134Y-68072219D01*
X157349170Y-68090632D01*
X157358349Y-68110038D01*
X157365581Y-68130250D01*
X157370797Y-68151074D01*
X157373947Y-68172309D01*
X157375000Y-68193750D01*
X157375000Y-68631250D01*
X157373947Y-68652691D01*
X157370797Y-68673926D01*
X157365581Y-68694750D01*
X157358349Y-68714962D01*
X157349170Y-68734368D01*
X157338134Y-68752781D01*
X157325346Y-68770024D01*
X157310930Y-68785930D01*
X157295024Y-68800346D01*
X157277781Y-68813134D01*
X157259368Y-68824170D01*
X157239962Y-68833349D01*
X157219750Y-68840581D01*
X157198926Y-68845797D01*
X157177691Y-68848947D01*
X157156250Y-68850000D01*
X156643750Y-68850000D01*
X156622309Y-68848947D01*
X156601074Y-68845797D01*
X156580250Y-68840581D01*
X156560038Y-68833349D01*
X156540632Y-68824170D01*
X156522219Y-68813134D01*
X156504976Y-68800346D01*
X156489070Y-68785930D01*
X156474654Y-68770024D01*
X156461866Y-68752781D01*
X156450830Y-68734368D01*
X156441651Y-68714962D01*
X156434419Y-68694750D01*
X156429203Y-68673926D01*
X156426053Y-68652691D01*
X156425000Y-68631250D01*
X156425000Y-68193750D01*
X156426053Y-68172309D01*
X156429203Y-68151074D01*
X156434419Y-68130250D01*
X156441651Y-68110038D01*
X156450830Y-68090632D01*
X156461866Y-68072219D01*
X156474654Y-68054976D01*
X156489070Y-68039070D01*
X156504976Y-68024654D01*
X156522219Y-68011866D01*
X156540632Y-68000830D01*
X156560038Y-67991651D01*
X156580250Y-67984419D01*
X156601074Y-67979203D01*
X156622309Y-67976053D01*
X156643750Y-67975000D01*
X157156250Y-67975000D01*
X157177691Y-67976053D01*
G37*
G04 #@! TD.AperFunction*
G04 #@! TA.AperFunction,SMDPad,CuDef*
G36*
X157177691Y-69551053D02*
G01*
X157198926Y-69554203D01*
X157219750Y-69559419D01*
X157239962Y-69566651D01*
X157259368Y-69575830D01*
X157277781Y-69586866D01*
X157295024Y-69599654D01*
X157310930Y-69614070D01*
X157325346Y-69629976D01*
X157338134Y-69647219D01*
X157349170Y-69665632D01*
X157358349Y-69685038D01*
X157365581Y-69705250D01*
X157370797Y-69726074D01*
X157373947Y-69747309D01*
X157375000Y-69768750D01*
X157375000Y-70206250D01*
X157373947Y-70227691D01*
X157370797Y-70248926D01*
X157365581Y-70269750D01*
X157358349Y-70289962D01*
X157349170Y-70309368D01*
X157338134Y-70327781D01*
X157325346Y-70345024D01*
X157310930Y-70360930D01*
X157295024Y-70375346D01*
X157277781Y-70388134D01*
X157259368Y-70399170D01*
X157239962Y-70408349D01*
X157219750Y-70415581D01*
X157198926Y-70420797D01*
X157177691Y-70423947D01*
X157156250Y-70425000D01*
X156643750Y-70425000D01*
X156622309Y-70423947D01*
X156601074Y-70420797D01*
X156580250Y-70415581D01*
X156560038Y-70408349D01*
X156540632Y-70399170D01*
X156522219Y-70388134D01*
X156504976Y-70375346D01*
X156489070Y-70360930D01*
X156474654Y-70345024D01*
X156461866Y-70327781D01*
X156450830Y-70309368D01*
X156441651Y-70289962D01*
X156434419Y-70269750D01*
X156429203Y-70248926D01*
X156426053Y-70227691D01*
X156425000Y-70206250D01*
X156425000Y-69768750D01*
X156426053Y-69747309D01*
X156429203Y-69726074D01*
X156434419Y-69705250D01*
X156441651Y-69685038D01*
X156450830Y-69665632D01*
X156461866Y-69647219D01*
X156474654Y-69629976D01*
X156489070Y-69614070D01*
X156504976Y-69599654D01*
X156522219Y-69586866D01*
X156540632Y-69575830D01*
X156560038Y-69566651D01*
X156580250Y-69559419D01*
X156601074Y-69554203D01*
X156622309Y-69551053D01*
X156643750Y-69550000D01*
X157156250Y-69550000D01*
X157177691Y-69551053D01*
G37*
G04 #@! TD.AperFunction*
G04 #@! TA.AperFunction,SMDPad,CuDef*
G36*
X149327691Y-79326053D02*
G01*
X149348926Y-79329203D01*
X149369750Y-79334419D01*
X149389962Y-79341651D01*
X149409368Y-79350830D01*
X149427781Y-79361866D01*
X149445024Y-79374654D01*
X149460930Y-79389070D01*
X149475346Y-79404976D01*
X149488134Y-79422219D01*
X149499170Y-79440632D01*
X149508349Y-79460038D01*
X149515581Y-79480250D01*
X149520797Y-79501074D01*
X149523947Y-79522309D01*
X149525000Y-79543750D01*
X149525000Y-80056250D01*
X149523947Y-80077691D01*
X149520797Y-80098926D01*
X149515581Y-80119750D01*
X149508349Y-80139962D01*
X149499170Y-80159368D01*
X149488134Y-80177781D01*
X149475346Y-80195024D01*
X149460930Y-80210930D01*
X149445024Y-80225346D01*
X149427781Y-80238134D01*
X149409368Y-80249170D01*
X149389962Y-80258349D01*
X149369750Y-80265581D01*
X149348926Y-80270797D01*
X149327691Y-80273947D01*
X149306250Y-80275000D01*
X148868750Y-80275000D01*
X148847309Y-80273947D01*
X148826074Y-80270797D01*
X148805250Y-80265581D01*
X148785038Y-80258349D01*
X148765632Y-80249170D01*
X148747219Y-80238134D01*
X148729976Y-80225346D01*
X148714070Y-80210930D01*
X148699654Y-80195024D01*
X148686866Y-80177781D01*
X148675830Y-80159368D01*
X148666651Y-80139962D01*
X148659419Y-80119750D01*
X148654203Y-80098926D01*
X148651053Y-80077691D01*
X148650000Y-80056250D01*
X148650000Y-79543750D01*
X148651053Y-79522309D01*
X148654203Y-79501074D01*
X148659419Y-79480250D01*
X148666651Y-79460038D01*
X148675830Y-79440632D01*
X148686866Y-79422219D01*
X148699654Y-79404976D01*
X148714070Y-79389070D01*
X148729976Y-79374654D01*
X148747219Y-79361866D01*
X148765632Y-79350830D01*
X148785038Y-79341651D01*
X148805250Y-79334419D01*
X148826074Y-79329203D01*
X148847309Y-79326053D01*
X148868750Y-79325000D01*
X149306250Y-79325000D01*
X149327691Y-79326053D01*
G37*
G04 #@! TD.AperFunction*
G04 #@! TA.AperFunction,SMDPad,CuDef*
G36*
X147752691Y-79326053D02*
G01*
X147773926Y-79329203D01*
X147794750Y-79334419D01*
X147814962Y-79341651D01*
X147834368Y-79350830D01*
X147852781Y-79361866D01*
X147870024Y-79374654D01*
X147885930Y-79389070D01*
X147900346Y-79404976D01*
X147913134Y-79422219D01*
X147924170Y-79440632D01*
X147933349Y-79460038D01*
X147940581Y-79480250D01*
X147945797Y-79501074D01*
X147948947Y-79522309D01*
X147950000Y-79543750D01*
X147950000Y-80056250D01*
X147948947Y-80077691D01*
X147945797Y-80098926D01*
X147940581Y-80119750D01*
X147933349Y-80139962D01*
X147924170Y-80159368D01*
X147913134Y-80177781D01*
X147900346Y-80195024D01*
X147885930Y-80210930D01*
X147870024Y-80225346D01*
X147852781Y-80238134D01*
X147834368Y-80249170D01*
X147814962Y-80258349D01*
X147794750Y-80265581D01*
X147773926Y-80270797D01*
X147752691Y-80273947D01*
X147731250Y-80275000D01*
X147293750Y-80275000D01*
X147272309Y-80273947D01*
X147251074Y-80270797D01*
X147230250Y-80265581D01*
X147210038Y-80258349D01*
X147190632Y-80249170D01*
X147172219Y-80238134D01*
X147154976Y-80225346D01*
X147139070Y-80210930D01*
X147124654Y-80195024D01*
X147111866Y-80177781D01*
X147100830Y-80159368D01*
X147091651Y-80139962D01*
X147084419Y-80119750D01*
X147079203Y-80098926D01*
X147076053Y-80077691D01*
X147075000Y-80056250D01*
X147075000Y-79543750D01*
X147076053Y-79522309D01*
X147079203Y-79501074D01*
X147084419Y-79480250D01*
X147091651Y-79460038D01*
X147100830Y-79440632D01*
X147111866Y-79422219D01*
X147124654Y-79404976D01*
X147139070Y-79389070D01*
X147154976Y-79374654D01*
X147172219Y-79361866D01*
X147190632Y-79350830D01*
X147210038Y-79341651D01*
X147230250Y-79334419D01*
X147251074Y-79329203D01*
X147272309Y-79326053D01*
X147293750Y-79325000D01*
X147731250Y-79325000D01*
X147752691Y-79326053D01*
G37*
G04 #@! TD.AperFunction*
G04 #@! TA.AperFunction,SMDPad,CuDef*
G36*
X154491111Y-81389580D02*
G01*
X154512346Y-81392730D01*
X154533170Y-81397946D01*
X154553382Y-81405178D01*
X154572788Y-81414357D01*
X154591201Y-81425393D01*
X154608444Y-81438181D01*
X154624350Y-81452597D01*
X154933709Y-81761956D01*
X154948125Y-81777862D01*
X154960913Y-81795105D01*
X154971949Y-81813518D01*
X154981128Y-81832924D01*
X154988360Y-81853136D01*
X154993576Y-81873960D01*
X154996726Y-81895195D01*
X154997779Y-81916636D01*
X154996726Y-81938077D01*
X154993576Y-81959312D01*
X154988360Y-81980136D01*
X154981128Y-82000348D01*
X154971949Y-82019754D01*
X154960913Y-82038167D01*
X154948125Y-82055410D01*
X154933709Y-82071316D01*
X154571316Y-82433709D01*
X154555410Y-82448125D01*
X154538167Y-82460913D01*
X154519754Y-82471949D01*
X154500348Y-82481128D01*
X154480136Y-82488360D01*
X154459312Y-82493576D01*
X154438077Y-82496726D01*
X154416636Y-82497779D01*
X154395195Y-82496726D01*
X154373960Y-82493576D01*
X154353136Y-82488360D01*
X154332924Y-82481128D01*
X154313518Y-82471949D01*
X154295105Y-82460913D01*
X154277862Y-82448125D01*
X154261956Y-82433709D01*
X153952597Y-82124350D01*
X153938181Y-82108444D01*
X153925393Y-82091201D01*
X153914357Y-82072788D01*
X153905178Y-82053382D01*
X153897946Y-82033170D01*
X153892730Y-82012346D01*
X153889580Y-81991111D01*
X153888527Y-81969670D01*
X153889580Y-81948229D01*
X153892730Y-81926994D01*
X153897946Y-81906170D01*
X153905178Y-81885958D01*
X153914357Y-81866552D01*
X153925393Y-81848139D01*
X153938181Y-81830896D01*
X153952597Y-81814990D01*
X154314990Y-81452597D01*
X154330896Y-81438181D01*
X154348139Y-81425393D01*
X154366552Y-81414357D01*
X154385958Y-81405178D01*
X154406170Y-81397946D01*
X154426994Y-81392730D01*
X154448229Y-81389580D01*
X154469670Y-81388527D01*
X154491111Y-81389580D01*
G37*
G04 #@! TD.AperFunction*
G04 #@! TA.AperFunction,SMDPad,CuDef*
G36*
X155604805Y-82503274D02*
G01*
X155626040Y-82506424D01*
X155646864Y-82511640D01*
X155667076Y-82518872D01*
X155686482Y-82528051D01*
X155704895Y-82539087D01*
X155722138Y-82551875D01*
X155738044Y-82566291D01*
X156047403Y-82875650D01*
X156061819Y-82891556D01*
X156074607Y-82908799D01*
X156085643Y-82927212D01*
X156094822Y-82946618D01*
X156102054Y-82966830D01*
X156107270Y-82987654D01*
X156110420Y-83008889D01*
X156111473Y-83030330D01*
X156110420Y-83051771D01*
X156107270Y-83073006D01*
X156102054Y-83093830D01*
X156094822Y-83114042D01*
X156085643Y-83133448D01*
X156074607Y-83151861D01*
X156061819Y-83169104D01*
X156047403Y-83185010D01*
X155685010Y-83547403D01*
X155669104Y-83561819D01*
X155651861Y-83574607D01*
X155633448Y-83585643D01*
X155614042Y-83594822D01*
X155593830Y-83602054D01*
X155573006Y-83607270D01*
X155551771Y-83610420D01*
X155530330Y-83611473D01*
X155508889Y-83610420D01*
X155487654Y-83607270D01*
X155466830Y-83602054D01*
X155446618Y-83594822D01*
X155427212Y-83585643D01*
X155408799Y-83574607D01*
X155391556Y-83561819D01*
X155375650Y-83547403D01*
X155066291Y-83238044D01*
X155051875Y-83222138D01*
X155039087Y-83204895D01*
X155028051Y-83186482D01*
X155018872Y-83167076D01*
X155011640Y-83146864D01*
X155006424Y-83126040D01*
X155003274Y-83104805D01*
X155002221Y-83083364D01*
X155003274Y-83061923D01*
X155006424Y-83040688D01*
X155011640Y-83019864D01*
X155018872Y-82999652D01*
X155028051Y-82980246D01*
X155039087Y-82961833D01*
X155051875Y-82944590D01*
X155066291Y-82928684D01*
X155428684Y-82566291D01*
X155444590Y-82551875D01*
X155461833Y-82539087D01*
X155480246Y-82528051D01*
X155499652Y-82518872D01*
X155519864Y-82511640D01*
X155540688Y-82506424D01*
X155561923Y-82503274D01*
X155583364Y-82502221D01*
X155604805Y-82503274D01*
G37*
G04 #@! TD.AperFunction*
G04 #@! TA.AperFunction,SMDPad,CuDef*
G36*
X155551771Y-76339580D02*
G01*
X155573006Y-76342730D01*
X155593830Y-76347946D01*
X155614042Y-76355178D01*
X155633448Y-76364357D01*
X155651861Y-76375393D01*
X155669104Y-76388181D01*
X155685010Y-76402597D01*
X156047403Y-76764990D01*
X156061819Y-76780896D01*
X156074607Y-76798139D01*
X156085643Y-76816552D01*
X156094822Y-76835958D01*
X156102054Y-76856170D01*
X156107270Y-76876994D01*
X156110420Y-76898229D01*
X156111473Y-76919670D01*
X156110420Y-76941111D01*
X156107270Y-76962346D01*
X156102054Y-76983170D01*
X156094822Y-77003382D01*
X156085643Y-77022788D01*
X156074607Y-77041201D01*
X156061819Y-77058444D01*
X156047403Y-77074350D01*
X155738044Y-77383709D01*
X155722138Y-77398125D01*
X155704895Y-77410913D01*
X155686482Y-77421949D01*
X155667076Y-77431128D01*
X155646864Y-77438360D01*
X155626040Y-77443576D01*
X155604805Y-77446726D01*
X155583364Y-77447779D01*
X155561923Y-77446726D01*
X155540688Y-77443576D01*
X155519864Y-77438360D01*
X155499652Y-77431128D01*
X155480246Y-77421949D01*
X155461833Y-77410913D01*
X155444590Y-77398125D01*
X155428684Y-77383709D01*
X155066291Y-77021316D01*
X155051875Y-77005410D01*
X155039087Y-76988167D01*
X155028051Y-76969754D01*
X155018872Y-76950348D01*
X155011640Y-76930136D01*
X155006424Y-76909312D01*
X155003274Y-76888077D01*
X155002221Y-76866636D01*
X155003274Y-76845195D01*
X155006424Y-76823960D01*
X155011640Y-76803136D01*
X155018872Y-76782924D01*
X155028051Y-76763518D01*
X155039087Y-76745105D01*
X155051875Y-76727862D01*
X155066291Y-76711956D01*
X155375650Y-76402597D01*
X155391556Y-76388181D01*
X155408799Y-76375393D01*
X155427212Y-76364357D01*
X155446618Y-76355178D01*
X155466830Y-76347946D01*
X155487654Y-76342730D01*
X155508889Y-76339580D01*
X155530330Y-76338527D01*
X155551771Y-76339580D01*
G37*
G04 #@! TD.AperFunction*
G04 #@! TA.AperFunction,SMDPad,CuDef*
G36*
X154438077Y-77453274D02*
G01*
X154459312Y-77456424D01*
X154480136Y-77461640D01*
X154500348Y-77468872D01*
X154519754Y-77478051D01*
X154538167Y-77489087D01*
X154555410Y-77501875D01*
X154571316Y-77516291D01*
X154933709Y-77878684D01*
X154948125Y-77894590D01*
X154960913Y-77911833D01*
X154971949Y-77930246D01*
X154981128Y-77949652D01*
X154988360Y-77969864D01*
X154993576Y-77990688D01*
X154996726Y-78011923D01*
X154997779Y-78033364D01*
X154996726Y-78054805D01*
X154993576Y-78076040D01*
X154988360Y-78096864D01*
X154981128Y-78117076D01*
X154971949Y-78136482D01*
X154960913Y-78154895D01*
X154948125Y-78172138D01*
X154933709Y-78188044D01*
X154624350Y-78497403D01*
X154608444Y-78511819D01*
X154591201Y-78524607D01*
X154572788Y-78535643D01*
X154553382Y-78544822D01*
X154533170Y-78552054D01*
X154512346Y-78557270D01*
X154491111Y-78560420D01*
X154469670Y-78561473D01*
X154448229Y-78560420D01*
X154426994Y-78557270D01*
X154406170Y-78552054D01*
X154385958Y-78544822D01*
X154366552Y-78535643D01*
X154348139Y-78524607D01*
X154330896Y-78511819D01*
X154314990Y-78497403D01*
X153952597Y-78135010D01*
X153938181Y-78119104D01*
X153925393Y-78101861D01*
X153914357Y-78083448D01*
X153905178Y-78064042D01*
X153897946Y-78043830D01*
X153892730Y-78023006D01*
X153889580Y-78001771D01*
X153888527Y-77980330D01*
X153889580Y-77958889D01*
X153892730Y-77937654D01*
X153897946Y-77916830D01*
X153905178Y-77896618D01*
X153914357Y-77877212D01*
X153925393Y-77858799D01*
X153938181Y-77841556D01*
X153952597Y-77825650D01*
X154261956Y-77516291D01*
X154277862Y-77501875D01*
X154295105Y-77489087D01*
X154313518Y-77478051D01*
X154332924Y-77468872D01*
X154353136Y-77461640D01*
X154373960Y-77456424D01*
X154395195Y-77453274D01*
X154416636Y-77452221D01*
X154438077Y-77453274D01*
G37*
G04 #@! TD.AperFunction*
G04 #@! TA.AperFunction,SMDPad,CuDef*
G36*
X166152691Y-76726053D02*
G01*
X166173926Y-76729203D01*
X166194750Y-76734419D01*
X166214962Y-76741651D01*
X166234368Y-76750830D01*
X166252781Y-76761866D01*
X166270024Y-76774654D01*
X166285930Y-76789070D01*
X166300346Y-76804976D01*
X166313134Y-76822219D01*
X166324170Y-76840632D01*
X166333349Y-76860038D01*
X166340581Y-76880250D01*
X166345797Y-76901074D01*
X166348947Y-76922309D01*
X166350000Y-76943750D01*
X166350000Y-77456250D01*
X166348947Y-77477691D01*
X166345797Y-77498926D01*
X166340581Y-77519750D01*
X166333349Y-77539962D01*
X166324170Y-77559368D01*
X166313134Y-77577781D01*
X166300346Y-77595024D01*
X166285930Y-77610930D01*
X166270024Y-77625346D01*
X166252781Y-77638134D01*
X166234368Y-77649170D01*
X166214962Y-77658349D01*
X166194750Y-77665581D01*
X166173926Y-77670797D01*
X166152691Y-77673947D01*
X166131250Y-77675000D01*
X165693750Y-77675000D01*
X165672309Y-77673947D01*
X165651074Y-77670797D01*
X165630250Y-77665581D01*
X165610038Y-77658349D01*
X165590632Y-77649170D01*
X165572219Y-77638134D01*
X165554976Y-77625346D01*
X165539070Y-77610930D01*
X165524654Y-77595024D01*
X165511866Y-77577781D01*
X165500830Y-77559368D01*
X165491651Y-77539962D01*
X165484419Y-77519750D01*
X165479203Y-77498926D01*
X165476053Y-77477691D01*
X165475000Y-77456250D01*
X165475000Y-76943750D01*
X165476053Y-76922309D01*
X165479203Y-76901074D01*
X165484419Y-76880250D01*
X165491651Y-76860038D01*
X165500830Y-76840632D01*
X165511866Y-76822219D01*
X165524654Y-76804976D01*
X165539070Y-76789070D01*
X165554976Y-76774654D01*
X165572219Y-76761866D01*
X165590632Y-76750830D01*
X165610038Y-76741651D01*
X165630250Y-76734419D01*
X165651074Y-76729203D01*
X165672309Y-76726053D01*
X165693750Y-76725000D01*
X166131250Y-76725000D01*
X166152691Y-76726053D01*
G37*
G04 #@! TD.AperFunction*
G04 #@! TA.AperFunction,SMDPad,CuDef*
G36*
X167727691Y-76726053D02*
G01*
X167748926Y-76729203D01*
X167769750Y-76734419D01*
X167789962Y-76741651D01*
X167809368Y-76750830D01*
X167827781Y-76761866D01*
X167845024Y-76774654D01*
X167860930Y-76789070D01*
X167875346Y-76804976D01*
X167888134Y-76822219D01*
X167899170Y-76840632D01*
X167908349Y-76860038D01*
X167915581Y-76880250D01*
X167920797Y-76901074D01*
X167923947Y-76922309D01*
X167925000Y-76943750D01*
X167925000Y-77456250D01*
X167923947Y-77477691D01*
X167920797Y-77498926D01*
X167915581Y-77519750D01*
X167908349Y-77539962D01*
X167899170Y-77559368D01*
X167888134Y-77577781D01*
X167875346Y-77595024D01*
X167860930Y-77610930D01*
X167845024Y-77625346D01*
X167827781Y-77638134D01*
X167809368Y-77649170D01*
X167789962Y-77658349D01*
X167769750Y-77665581D01*
X167748926Y-77670797D01*
X167727691Y-77673947D01*
X167706250Y-77675000D01*
X167268750Y-77675000D01*
X167247309Y-77673947D01*
X167226074Y-77670797D01*
X167205250Y-77665581D01*
X167185038Y-77658349D01*
X167165632Y-77649170D01*
X167147219Y-77638134D01*
X167129976Y-77625346D01*
X167114070Y-77610930D01*
X167099654Y-77595024D01*
X167086866Y-77577781D01*
X167075830Y-77559368D01*
X167066651Y-77539962D01*
X167059419Y-77519750D01*
X167054203Y-77498926D01*
X167051053Y-77477691D01*
X167050000Y-77456250D01*
X167050000Y-76943750D01*
X167051053Y-76922309D01*
X167054203Y-76901074D01*
X167059419Y-76880250D01*
X167066651Y-76860038D01*
X167075830Y-76840632D01*
X167086866Y-76822219D01*
X167099654Y-76804976D01*
X167114070Y-76789070D01*
X167129976Y-76774654D01*
X167147219Y-76761866D01*
X167165632Y-76750830D01*
X167185038Y-76741651D01*
X167205250Y-76734419D01*
X167226074Y-76729203D01*
X167247309Y-76726053D01*
X167268750Y-76725000D01*
X167706250Y-76725000D01*
X167727691Y-76726053D01*
G37*
G04 #@! TD.AperFunction*
D16*
X570000000Y-70000000D03*
D17*
X572540000Y-70000000D03*
X570000000Y-72540000D03*
X572540000Y-72540000D03*
X570000000Y-75080000D03*
X572540000Y-75080000D03*
X570000000Y-77620000D03*
X572540000Y-77620000D03*
X570000000Y-80160000D03*
X572540000Y-80160000D03*
X570000000Y-82700000D03*
X572540000Y-82700000D03*
X570000000Y-85240000D03*
X572540000Y-85240000D03*
X570000000Y-87780000D03*
X572540000Y-87780000D03*
X570000000Y-90320000D03*
X572540000Y-90320000D03*
X570000000Y-92860000D03*
X572540000Y-92860000D03*
X547540000Y-92860000D03*
X545000000Y-92860000D03*
X547540000Y-90320000D03*
X545000000Y-90320000D03*
X547540000Y-87780000D03*
X545000000Y-87780000D03*
X547540000Y-85240000D03*
X545000000Y-85240000D03*
X547540000Y-82700000D03*
X545000000Y-82700000D03*
X547540000Y-80160000D03*
X545000000Y-80160000D03*
X547540000Y-77620000D03*
X545000000Y-77620000D03*
X547540000Y-75080000D03*
X545000000Y-75080000D03*
X547540000Y-72540000D03*
X545000000Y-72540000D03*
X547540000Y-70000000D03*
D16*
X545000000Y-70000000D03*
D17*
X402460000Y-107140000D03*
X405000000Y-107140000D03*
X402460000Y-109680000D03*
X405000000Y-109680000D03*
X402460000Y-112220000D03*
X405000000Y-112220000D03*
X402460000Y-114760000D03*
X405000000Y-114760000D03*
X402460000Y-117300000D03*
X405000000Y-117300000D03*
X402460000Y-119840000D03*
X405000000Y-119840000D03*
X402460000Y-122380000D03*
X405000000Y-122380000D03*
X402460000Y-124920000D03*
X405000000Y-124920000D03*
X402460000Y-127460000D03*
X405000000Y-127460000D03*
X402460000Y-130000000D03*
D16*
X405000000Y-130000000D03*
D17*
X377460000Y-107140000D03*
X380000000Y-107140000D03*
X377460000Y-109680000D03*
X380000000Y-109680000D03*
X377460000Y-112220000D03*
X380000000Y-112220000D03*
X377460000Y-114760000D03*
X380000000Y-114760000D03*
X377460000Y-117300000D03*
X380000000Y-117300000D03*
X377460000Y-119840000D03*
X380000000Y-119840000D03*
X377460000Y-122380000D03*
X380000000Y-122380000D03*
X377460000Y-124920000D03*
X380000000Y-124920000D03*
X377460000Y-127460000D03*
X380000000Y-127460000D03*
X377460000Y-130000000D03*
D16*
X380000000Y-130000000D03*
X200000000Y-70000000D03*
D17*
X202540000Y-70000000D03*
X200000000Y-72540000D03*
X202540000Y-72540000D03*
X200000000Y-75080000D03*
X202540000Y-75080000D03*
X200000000Y-77620000D03*
X202540000Y-77620000D03*
X200000000Y-80160000D03*
X202540000Y-80160000D03*
X200000000Y-82700000D03*
X202540000Y-82700000D03*
X200000000Y-85240000D03*
X202540000Y-85240000D03*
X200000000Y-87780000D03*
X202540000Y-87780000D03*
X200000000Y-90320000D03*
X202540000Y-90320000D03*
X200000000Y-92860000D03*
X202540000Y-92860000D03*
G04 #@! TA.AperFunction,SMDPad,CuDef*
D15*
G36*
X613827691Y-71026053D02*
G01*
X613848926Y-71029203D01*
X613869750Y-71034419D01*
X613889962Y-71041651D01*
X613909368Y-71050830D01*
X613927781Y-71061866D01*
X613945024Y-71074654D01*
X613960930Y-71089070D01*
X613975346Y-71104976D01*
X613988134Y-71122219D01*
X613999170Y-71140632D01*
X614008349Y-71160038D01*
X614015581Y-71180250D01*
X614020797Y-71201074D01*
X614023947Y-71222309D01*
X614025000Y-71243750D01*
X614025000Y-71756250D01*
X614023947Y-71777691D01*
X614020797Y-71798926D01*
X614015581Y-71819750D01*
X614008349Y-71839962D01*
X613999170Y-71859368D01*
X613988134Y-71877781D01*
X613975346Y-71895024D01*
X613960930Y-71910930D01*
X613945024Y-71925346D01*
X613927781Y-71938134D01*
X613909368Y-71949170D01*
X613889962Y-71958349D01*
X613869750Y-71965581D01*
X613848926Y-71970797D01*
X613827691Y-71973947D01*
X613806250Y-71975000D01*
X613368750Y-71975000D01*
X613347309Y-71973947D01*
X613326074Y-71970797D01*
X613305250Y-71965581D01*
X613285038Y-71958349D01*
X613265632Y-71949170D01*
X613247219Y-71938134D01*
X613229976Y-71925346D01*
X613214070Y-71910930D01*
X613199654Y-71895024D01*
X613186866Y-71877781D01*
X613175830Y-71859368D01*
X613166651Y-71839962D01*
X613159419Y-71819750D01*
X613154203Y-71798926D01*
X613151053Y-71777691D01*
X613150000Y-71756250D01*
X613150000Y-71243750D01*
X613151053Y-71222309D01*
X613154203Y-71201074D01*
X613159419Y-71180250D01*
X613166651Y-71160038D01*
X613175830Y-71140632D01*
X613186866Y-71122219D01*
X613199654Y-71104976D01*
X613214070Y-71089070D01*
X613229976Y-71074654D01*
X613247219Y-71061866D01*
X613265632Y-71050830D01*
X613285038Y-71041651D01*
X613305250Y-71034419D01*
X613326074Y-71029203D01*
X613347309Y-71026053D01*
X613368750Y-71025000D01*
X613806250Y-71025000D01*
X613827691Y-71026053D01*
G37*
G04 #@! TD.AperFunction*
G04 #@! TA.AperFunction,SMDPad,CuDef*
G36*
X612252691Y-71026053D02*
G01*
X612273926Y-71029203D01*
X612294750Y-71034419D01*
X612314962Y-71041651D01*
X612334368Y-71050830D01*
X612352781Y-71061866D01*
X612370024Y-71074654D01*
X612385930Y-71089070D01*
X612400346Y-71104976D01*
X612413134Y-71122219D01*
X612424170Y-71140632D01*
X612433349Y-71160038D01*
X612440581Y-71180250D01*
X612445797Y-71201074D01*
X612448947Y-71222309D01*
X612450000Y-71243750D01*
X612450000Y-71756250D01*
X612448947Y-71777691D01*
X612445797Y-71798926D01*
X612440581Y-71819750D01*
X612433349Y-71839962D01*
X612424170Y-71859368D01*
X612413134Y-71877781D01*
X612400346Y-71895024D01*
X612385930Y-71910930D01*
X612370024Y-71925346D01*
X612352781Y-71938134D01*
X612334368Y-71949170D01*
X612314962Y-71958349D01*
X612294750Y-71965581D01*
X612273926Y-71970797D01*
X612252691Y-71973947D01*
X612231250Y-71975000D01*
X611793750Y-71975000D01*
X611772309Y-71973947D01*
X611751074Y-71970797D01*
X611730250Y-71965581D01*
X611710038Y-71958349D01*
X611690632Y-71949170D01*
X611672219Y-71938134D01*
X611654976Y-71925346D01*
X611639070Y-71910930D01*
X611624654Y-71895024D01*
X611611866Y-71877781D01*
X611600830Y-71859368D01*
X611591651Y-71839962D01*
X611584419Y-71819750D01*
X611579203Y-71798926D01*
X611576053Y-71777691D01*
X611575000Y-71756250D01*
X611575000Y-71243750D01*
X611576053Y-71222309D01*
X611579203Y-71201074D01*
X611584419Y-71180250D01*
X611591651Y-71160038D01*
X611600830Y-71140632D01*
X611611866Y-71122219D01*
X611624654Y-71104976D01*
X611639070Y-71089070D01*
X611654976Y-71074654D01*
X611672219Y-71061866D01*
X611690632Y-71050830D01*
X611710038Y-71041651D01*
X611730250Y-71034419D01*
X611751074Y-71029203D01*
X611772309Y-71026053D01*
X611793750Y-71025000D01*
X612231250Y-71025000D01*
X612252691Y-71026053D01*
G37*
G04 #@! TD.AperFunction*
G04 #@! TA.AperFunction,SMDPad,CuDef*
G36*
X502152691Y-71026053D02*
G01*
X502173926Y-71029203D01*
X502194750Y-71034419D01*
X502214962Y-71041651D01*
X502234368Y-71050830D01*
X502252781Y-71061866D01*
X502270024Y-71074654D01*
X502285930Y-71089070D01*
X502300346Y-71104976D01*
X502313134Y-71122219D01*
X502324170Y-71140632D01*
X502333349Y-71160038D01*
X502340581Y-71180250D01*
X502345797Y-71201074D01*
X502348947Y-71222309D01*
X502350000Y-71243750D01*
X502350000Y-71756250D01*
X502348947Y-71777691D01*
X502345797Y-71798926D01*
X502340581Y-71819750D01*
X502333349Y-71839962D01*
X502324170Y-71859368D01*
X502313134Y-71877781D01*
X502300346Y-71895024D01*
X502285930Y-71910930D01*
X502270024Y-71925346D01*
X502252781Y-71938134D01*
X502234368Y-71949170D01*
X502214962Y-71958349D01*
X502194750Y-71965581D01*
X502173926Y-71970797D01*
X502152691Y-71973947D01*
X502131250Y-71975000D01*
X501693750Y-71975000D01*
X501672309Y-71973947D01*
X501651074Y-71970797D01*
X501630250Y-71965581D01*
X501610038Y-71958349D01*
X501590632Y-71949170D01*
X501572219Y-71938134D01*
X501554976Y-71925346D01*
X501539070Y-71910930D01*
X501524654Y-71895024D01*
X501511866Y-71877781D01*
X501500830Y-71859368D01*
X501491651Y-71839962D01*
X501484419Y-71819750D01*
X501479203Y-71798926D01*
X501476053Y-71777691D01*
X501475000Y-71756250D01*
X501475000Y-71243750D01*
X501476053Y-71222309D01*
X501479203Y-71201074D01*
X501484419Y-71180250D01*
X501491651Y-71160038D01*
X501500830Y-71140632D01*
X501511866Y-71122219D01*
X501524654Y-71104976D01*
X501539070Y-71089070D01*
X501554976Y-71074654D01*
X501572219Y-71061866D01*
X501590632Y-71050830D01*
X501610038Y-71041651D01*
X501630250Y-71034419D01*
X501651074Y-71029203D01*
X501672309Y-71026053D01*
X501693750Y-71025000D01*
X502131250Y-71025000D01*
X502152691Y-71026053D01*
G37*
G04 #@! TD.AperFunction*
G04 #@! TA.AperFunction,SMDPad,CuDef*
G36*
X503727691Y-71026053D02*
G01*
X503748926Y-71029203D01*
X503769750Y-71034419D01*
X503789962Y-71041651D01*
X503809368Y-71050830D01*
X503827781Y-71061866D01*
X503845024Y-71074654D01*
X503860930Y-71089070D01*
X503875346Y-71104976D01*
X503888134Y-71122219D01*
X503899170Y-71140632D01*
X503908349Y-71160038D01*
X503915581Y-71180250D01*
X503920797Y-71201074D01*
X503923947Y-71222309D01*
X503925000Y-71243750D01*
X503925000Y-71756250D01*
X503923947Y-71777691D01*
X503920797Y-71798926D01*
X503915581Y-71819750D01*
X503908349Y-71839962D01*
X503899170Y-71859368D01*
X503888134Y-71877781D01*
X503875346Y-71895024D01*
X503860930Y-71910930D01*
X503845024Y-71925346D01*
X503827781Y-71938134D01*
X503809368Y-71949170D01*
X503789962Y-71958349D01*
X503769750Y-71965581D01*
X503748926Y-71970797D01*
X503727691Y-71973947D01*
X503706250Y-71975000D01*
X503268750Y-71975000D01*
X503247309Y-71973947D01*
X503226074Y-71970797D01*
X503205250Y-71965581D01*
X503185038Y-71958349D01*
X503165632Y-71949170D01*
X503147219Y-71938134D01*
X503129976Y-71925346D01*
X503114070Y-71910930D01*
X503099654Y-71895024D01*
X503086866Y-71877781D01*
X503075830Y-71859368D01*
X503066651Y-71839962D01*
X503059419Y-71819750D01*
X503054203Y-71798926D01*
X503051053Y-71777691D01*
X503050000Y-71756250D01*
X503050000Y-71243750D01*
X503051053Y-71222309D01*
X503054203Y-71201074D01*
X503059419Y-71180250D01*
X503066651Y-71160038D01*
X503075830Y-71140632D01*
X503086866Y-71122219D01*
X503099654Y-71104976D01*
X503114070Y-71089070D01*
X503129976Y-71074654D01*
X503147219Y-71061866D01*
X503165632Y-71050830D01*
X503185038Y-71041651D01*
X503205250Y-71034419D01*
X503226074Y-71029203D01*
X503247309Y-71026053D01*
X503268750Y-71025000D01*
X503706250Y-71025000D01*
X503727691Y-71026053D01*
G37*
G04 #@! TD.AperFunction*
G04 #@! TA.AperFunction,SMDPad,CuDef*
G36*
X446652691Y-128126053D02*
G01*
X446673926Y-128129203D01*
X446694750Y-128134419D01*
X446714962Y-128141651D01*
X446734368Y-128150830D01*
X446752781Y-128161866D01*
X446770024Y-128174654D01*
X446785930Y-128189070D01*
X446800346Y-128204976D01*
X446813134Y-128222219D01*
X446824170Y-128240632D01*
X446833349Y-128260038D01*
X446840581Y-128280250D01*
X446845797Y-128301074D01*
X446848947Y-128322309D01*
X446850000Y-128343750D01*
X446850000Y-128856250D01*
X446848947Y-128877691D01*
X446845797Y-128898926D01*
X446840581Y-128919750D01*
X446833349Y-128939962D01*
X446824170Y-128959368D01*
X446813134Y-128977781D01*
X446800346Y-128995024D01*
X446785930Y-129010930D01*
X446770024Y-129025346D01*
X446752781Y-129038134D01*
X446734368Y-129049170D01*
X446714962Y-129058349D01*
X446694750Y-129065581D01*
X446673926Y-129070797D01*
X446652691Y-129073947D01*
X446631250Y-129075000D01*
X446193750Y-129075000D01*
X446172309Y-129073947D01*
X446151074Y-129070797D01*
X446130250Y-129065581D01*
X446110038Y-129058349D01*
X446090632Y-129049170D01*
X446072219Y-129038134D01*
X446054976Y-129025346D01*
X446039070Y-129010930D01*
X446024654Y-128995024D01*
X446011866Y-128977781D01*
X446000830Y-128959368D01*
X445991651Y-128939962D01*
X445984419Y-128919750D01*
X445979203Y-128898926D01*
X445976053Y-128877691D01*
X445975000Y-128856250D01*
X445975000Y-128343750D01*
X445976053Y-128322309D01*
X445979203Y-128301074D01*
X445984419Y-128280250D01*
X445991651Y-128260038D01*
X446000830Y-128240632D01*
X446011866Y-128222219D01*
X446024654Y-128204976D01*
X446039070Y-128189070D01*
X446054976Y-128174654D01*
X446072219Y-128161866D01*
X446090632Y-128150830D01*
X446110038Y-128141651D01*
X446130250Y-128134419D01*
X446151074Y-128129203D01*
X446172309Y-128126053D01*
X446193750Y-128125000D01*
X446631250Y-128125000D01*
X446652691Y-128126053D01*
G37*
G04 #@! TD.AperFunction*
G04 #@! TA.AperFunction,SMDPad,CuDef*
G36*
X448227691Y-128126053D02*
G01*
X448248926Y-128129203D01*
X448269750Y-128134419D01*
X448289962Y-128141651D01*
X448309368Y-128150830D01*
X448327781Y-128161866D01*
X448345024Y-128174654D01*
X448360930Y-128189070D01*
X448375346Y-128204976D01*
X448388134Y-128222219D01*
X448399170Y-128240632D01*
X448408349Y-128260038D01*
X448415581Y-128280250D01*
X448420797Y-128301074D01*
X448423947Y-128322309D01*
X448425000Y-128343750D01*
X448425000Y-128856250D01*
X448423947Y-128877691D01*
X448420797Y-128898926D01*
X448415581Y-128919750D01*
X448408349Y-128939962D01*
X448399170Y-128959368D01*
X448388134Y-128977781D01*
X448375346Y-128995024D01*
X448360930Y-129010930D01*
X448345024Y-129025346D01*
X448327781Y-129038134D01*
X448309368Y-129049170D01*
X448289962Y-129058349D01*
X448269750Y-129065581D01*
X448248926Y-129070797D01*
X448227691Y-129073947D01*
X448206250Y-129075000D01*
X447768750Y-129075000D01*
X447747309Y-129073947D01*
X447726074Y-129070797D01*
X447705250Y-129065581D01*
X447685038Y-129058349D01*
X447665632Y-129049170D01*
X447647219Y-129038134D01*
X447629976Y-129025346D01*
X447614070Y-129010930D01*
X447599654Y-128995024D01*
X447586866Y-128977781D01*
X447575830Y-128959368D01*
X447566651Y-128939962D01*
X447559419Y-128919750D01*
X447554203Y-128898926D01*
X447551053Y-128877691D01*
X447550000Y-128856250D01*
X447550000Y-128343750D01*
X447551053Y-128322309D01*
X447554203Y-128301074D01*
X447559419Y-128280250D01*
X447566651Y-128260038D01*
X447575830Y-128240632D01*
X447586866Y-128222219D01*
X447599654Y-128204976D01*
X447614070Y-128189070D01*
X447629976Y-128174654D01*
X447647219Y-128161866D01*
X447665632Y-128150830D01*
X447685038Y-128141651D01*
X447705250Y-128134419D01*
X447726074Y-128129203D01*
X447747309Y-128126053D01*
X447768750Y-128125000D01*
X448206250Y-128125000D01*
X448227691Y-128126053D01*
G37*
G04 #@! TD.AperFunction*
G04 #@! TA.AperFunction,SMDPad,CuDef*
G36*
X338427691Y-127926053D02*
G01*
X338448926Y-127929203D01*
X338469750Y-127934419D01*
X338489962Y-127941651D01*
X338509368Y-127950830D01*
X338527781Y-127961866D01*
X338545024Y-127974654D01*
X338560930Y-127989070D01*
X338575346Y-128004976D01*
X338588134Y-128022219D01*
X338599170Y-128040632D01*
X338608349Y-128060038D01*
X338615581Y-128080250D01*
X338620797Y-128101074D01*
X338623947Y-128122309D01*
X338625000Y-128143750D01*
X338625000Y-128656250D01*
X338623947Y-128677691D01*
X338620797Y-128698926D01*
X338615581Y-128719750D01*
X338608349Y-128739962D01*
X338599170Y-128759368D01*
X338588134Y-128777781D01*
X338575346Y-128795024D01*
X338560930Y-128810930D01*
X338545024Y-128825346D01*
X338527781Y-128838134D01*
X338509368Y-128849170D01*
X338489962Y-128858349D01*
X338469750Y-128865581D01*
X338448926Y-128870797D01*
X338427691Y-128873947D01*
X338406250Y-128875000D01*
X337968750Y-128875000D01*
X337947309Y-128873947D01*
X337926074Y-128870797D01*
X337905250Y-128865581D01*
X337885038Y-128858349D01*
X337865632Y-128849170D01*
X337847219Y-128838134D01*
X337829976Y-128825346D01*
X337814070Y-128810930D01*
X337799654Y-128795024D01*
X337786866Y-128777781D01*
X337775830Y-128759368D01*
X337766651Y-128739962D01*
X337759419Y-128719750D01*
X337754203Y-128698926D01*
X337751053Y-128677691D01*
X337750000Y-128656250D01*
X337750000Y-128143750D01*
X337751053Y-128122309D01*
X337754203Y-128101074D01*
X337759419Y-128080250D01*
X337766651Y-128060038D01*
X337775830Y-128040632D01*
X337786866Y-128022219D01*
X337799654Y-128004976D01*
X337814070Y-127989070D01*
X337829976Y-127974654D01*
X337847219Y-127961866D01*
X337865632Y-127950830D01*
X337885038Y-127941651D01*
X337905250Y-127934419D01*
X337926074Y-127929203D01*
X337947309Y-127926053D01*
X337968750Y-127925000D01*
X338406250Y-127925000D01*
X338427691Y-127926053D01*
G37*
G04 #@! TD.AperFunction*
G04 #@! TA.AperFunction,SMDPad,CuDef*
G36*
X336852691Y-127926053D02*
G01*
X336873926Y-127929203D01*
X336894750Y-127934419D01*
X336914962Y-127941651D01*
X336934368Y-127950830D01*
X336952781Y-127961866D01*
X336970024Y-127974654D01*
X336985930Y-127989070D01*
X337000346Y-128004976D01*
X337013134Y-128022219D01*
X337024170Y-128040632D01*
X337033349Y-128060038D01*
X337040581Y-128080250D01*
X337045797Y-128101074D01*
X337048947Y-128122309D01*
X337050000Y-128143750D01*
X337050000Y-128656250D01*
X337048947Y-128677691D01*
X337045797Y-128698926D01*
X337040581Y-128719750D01*
X337033349Y-128739962D01*
X337024170Y-128759368D01*
X337013134Y-128777781D01*
X337000346Y-128795024D01*
X336985930Y-128810930D01*
X336970024Y-128825346D01*
X336952781Y-128838134D01*
X336934368Y-128849170D01*
X336914962Y-128858349D01*
X336894750Y-128865581D01*
X336873926Y-128870797D01*
X336852691Y-128873947D01*
X336831250Y-128875000D01*
X336393750Y-128875000D01*
X336372309Y-128873947D01*
X336351074Y-128870797D01*
X336330250Y-128865581D01*
X336310038Y-128858349D01*
X336290632Y-128849170D01*
X336272219Y-128838134D01*
X336254976Y-128825346D01*
X336239070Y-128810930D01*
X336224654Y-128795024D01*
X336211866Y-128777781D01*
X336200830Y-128759368D01*
X336191651Y-128739962D01*
X336184419Y-128719750D01*
X336179203Y-128698926D01*
X336176053Y-128677691D01*
X336175000Y-128656250D01*
X336175000Y-128143750D01*
X336176053Y-128122309D01*
X336179203Y-128101074D01*
X336184419Y-128080250D01*
X336191651Y-128060038D01*
X336200830Y-128040632D01*
X336211866Y-128022219D01*
X336224654Y-128004976D01*
X336239070Y-127989070D01*
X336254976Y-127974654D01*
X336272219Y-127961866D01*
X336290632Y-127950830D01*
X336310038Y-127941651D01*
X336330250Y-127934419D01*
X336351074Y-127929203D01*
X336372309Y-127926053D01*
X336393750Y-127925000D01*
X336831250Y-127925000D01*
X336852691Y-127926053D01*
G37*
G04 #@! TD.AperFunction*
G04 #@! TA.AperFunction,SMDPad,CuDef*
G36*
X157152691Y-71026053D02*
G01*
X157173926Y-71029203D01*
X157194750Y-71034419D01*
X157214962Y-71041651D01*
X157234368Y-71050830D01*
X157252781Y-71061866D01*
X157270024Y-71074654D01*
X157285930Y-71089070D01*
X157300346Y-71104976D01*
X157313134Y-71122219D01*
X157324170Y-71140632D01*
X157333349Y-71160038D01*
X157340581Y-71180250D01*
X157345797Y-71201074D01*
X157348947Y-71222309D01*
X157350000Y-71243750D01*
X157350000Y-71756250D01*
X157348947Y-71777691D01*
X157345797Y-71798926D01*
X157340581Y-71819750D01*
X157333349Y-71839962D01*
X157324170Y-71859368D01*
X157313134Y-71877781D01*
X157300346Y-71895024D01*
X157285930Y-71910930D01*
X157270024Y-71925346D01*
X157252781Y-71938134D01*
X157234368Y-71949170D01*
X157214962Y-71958349D01*
X157194750Y-71965581D01*
X157173926Y-71970797D01*
X157152691Y-71973947D01*
X157131250Y-71975000D01*
X156693750Y-71975000D01*
X156672309Y-71973947D01*
X156651074Y-71970797D01*
X156630250Y-71965581D01*
X156610038Y-71958349D01*
X156590632Y-71949170D01*
X156572219Y-71938134D01*
X156554976Y-71925346D01*
X156539070Y-71910930D01*
X156524654Y-71895024D01*
X156511866Y-71877781D01*
X156500830Y-71859368D01*
X156491651Y-71839962D01*
X156484419Y-71819750D01*
X156479203Y-71798926D01*
X156476053Y-71777691D01*
X156475000Y-71756250D01*
X156475000Y-71243750D01*
X156476053Y-71222309D01*
X156479203Y-71201074D01*
X156484419Y-71180250D01*
X156491651Y-71160038D01*
X156500830Y-71140632D01*
X156511866Y-71122219D01*
X156524654Y-71104976D01*
X156539070Y-71089070D01*
X156554976Y-71074654D01*
X156572219Y-71061866D01*
X156590632Y-71050830D01*
X156610038Y-71041651D01*
X156630250Y-71034419D01*
X156651074Y-71029203D01*
X156672309Y-71026053D01*
X156693750Y-71025000D01*
X157131250Y-71025000D01*
X157152691Y-71026053D01*
G37*
G04 #@! TD.AperFunction*
G04 #@! TA.AperFunction,SMDPad,CuDef*
G36*
X158727691Y-71026053D02*
G01*
X158748926Y-71029203D01*
X158769750Y-71034419D01*
X158789962Y-71041651D01*
X158809368Y-71050830D01*
X158827781Y-71061866D01*
X158845024Y-71074654D01*
X158860930Y-71089070D01*
X158875346Y-71104976D01*
X158888134Y-71122219D01*
X158899170Y-71140632D01*
X158908349Y-71160038D01*
X158915581Y-71180250D01*
X158920797Y-71201074D01*
X158923947Y-71222309D01*
X158925000Y-71243750D01*
X158925000Y-71756250D01*
X158923947Y-71777691D01*
X158920797Y-71798926D01*
X158915581Y-71819750D01*
X158908349Y-71839962D01*
X158899170Y-71859368D01*
X158888134Y-71877781D01*
X158875346Y-71895024D01*
X158860930Y-71910930D01*
X158845024Y-71925346D01*
X158827781Y-71938134D01*
X158809368Y-71949170D01*
X158789962Y-71958349D01*
X158769750Y-71965581D01*
X158748926Y-71970797D01*
X158727691Y-71973947D01*
X158706250Y-71975000D01*
X158268750Y-71975000D01*
X158247309Y-71973947D01*
X158226074Y-71970797D01*
X158205250Y-71965581D01*
X158185038Y-71958349D01*
X158165632Y-71949170D01*
X158147219Y-71938134D01*
X158129976Y-71925346D01*
X158114070Y-71910930D01*
X158099654Y-71895024D01*
X158086866Y-71877781D01*
X158075830Y-71859368D01*
X158066651Y-71839962D01*
X158059419Y-71819750D01*
X158054203Y-71798926D01*
X158051053Y-71777691D01*
X158050000Y-71756250D01*
X158050000Y-71243750D01*
X158051053Y-71222309D01*
X158054203Y-71201074D01*
X158059419Y-71180250D01*
X158066651Y-71160038D01*
X158075830Y-71140632D01*
X158086866Y-71122219D01*
X158099654Y-71104976D01*
X158114070Y-71089070D01*
X158129976Y-71074654D01*
X158147219Y-71061866D01*
X158165632Y-71050830D01*
X158185038Y-71041651D01*
X158205250Y-71034419D01*
X158226074Y-71029203D01*
X158247309Y-71026053D01*
X158268750Y-71025000D01*
X158706250Y-71025000D01*
X158727691Y-71026053D01*
G37*
G04 #@! TD.AperFunction*
D27*
X71600000Y-48100000D03*
D23*
X71600000Y-53100000D03*
D28*
X91000000Y-127200000D03*
X81000000Y-122400000D03*
X114600000Y-100900000D03*
X102000000Y-121300000D03*
X83400000Y-119900000D03*
X88400000Y-119800000D03*
X84800000Y-129800000D03*
X141400000Y-113900000D03*
X256500000Y-113900000D03*
X486300000Y-114000000D03*
X595900000Y-113900000D03*
X354300000Y-89000000D03*
X464400000Y-89000000D03*
X522300000Y-108100000D03*
X292200000Y-110600000D03*
X317600000Y-91300000D03*
X428000000Y-90600000D03*
X638000000Y-108000000D03*
X528000000Y-107700000D03*
X422000000Y-92500000D03*
X311900000Y-92600000D03*
X298000000Y-107500000D03*
X290000000Y-100000000D03*
X429300000Y-99700000D03*
X520500000Y-99900000D03*
X630500000Y-100000000D03*
X646900000Y-109300000D03*
X646900000Y-110800000D03*
X320000000Y-99800000D03*
X578000000Y-76500000D03*
X536200000Y-75300000D03*
X413600000Y-124300000D03*
X371600000Y-123200000D03*
X233300000Y-76300000D03*
X189800000Y-75600000D03*
X182900000Y-107700000D03*
X177400000Y-109200000D03*
X174500000Y-100500000D03*
X63300000Y-127800000D03*
X110700000Y-127100000D03*
X110700000Y-124700000D03*
X114700000Y-117800000D03*
X77400000Y-121400000D03*
X71500000Y-117800000D03*
X71500000Y-126000000D03*
X123600000Y-107000000D03*
X123500000Y-108300000D03*
X124900000Y-102200000D03*
X114200000Y-104800000D03*
X83300000Y-115900000D03*
X88400000Y-115900000D03*
X84400000Y-133400000D03*
X85700000Y-141400000D03*
X100000000Y-131900000D03*
X96200000Y-129500000D03*
X97600000Y-117600000D03*
X84000000Y-122700000D03*
X88200000Y-122700000D03*
X84000000Y-126900000D03*
X86100000Y-124800000D03*
X88200000Y-126900000D03*
X93100000Y-128100000D03*
X100400000Y-113700000D03*
X97000000Y-116000000D03*
X98700000Y-116000000D03*
X114800000Y-120000000D03*
X114800000Y-119000000D03*
X120100000Y-114300000D03*
X120100000Y-113300000D03*
X120100000Y-112100000D03*
X120100000Y-111200000D03*
X113900000Y-116000000D03*
X112100000Y-116000000D03*
X102500000Y-113700000D03*
X104900000Y-113700000D03*
X108600000Y-113700000D03*
X107400000Y-113700000D03*
X74200000Y-125700000D03*
X119600000Y-109900000D03*
X591900000Y-113900000D03*
X482200000Y-113900000D03*
X252300000Y-113900000D03*
X137200000Y-113900000D03*
X292200000Y-108800000D03*
X291900000Y-117000000D03*
X522300000Y-109900000D03*
X522000000Y-116900000D03*
X632400000Y-109300000D03*
X632000000Y-116900000D03*
X358500000Y-89000000D03*
X468400000Y-89000000D03*
X427900000Y-83000000D03*
X428000000Y-89400000D03*
X317600000Y-89400000D03*
X317900000Y-83100000D03*
X428000000Y-91900000D03*
X639900000Y-103200000D03*
X638100000Y-103600000D03*
X530000000Y-103200000D03*
X528200000Y-103600000D03*
X421800000Y-96400000D03*
X420000000Y-96800000D03*
X311900000Y-96500000D03*
X310000000Y-96800000D03*
X300000000Y-103100000D03*
X298200000Y-103500000D03*
X290000000Y-101200000D03*
X288300000Y-103500000D03*
X299200000Y-101200000D03*
X299200000Y-99600000D03*
X290200000Y-97300000D03*
X299300000Y-96400000D03*
X310900000Y-98200000D03*
X310900000Y-99800000D03*
X311000000Y-102900000D03*
X320000000Y-101900000D03*
X420800000Y-98100000D03*
X420800000Y-99600000D03*
X420800000Y-103000000D03*
X429300000Y-102000000D03*
X429500000Y-98100000D03*
X431000000Y-96500000D03*
X520500000Y-101600000D03*
X519100000Y-103900000D03*
X529200000Y-101600000D03*
X529200000Y-100100000D03*
X520600000Y-97100000D03*
X529200000Y-96100000D03*
X628900000Y-103400000D03*
X630600000Y-101500000D03*
X639300000Y-101500000D03*
X639300000Y-100000000D03*
X639300000Y-96400000D03*
X630800000Y-97500000D03*
X320100000Y-98300000D03*
X321500000Y-96100000D03*
X156900000Y-67300000D03*
X146300000Y-79800000D03*
X168600000Y-77200000D03*
X271700000Y-67300000D03*
X261400000Y-79800000D03*
X283700000Y-77200000D03*
X326400000Y-122800000D03*
X338100000Y-132600000D03*
X348600000Y-120200000D03*
X436300000Y-122700000D03*
X447900000Y-132900000D03*
X458600000Y-120200000D03*
X491400000Y-79700000D03*
X501900000Y-67300000D03*
X513600000Y-77200000D03*
X612000000Y-67200000D03*
X601000000Y-79700000D03*
X623600000Y-77300000D03*
X580900000Y-83500000D03*
X539000000Y-82100000D03*
X411000000Y-117900000D03*
X368700000Y-116600000D03*
X236200000Y-83200000D03*
X192500000Y-82300000D03*
X185900000Y-75600000D03*
X229300000Y-76200000D03*
X375800000Y-123300000D03*
X417400000Y-124700000D03*
X532400000Y-75200000D03*
X574200000Y-76500000D03*
X185000000Y-103200000D03*
X183200000Y-103600000D03*
X173500000Y-109300000D03*
X177100000Y-117000000D03*
X174600000Y-101900000D03*
X172900000Y-103900000D03*
X182900000Y-101900000D03*
X182900000Y-100400000D03*
X183000000Y-97200000D03*
X174900000Y-98100000D03*
X110200000Y-130600000D03*
X101400000Y-117000000D03*
X100000000Y-129500000D03*
X78600000Y-124800000D03*
X81200000Y-129000000D03*
X81200000Y-127300000D03*
X83500000Y-129900000D03*
X627500000Y-115600000D03*
X627500000Y-111900000D03*
X625100000Y-112000000D03*
X625100000Y-114300000D03*
X516800000Y-115700000D03*
X516800000Y-111900000D03*
X515300000Y-112100000D03*
X515300000Y-114400000D03*
X435200000Y-85600000D03*
X435200000Y-88100000D03*
X433000000Y-89300000D03*
X433000000Y-85600000D03*
X325000000Y-85900000D03*
X325000000Y-88200000D03*
X323000000Y-89300000D03*
X323000000Y-85600000D03*
X286600000Y-115800000D03*
X286600000Y-111900000D03*
X285000000Y-112100000D03*
X285000000Y-114400000D03*
X172500000Y-111800000D03*
X172500000Y-115400000D03*
X170700000Y-114400000D03*
X170700000Y-111800000D03*
X106700000Y-117600000D03*
X106000000Y-127900000D03*
X106300000Y-131900000D03*
X105200000Y-127100000D03*
X105700000Y-118300000D03*
X104200000Y-126300000D03*
X104900000Y-117500000D03*
X103600000Y-125500000D03*
X103700000Y-117500000D03*
X103100000Y-124700000D03*
X102400000Y-117500000D03*
X95400000Y-123100000D03*
X90400000Y-121400000D03*
X68900000Y-120500000D03*
X71500000Y-123600000D03*
X72600000Y-126200000D03*
X579400000Y-76600000D03*
X579900000Y-83600000D03*
X536300000Y-78800000D03*
X537900000Y-82500000D03*
X414000000Y-121200000D03*
X412000000Y-117300000D03*
X370200000Y-123200000D03*
X369600000Y-115900000D03*
X234600000Y-76400000D03*
X235100000Y-83500000D03*
X189700000Y-79000000D03*
X191300000Y-82700000D03*
X642200000Y-110600000D03*
X186600000Y-110600000D03*
X87100000Y-131900000D03*
X301500000Y-110600000D03*
X308500000Y-89400000D03*
X418500000Y-89400000D03*
X531400000Y-110600000D03*
X642200000Y-109300000D03*
X186600000Y-109300000D03*
X87800000Y-131100000D03*
X301500000Y-109300000D03*
X308500000Y-90700000D03*
X418500000Y-90700000D03*
X531400000Y-109300000D03*
X635300000Y-96400000D03*
X525100000Y-96100000D03*
X424900000Y-103000000D03*
X315400000Y-102900000D03*
X295000000Y-96400000D03*
X179100000Y-97150000D03*
D29*
X86100000Y-124800000D02*
X84000000Y-122700000D01*
X86100000Y-124800000D02*
X88200000Y-122700000D01*
X86100000Y-124800000D02*
X84000000Y-126900000D01*
X86100000Y-124800000D02*
X88200000Y-126900000D01*
D30*
X156900000Y-68412500D02*
X156900000Y-67300000D01*
X147512500Y-79800000D02*
X146300000Y-79800000D01*
X167487500Y-77200000D02*
X168600000Y-77200000D01*
X271700000Y-68412500D02*
X271700000Y-67300000D01*
X262612500Y-79800000D02*
X261400000Y-79800000D01*
X282587500Y-77200000D02*
X283700000Y-77200000D01*
X327512500Y-122800000D02*
X326400000Y-122800000D01*
X338100000Y-131487500D02*
X338100000Y-132600000D01*
X347487500Y-120200000D02*
X348600000Y-120200000D01*
X437412500Y-122700000D02*
X436300000Y-122700000D01*
X447900000Y-131687500D02*
X447900000Y-132900000D01*
X457487500Y-120200000D02*
X458600000Y-120200000D01*
X492512500Y-79700000D02*
X491400000Y-79700000D01*
X501900000Y-68412500D02*
X501900000Y-67300000D01*
X512487500Y-77200000D02*
X513600000Y-77200000D01*
X612000000Y-68312500D02*
X612000000Y-67200000D01*
X602112500Y-79700000D02*
X601000000Y-79700000D01*
X622487500Y-77300000D02*
X623600000Y-77300000D01*
X154443153Y-78006847D02*
X154443153Y-78793153D01*
X155650000Y-80000000D02*
X157500000Y-80000000D01*
X154443153Y-78793153D02*
X155650000Y-80000000D01*
X154443153Y-81943153D02*
X154443153Y-81056847D01*
X155500000Y-80000000D02*
X157500000Y-80000000D01*
X154443153Y-81056847D02*
X155500000Y-80000000D01*
X269393153Y-81943153D02*
X269393153Y-81256847D01*
X270650000Y-80000000D02*
X272500000Y-80000000D01*
X269393153Y-81256847D02*
X270650000Y-80000000D01*
X269443153Y-78006847D02*
X269443153Y-79393153D01*
X270050000Y-80000000D02*
X272500000Y-80000000D01*
X269443153Y-79393153D02*
X270050000Y-80000000D01*
X340556847Y-121943153D02*
X340556847Y-120806847D01*
X339750000Y-120000000D02*
X337500000Y-120000000D01*
X340556847Y-120806847D02*
X339750000Y-120000000D01*
X340556847Y-118056847D02*
X340556847Y-119393153D01*
X339950000Y-120000000D02*
X337500000Y-120000000D01*
X340556847Y-119393153D02*
X339950000Y-120000000D01*
X450556847Y-121943153D02*
X450556847Y-120506847D01*
X450050000Y-120000000D02*
X447500000Y-120000000D01*
X450556847Y-120506847D02*
X450050000Y-120000000D01*
X450556847Y-118006847D02*
X450556847Y-119643153D01*
X450200000Y-120000000D02*
X447500000Y-120000000D01*
X450556847Y-119643153D02*
X450200000Y-120000000D01*
X499443153Y-78006847D02*
X499443153Y-79293153D01*
X500150000Y-80000000D02*
X502500000Y-80000000D01*
X499443153Y-79293153D02*
X500150000Y-80000000D01*
X499443153Y-81943153D02*
X499443153Y-80356847D01*
X499800000Y-80000000D02*
X502500000Y-80000000D01*
X499443153Y-80356847D02*
X499800000Y-80000000D01*
X609443153Y-81943153D02*
X609443153Y-80356847D01*
X609800000Y-80000000D02*
X612500000Y-80000000D01*
X609443153Y-80356847D02*
X609800000Y-80000000D01*
X609443153Y-78006847D02*
X609443153Y-79306847D01*
X610136306Y-80000000D02*
X612500000Y-80000000D01*
X609443153Y-79306847D02*
X610136306Y-80000000D01*
D29*
X100000000Y-129500000D02*
X101700000Y-129500000D01*
X107700000Y-133100000D02*
X110200000Y-130600000D01*
X105300000Y-133100000D02*
X107700000Y-133100000D01*
X101700000Y-129500000D02*
X105300000Y-133100000D01*
D30*
X91950000Y-129550000D02*
X94150000Y-129550000D01*
X100100000Y-118300000D02*
X101400000Y-117000000D01*
X100100000Y-123600000D02*
X100100000Y-118300000D01*
X94150000Y-129550000D02*
X100100000Y-123600000D01*
X78600000Y-124800000D02*
X80300000Y-124800000D01*
X98400000Y-131100000D02*
X100000000Y-129500000D01*
X93500000Y-131100000D02*
X98400000Y-131100000D01*
X91100000Y-128700000D02*
X91950000Y-129550000D01*
X91950000Y-129550000D02*
X93500000Y-131100000D01*
X84200000Y-128700000D02*
X91100000Y-128700000D01*
X80300000Y-124800000D02*
X84200000Y-128700000D01*
D29*
X81200000Y-129000000D02*
X78700000Y-129000000D01*
X78700000Y-129000000D02*
X65200000Y-142500000D01*
X81200000Y-127300000D02*
X79000000Y-127300000D01*
X63920000Y-138700000D02*
X62660000Y-139960000D01*
X67600000Y-138700000D02*
X63920000Y-138700000D01*
X79000000Y-127300000D02*
X67600000Y-138700000D01*
X65200000Y-137420000D02*
X65200000Y-137200000D01*
X65200000Y-137200000D02*
X63700000Y-135700000D01*
X63700000Y-135700000D02*
X61800000Y-135700000D01*
X61800000Y-135700000D02*
X60600000Y-136900000D01*
X60600000Y-136900000D02*
X60600000Y-143500000D01*
X60600000Y-143500000D02*
X61700000Y-144600000D01*
X61700000Y-144600000D02*
X67400000Y-144600000D01*
X67400000Y-144600000D02*
X82100000Y-129900000D01*
X82100000Y-129900000D02*
X83500000Y-129900000D01*
X627500000Y-115600000D02*
X627500000Y-111900000D01*
X625100000Y-112000000D02*
X625100000Y-114300000D01*
X516800000Y-115700000D02*
X516800000Y-115205026D01*
X516800000Y-115205026D02*
X516800000Y-111900000D01*
X515300000Y-112100000D02*
X515300000Y-114400000D01*
X435200000Y-85600000D02*
X435200000Y-88100000D01*
X433000000Y-89300000D02*
X433000000Y-85600000D01*
X325000000Y-85900000D02*
X325000000Y-86394974D01*
X325000000Y-86394974D02*
X325000000Y-88200000D01*
X323000000Y-89300000D02*
X323000000Y-85600000D01*
X286600000Y-115800000D02*
X286600000Y-111900000D01*
X285000000Y-112100000D02*
X285000000Y-114400000D01*
X172500000Y-115400000D02*
X172500000Y-111800000D01*
X170700000Y-111800000D02*
X170700000Y-114400000D01*
X106000000Y-123900000D02*
X105600000Y-123500000D01*
X105600000Y-119700000D02*
X106700000Y-118600000D01*
X105600000Y-123500000D02*
X105600000Y-119700000D01*
X106000000Y-127900000D02*
X106000000Y-123900000D01*
X106700000Y-118600000D02*
X106700000Y-117600000D01*
X105200000Y-127100000D02*
X105200000Y-130800000D01*
X105200000Y-130800000D02*
X106300000Y-131900000D01*
X105200000Y-124000000D02*
X105190002Y-124000000D01*
X105000000Y-119000000D02*
X105700000Y-118300000D01*
X105000000Y-123809998D02*
X105000000Y-119000000D01*
X105190002Y-124000000D02*
X105000000Y-123809998D01*
X105200000Y-127100000D02*
X105200000Y-124000000D01*
X104200000Y-126300000D02*
X104500000Y-126000000D01*
X104400000Y-118000000D02*
X104900000Y-117500000D01*
X104400000Y-124000000D02*
X104400000Y-118000000D01*
X104500000Y-124100000D02*
X104400000Y-124000000D01*
X104500000Y-126000000D02*
X104500000Y-124100000D01*
X103600000Y-125500000D02*
X103900000Y-125200000D01*
X103700000Y-124100000D02*
X103700000Y-117500000D01*
X103900000Y-124300000D02*
X103700000Y-124100000D01*
X103900000Y-125200000D02*
X103900000Y-124300000D01*
X103100000Y-124700000D02*
X103100000Y-118200000D01*
X103100000Y-118200000D02*
X102400000Y-117500000D01*
X92100000Y-123100000D02*
X95400000Y-123100000D01*
X90400000Y-121400000D02*
X92100000Y-123100000D01*
X65099000Y-121349680D02*
X68050320Y-121349680D01*
X68050320Y-121349680D02*
X68900000Y-120500000D01*
X71500000Y-124200000D02*
X71500000Y-123600000D01*
X72600000Y-125300000D02*
X71500000Y-124200000D01*
X72600000Y-126200000D02*
X72600000Y-125300000D01*
X579400000Y-76600000D02*
X579900000Y-77100000D01*
X579900000Y-77100000D02*
X579900000Y-83600000D01*
X536300000Y-78800000D02*
X537900000Y-80400000D01*
X537900000Y-80400000D02*
X537900000Y-82500000D01*
X414000000Y-121200000D02*
X412000000Y-119200000D01*
X412000000Y-119200000D02*
X412000000Y-117300000D01*
X370200000Y-123200000D02*
X369600000Y-122600000D01*
X369600000Y-122600000D02*
X369600000Y-115900000D01*
X234600000Y-76400000D02*
X235100000Y-76900000D01*
X235100000Y-76900000D02*
X235100000Y-83500000D01*
X189700000Y-79000000D02*
X191300000Y-80600000D01*
X191300000Y-80600000D02*
X191300000Y-82700000D01*
X531400000Y-110600000D02*
X642200000Y-110600000D01*
X181500000Y-110600000D02*
X186600000Y-110600000D01*
X174500000Y-117600000D02*
X181500000Y-110600000D01*
X157500000Y-117600000D02*
X174500000Y-117600000D01*
X138600000Y-136500000D02*
X157500000Y-117600000D01*
X91700000Y-136500000D02*
X138600000Y-136500000D01*
X87100000Y-131900000D02*
X91700000Y-136500000D01*
X300500000Y-111600000D02*
X301500000Y-110600000D01*
X291000000Y-111600000D02*
X300500000Y-111600000D01*
X290000000Y-110600000D02*
X291000000Y-111600000D01*
X290000000Y-110600000D02*
X186600000Y-110600000D01*
X309600000Y-90500000D02*
X308500000Y-89400000D01*
X309600000Y-91500000D02*
X309600000Y-90500000D01*
X307200000Y-93900000D02*
X309600000Y-91500000D01*
X307200000Y-104900000D02*
X307200000Y-93900000D01*
X307200000Y-104900000D02*
X301500000Y-110600000D01*
X417700000Y-89400000D02*
X418500000Y-89400000D01*
X416800000Y-90300000D02*
X417700000Y-89400000D01*
X316500000Y-90300000D02*
X416800000Y-90300000D01*
X315600000Y-89400000D02*
X316500000Y-90300000D01*
X315600000Y-89400000D02*
X308500000Y-89400000D01*
X531000000Y-111000000D02*
X531400000Y-110600000D01*
X518900000Y-111000000D02*
X531000000Y-111000000D01*
X502300000Y-94400000D02*
X518900000Y-111000000D01*
X419000000Y-94400000D02*
X502300000Y-94400000D01*
X416800000Y-92200000D02*
X419000000Y-94400000D01*
X416800000Y-92200000D02*
X416800000Y-90300000D01*
X637400000Y-109300000D02*
X642200000Y-109300000D01*
X636400000Y-108300000D02*
X637400000Y-109300000D01*
X631500000Y-108300000D02*
X636400000Y-108300000D01*
X630500000Y-109300000D02*
X631500000Y-108300000D01*
X531400000Y-109300000D02*
X630500000Y-109300000D01*
X181400000Y-109300000D02*
X186600000Y-109300000D01*
X173900000Y-116800000D02*
X181400000Y-109300000D01*
X156500000Y-116800000D02*
X173900000Y-116800000D01*
X137800000Y-135500000D02*
X156500000Y-116800000D01*
X92100000Y-135500000D02*
X137800000Y-135500000D01*
X87800000Y-131200000D02*
X92100000Y-135500000D01*
X87800000Y-131100000D02*
X87800000Y-131200000D01*
X300700000Y-109300000D02*
X301500000Y-109300000D01*
X300300000Y-109700000D02*
X300700000Y-109300000D01*
X290600000Y-109700000D02*
X300300000Y-109700000D01*
X290200000Y-109300000D02*
X290600000Y-109700000D01*
X290200000Y-109300000D02*
X186600000Y-109300000D01*
X306200000Y-93000000D02*
X308500000Y-90700000D01*
X306200000Y-104600000D02*
X306200000Y-93000000D01*
X306200000Y-104600000D02*
X301500000Y-109300000D01*
X419900000Y-89300000D02*
X418500000Y-90700000D01*
X419900000Y-87000000D02*
X419900000Y-89300000D01*
X417300000Y-84400000D02*
X419900000Y-87000000D01*
X311300000Y-84400000D02*
X417300000Y-84400000D01*
X307100000Y-88600000D02*
X311300000Y-84400000D01*
X307100000Y-89800000D02*
X307100000Y-88600000D01*
X308000000Y-90700000D02*
X307100000Y-89800000D01*
X308000000Y-90700000D02*
X308500000Y-90700000D01*
X531100000Y-109000000D02*
X531400000Y-109300000D01*
X519100000Y-109000000D02*
X531100000Y-109000000D01*
X503500000Y-93400000D02*
X519100000Y-109000000D01*
X419900000Y-93400000D02*
X503500000Y-93400000D01*
X418500000Y-92000000D02*
X419900000Y-93400000D01*
X418500000Y-92000000D02*
X418500000Y-90700000D01*
D30*
X611750000Y-71762500D02*
X611750000Y-73125000D01*
X611750000Y-74125000D02*
X611750000Y-73125000D01*
X611750000Y-71762500D02*
X612012500Y-71500000D01*
X612012500Y-69900000D02*
X612000000Y-69887500D01*
X612012500Y-71500000D02*
X612012500Y-69900000D01*
X605575000Y-79700000D02*
X605625000Y-79750000D01*
X606625000Y-79750000D02*
X605625000Y-79750000D01*
X605575000Y-79700000D02*
X603687500Y-79700000D01*
X620912500Y-77300000D02*
X620862500Y-77250000D01*
X619375000Y-77250000D02*
X618375000Y-77250000D01*
X619375000Y-77250000D02*
X620862500Y-77250000D01*
X610556847Y-83056847D02*
X611056847Y-83056847D01*
X611750000Y-83750000D02*
X611750000Y-84350000D01*
X611056847Y-83056847D02*
X611750000Y-83750000D01*
X495575000Y-79700000D02*
X495625000Y-79750000D01*
X496625000Y-79750000D02*
X495625000Y-79750000D01*
X495575000Y-79700000D02*
X494087500Y-79700000D01*
X501912500Y-71500000D02*
X501750000Y-71662500D01*
X501750000Y-73125000D02*
X501750000Y-74125000D01*
X501750000Y-73125000D02*
X501750000Y-71662500D01*
X501912500Y-70000000D02*
X501900000Y-69987500D01*
X501912500Y-71500000D02*
X501912500Y-70000000D01*
X509425000Y-77200000D02*
X509375000Y-77250000D01*
X510912500Y-77200000D02*
X509425000Y-77200000D01*
X500556847Y-83056847D02*
X501106847Y-83056847D01*
X501750000Y-83700000D02*
X501750000Y-84350000D01*
X501106847Y-83056847D02*
X501750000Y-83700000D01*
X508375000Y-77250000D02*
X509375000Y-77250000D01*
X509375000Y-77250000D02*
X509425000Y-77200000D01*
X440575000Y-122700000D02*
X440625000Y-122750000D01*
X441625000Y-122750000D02*
X440625000Y-122750000D01*
X440575000Y-122700000D02*
X438987500Y-122700000D01*
X448250000Y-128337500D02*
X448250000Y-126875000D01*
X448250000Y-125875000D02*
X448250000Y-126875000D01*
X448250000Y-128337500D02*
X447987500Y-128600000D01*
X447900000Y-128687500D02*
X447987500Y-128600000D01*
X447900000Y-130112500D02*
X447900000Y-128687500D01*
X454425000Y-120200000D02*
X454375000Y-120250000D01*
X455912500Y-120200000D02*
X454425000Y-120200000D01*
X448250000Y-115650000D02*
X448250000Y-116350000D01*
X448793153Y-116893153D02*
X449443153Y-116893153D01*
X448250000Y-116350000D02*
X448793153Y-116893153D01*
X453375000Y-120250000D02*
X454375000Y-120250000D01*
X454375000Y-120250000D02*
X454425000Y-120200000D01*
X330575000Y-122800000D02*
X330625000Y-122750000D01*
X329087500Y-122800000D02*
X330575000Y-122800000D01*
X338187500Y-126937500D02*
X338250000Y-126875000D01*
X338187500Y-128400000D02*
X338187500Y-126937500D01*
X338100000Y-128487500D02*
X338187500Y-128400000D01*
X338100000Y-129912500D02*
X338100000Y-128487500D01*
X344425000Y-120200000D02*
X344375000Y-120250000D01*
X345912500Y-120200000D02*
X344425000Y-120200000D01*
X338250000Y-125875000D02*
X338250000Y-126875000D01*
X338250000Y-126875000D02*
X338187500Y-126937500D01*
X338250000Y-115650000D02*
X338250000Y-116400000D01*
X338793153Y-116943153D02*
X339443153Y-116943153D01*
X338250000Y-116400000D02*
X338793153Y-116943153D01*
X331625000Y-122750000D02*
X330625000Y-122750000D01*
X330625000Y-122750000D02*
X330575000Y-122800000D01*
X343375000Y-120250000D02*
X344375000Y-120250000D01*
X344375000Y-120250000D02*
X344425000Y-120200000D01*
X271712500Y-73087500D02*
X271750000Y-73125000D01*
X271712500Y-71500000D02*
X271712500Y-73087500D01*
X271700000Y-71487500D02*
X271712500Y-71500000D01*
X271700000Y-69987500D02*
X271700000Y-71487500D01*
X264237500Y-79750000D02*
X264187500Y-79800000D01*
X265625000Y-79750000D02*
X265500000Y-79750000D01*
X265500000Y-79750000D02*
X264237500Y-79750000D01*
X279425000Y-77200000D02*
X279375000Y-77250000D01*
X281012500Y-77200000D02*
X279425000Y-77200000D01*
X265500000Y-79750000D02*
X266625000Y-79750000D01*
X270506847Y-83056847D02*
X271006847Y-83056847D01*
X271750000Y-83800000D02*
X271750000Y-84350000D01*
X271006847Y-83056847D02*
X271750000Y-83800000D01*
X271750000Y-74125000D02*
X271750000Y-73125000D01*
X271750000Y-73125000D02*
X271712500Y-73087500D01*
X278375000Y-77250000D02*
X279375000Y-77250000D01*
X279375000Y-77250000D02*
X279425000Y-77200000D01*
X156912500Y-71500000D02*
X156750000Y-71662500D01*
X156750000Y-73125000D02*
X156750000Y-74125000D01*
X156750000Y-73125000D02*
X156750000Y-71662500D01*
X156900000Y-71487500D02*
X156912500Y-71500000D01*
X156900000Y-69987500D02*
X156900000Y-71487500D01*
X149087500Y-79800000D02*
X149137500Y-79750000D01*
X150625000Y-79750000D02*
X151625000Y-79750000D01*
X150625000Y-79750000D02*
X149137500Y-79750000D01*
X164425000Y-77200000D02*
X164425000Y-77200000D01*
X163375000Y-77200000D02*
X164425000Y-77200000D01*
X164425000Y-77200000D02*
X165912500Y-77200000D01*
X179100000Y-97150000D02*
X179100000Y-97100000D01*
X155556847Y-83056847D02*
X155956847Y-83056847D01*
X156750000Y-83850000D02*
X156750000Y-84350000D01*
X155956847Y-83056847D02*
X156750000Y-83850000D01*
X610556847Y-76893153D02*
X611306847Y-76893153D01*
X612250000Y-75850000D02*
X612250000Y-75650000D01*
X611306847Y-76893153D02*
X612350000Y-75850000D01*
X500556847Y-76893153D02*
X501306847Y-76893153D01*
X502250000Y-75900000D02*
X502250000Y-75650000D01*
X501306847Y-76893153D02*
X502300000Y-75900000D01*
X449443153Y-123056847D02*
X448643153Y-123056847D01*
X447750000Y-123950000D02*
X447750000Y-124350000D01*
X448643153Y-123056847D02*
X447750000Y-123950000D01*
X339443153Y-123056847D02*
X338643153Y-123056847D01*
X337750000Y-123950000D02*
X337750000Y-124350000D01*
X338643153Y-123056847D02*
X337750000Y-123950000D01*
X270556847Y-76893153D02*
X271406847Y-76893153D01*
X272250000Y-75900000D02*
X272250000Y-75650000D01*
X271406847Y-76893153D02*
X272350000Y-75950000D01*
X155556847Y-76893153D02*
X156456847Y-76893153D01*
X157250000Y-76100000D02*
X157250000Y-75650000D01*
X156456847Y-76893153D02*
X157250000Y-76100000D01*
X613587500Y-72962500D02*
X613750000Y-73125000D01*
X613750000Y-74125000D02*
X613750000Y-73125000D01*
X613587500Y-72962500D02*
X613587500Y-71500000D01*
D29*
X613587500Y-71500000D02*
X613587500Y-67387500D01*
X566900000Y-84680000D02*
X570000000Y-87780000D01*
X566900000Y-68500000D02*
X566900000Y-84680000D01*
X569400000Y-66000000D02*
X566900000Y-68500000D01*
X612200000Y-66000000D02*
X569400000Y-66000000D01*
X613587500Y-67387500D02*
X612200000Y-66000000D01*
D30*
X503487500Y-71500000D02*
X503750000Y-71762500D01*
X503750000Y-73125000D02*
X503750000Y-74125000D01*
X503750000Y-73125000D02*
X503750000Y-71762500D01*
D29*
X503487500Y-71500000D02*
X505500000Y-71500000D01*
X536880000Y-87780000D02*
X545000000Y-87780000D01*
X523900000Y-74800000D02*
X536880000Y-87780000D01*
X508800000Y-74800000D02*
X523900000Y-74800000D01*
X505500000Y-71500000D02*
X508800000Y-74800000D01*
D30*
X446412500Y-128600000D02*
X446250000Y-128437500D01*
X446250000Y-126875000D02*
X446250000Y-125875000D01*
X446250000Y-126875000D02*
X446250000Y-128437500D01*
D29*
X446412500Y-128600000D02*
X444700000Y-128600000D01*
X413420000Y-112220000D02*
X405000000Y-112220000D01*
X426200000Y-125000000D02*
X413420000Y-112220000D01*
X441100000Y-125000000D02*
X426200000Y-125000000D01*
X444700000Y-128600000D02*
X441100000Y-125000000D01*
D30*
X336250000Y-128037500D02*
X336250000Y-126700000D01*
X336250000Y-126700000D02*
X336250000Y-126875000D01*
X336612500Y-128400000D02*
X336250000Y-128037500D01*
D29*
X336612500Y-128400000D02*
X336612500Y-132512500D01*
X383500000Y-115720000D02*
X380000000Y-112220000D01*
X383500000Y-131800000D02*
X383500000Y-115720000D01*
X381800000Y-133500000D02*
X383500000Y-131800000D01*
X337600000Y-133500000D02*
X381800000Y-133500000D01*
X336612500Y-132512500D02*
X337600000Y-133500000D01*
D30*
X336250000Y-126700000D02*
X336250000Y-125875000D01*
X273750000Y-71962500D02*
X273750000Y-73125000D01*
X273750000Y-74125000D02*
X273750000Y-73125000D01*
X273750000Y-71962500D02*
X273287500Y-71500000D01*
D29*
X273287500Y-71500000D02*
X273287500Y-67387500D01*
X220600000Y-83380000D02*
X225000000Y-87780000D01*
X220600000Y-68300000D02*
X220600000Y-83380000D01*
X222400000Y-66500000D02*
X220600000Y-68300000D01*
X272400000Y-66500000D02*
X222400000Y-66500000D01*
X273287500Y-67387500D02*
X272400000Y-66500000D01*
D30*
X158487500Y-71500000D02*
X158750000Y-71762500D01*
X158750000Y-73125000D02*
X158750000Y-74125000D01*
X158750000Y-73125000D02*
X158750000Y-71762500D01*
D29*
X158487500Y-71500000D02*
X160600000Y-71500000D01*
X190880000Y-87780000D02*
X200000000Y-87780000D01*
X178000000Y-74900000D02*
X190880000Y-87780000D01*
X164000000Y-74900000D02*
X178000000Y-74900000D01*
X160600000Y-71500000D02*
X164000000Y-74900000D01*
M02*
