G04 #@! TF.GenerationSoftware,KiCad,Pcbnew,(5.1.5)-3*
G04 #@! TF.CreationDate,2020-09-20T17:18:26+02:00*
G04 #@! TF.ProjectId,prog_rig,70726f67-5f72-4696-972e-6b696361645f,A*
G04 #@! TF.SameCoordinates,Original*
G04 #@! TF.FileFunction,Legend,Bot*
G04 #@! TF.FilePolarity,Positive*
%FSLAX46Y46*%
G04 Gerber Fmt 4.6, Leading zero omitted, Abs format (unit mm)*
G04 Created by KiCad (PCBNEW (5.1.5)-3) date 2020-09-20 17:18:26*
%MOMM*%
%LPD*%
G04 APERTURE LIST*
%ADD10C,0.120000*%
G04 APERTURE END LIST*
D10*
X263562779Y-80310000D02*
X263237221Y-80310000D01*
X263562779Y-79290000D02*
X263237221Y-79290000D01*
X228870000Y-68670000D02*
X226270000Y-68670000D01*
X228870000Y-68670000D02*
X228870000Y-94190000D01*
X228870000Y-94190000D02*
X223670000Y-94190000D01*
X223670000Y-71270000D02*
X223670000Y-94190000D01*
X226270000Y-71270000D02*
X223670000Y-71270000D01*
X226270000Y-68670000D02*
X226270000Y-71270000D01*
X223670000Y-68670000D02*
X223670000Y-70000000D01*
X225000000Y-68670000D02*
X223670000Y-68670000D01*
X272337221Y-70990000D02*
X272662779Y-70990000D01*
X272337221Y-72010000D02*
X272662779Y-72010000D01*
X270425727Y-82254478D02*
X270195522Y-82024273D01*
X269704478Y-82975727D02*
X269474273Y-82745522D01*
X270475727Y-77695522D02*
X270245522Y-77925727D01*
X269754478Y-76974273D02*
X269524273Y-77204478D01*
X281637221Y-76690000D02*
X281962779Y-76690000D01*
X281637221Y-77710000D02*
X281962779Y-77710000D01*
X272210000Y-69362779D02*
X272210000Y-69037221D01*
X271190000Y-69362779D02*
X271190000Y-69037221D01*
X612510000Y-69262779D02*
X612510000Y-68937221D01*
X611490000Y-69262779D02*
X611490000Y-68937221D01*
X621537221Y-77810000D02*
X621862779Y-77810000D01*
X621537221Y-76790000D02*
X621862779Y-76790000D01*
X603062779Y-80210000D02*
X602737221Y-80210000D01*
X603062779Y-79190000D02*
X602737221Y-79190000D01*
X610475727Y-77695522D02*
X610245522Y-77925727D01*
X609754478Y-76974273D02*
X609524273Y-77204478D01*
X610475727Y-82254478D02*
X610245522Y-82024273D01*
X609754478Y-82975727D02*
X609524273Y-82745522D01*
X501390000Y-69362779D02*
X501390000Y-69037221D01*
X502410000Y-69362779D02*
X502410000Y-69037221D01*
X493462779Y-79190000D02*
X493137221Y-79190000D01*
X493462779Y-80210000D02*
X493137221Y-80210000D01*
X499754478Y-82975727D02*
X499524273Y-82745522D01*
X500475727Y-82254478D02*
X500245522Y-82024273D01*
X499754478Y-76974273D02*
X499524273Y-77204478D01*
X500475727Y-77695522D02*
X500245522Y-77925727D01*
X511537221Y-77710000D02*
X511862779Y-77710000D01*
X511537221Y-76690000D02*
X511862779Y-76690000D01*
X448410000Y-130737221D02*
X448410000Y-131062779D01*
X447390000Y-130737221D02*
X447390000Y-131062779D01*
X438362779Y-123210000D02*
X438037221Y-123210000D01*
X438362779Y-122190000D02*
X438037221Y-122190000D01*
X449524273Y-117695522D02*
X449754478Y-117925727D01*
X450245522Y-116974273D02*
X450475727Y-117204478D01*
X450245522Y-122975727D02*
X450475727Y-122745522D01*
X449524273Y-122254478D02*
X449754478Y-122024273D01*
X456537221Y-119690000D02*
X456862779Y-119690000D01*
X456537221Y-120710000D02*
X456862779Y-120710000D01*
X338610000Y-130537221D02*
X338610000Y-130862779D01*
X337590000Y-130537221D02*
X337590000Y-130862779D01*
X328462779Y-122290000D02*
X328137221Y-122290000D01*
X328462779Y-123310000D02*
X328137221Y-123310000D01*
X340245522Y-117024273D02*
X340475727Y-117254478D01*
X339524273Y-117745522D02*
X339754478Y-117975727D01*
X340245522Y-122975727D02*
X340475727Y-122745522D01*
X339524273Y-122254478D02*
X339754478Y-122024273D01*
X346537221Y-120710000D02*
X346862779Y-120710000D01*
X346537221Y-119690000D02*
X346862779Y-119690000D01*
X156390000Y-69362779D02*
X156390000Y-69037221D01*
X157410000Y-69362779D02*
X157410000Y-69037221D01*
X148462779Y-79290000D02*
X148137221Y-79290000D01*
X148462779Y-80310000D02*
X148137221Y-80310000D01*
X154754478Y-82975727D02*
X154524273Y-82745522D01*
X155475727Y-82254478D02*
X155245522Y-82024273D01*
X154754478Y-76974273D02*
X154524273Y-77204478D01*
X155475727Y-77695522D02*
X155245522Y-77925727D01*
X166537221Y-77710000D02*
X166862779Y-77710000D01*
X166537221Y-76690000D02*
X166862779Y-76690000D01*
X573870000Y-68670000D02*
X571270000Y-68670000D01*
X573870000Y-68670000D02*
X573870000Y-94190000D01*
X573870000Y-94190000D02*
X568670000Y-94190000D01*
X568670000Y-71270000D02*
X568670000Y-94190000D01*
X571270000Y-71270000D02*
X568670000Y-71270000D01*
X571270000Y-68670000D02*
X571270000Y-71270000D01*
X568670000Y-68670000D02*
X568670000Y-70000000D01*
X570000000Y-68670000D02*
X568670000Y-68670000D01*
X545000000Y-68670000D02*
X543670000Y-68670000D01*
X543670000Y-68670000D02*
X543670000Y-70000000D01*
X546270000Y-68670000D02*
X546270000Y-71270000D01*
X546270000Y-71270000D02*
X543670000Y-71270000D01*
X543670000Y-71270000D02*
X543670000Y-94190000D01*
X548870000Y-94190000D02*
X543670000Y-94190000D01*
X548870000Y-68670000D02*
X548870000Y-94190000D01*
X548870000Y-68670000D02*
X546270000Y-68670000D01*
X405000000Y-131330000D02*
X406330000Y-131330000D01*
X406330000Y-131330000D02*
X406330000Y-130000000D01*
X403730000Y-131330000D02*
X403730000Y-128730000D01*
X403730000Y-128730000D02*
X406330000Y-128730000D01*
X406330000Y-128730000D02*
X406330000Y-105810000D01*
X401130000Y-105810000D02*
X406330000Y-105810000D01*
X401130000Y-131330000D02*
X401130000Y-105810000D01*
X401130000Y-131330000D02*
X403730000Y-131330000D01*
X380000000Y-131330000D02*
X381330000Y-131330000D01*
X381330000Y-131330000D02*
X381330000Y-130000000D01*
X378730000Y-131330000D02*
X378730000Y-128730000D01*
X378730000Y-128730000D02*
X381330000Y-128730000D01*
X381330000Y-128730000D02*
X381330000Y-105810000D01*
X376130000Y-105810000D02*
X381330000Y-105810000D01*
X376130000Y-131330000D02*
X376130000Y-105810000D01*
X376130000Y-131330000D02*
X378730000Y-131330000D01*
X203870000Y-68670000D02*
X201270000Y-68670000D01*
X203870000Y-68670000D02*
X203870000Y-94190000D01*
X203870000Y-94190000D02*
X198670000Y-94190000D01*
X198670000Y-71270000D02*
X198670000Y-94190000D01*
X201270000Y-71270000D02*
X198670000Y-71270000D01*
X201270000Y-68670000D02*
X201270000Y-71270000D01*
X198670000Y-68670000D02*
X198670000Y-70000000D01*
X200000000Y-68670000D02*
X198670000Y-68670000D01*
X612637221Y-70990000D02*
X612962779Y-70990000D01*
X612637221Y-72010000D02*
X612962779Y-72010000D01*
X502537221Y-72010000D02*
X502862779Y-72010000D01*
X502537221Y-70990000D02*
X502862779Y-70990000D01*
X447362779Y-129110000D02*
X447037221Y-129110000D01*
X447362779Y-128090000D02*
X447037221Y-128090000D01*
X337562779Y-127890000D02*
X337237221Y-127890000D01*
X337562779Y-128910000D02*
X337237221Y-128910000D01*
X157537221Y-72010000D02*
X157862779Y-72010000D01*
X157537221Y-70990000D02*
X157862779Y-70990000D01*
M02*
